G04 PROTEUS RS274X GERBER FILE*
%FSLAX45Y45*%
%MOMM*%
G01*
%ADD14C,2.032000*%
%AMPPAD010*
4,1,36,
1.016000,-1.143000,
-1.016000,-1.143000,
-1.041970,-1.140470,
-1.065980,-1.133200,
-1.087580,-1.121650,
-1.106290,-1.106290,
-1.121650,-1.087570,
-1.133200,-1.065980,
-1.140470,-1.041970,
-1.143000,-1.016000,
-1.143000,1.016000,
-1.140470,1.041970,
-1.133200,1.065980,
-1.121650,1.087570,
-1.106290,1.106290,
-1.087580,1.121650,
-1.065980,1.133200,
-1.041970,1.140470,
-1.016000,1.143000,
1.016000,1.143000,
1.041970,1.140470,
1.065980,1.133200,
1.087580,1.121650,
1.106290,1.106290,
1.121650,1.087570,
1.133200,1.065980,
1.140470,1.041970,
1.143000,1.016000,
1.143000,-1.016000,
1.140470,-1.041970,
1.133200,-1.065980,
1.121650,-1.087570,
1.106290,-1.106290,
1.087580,-1.121650,
1.065980,-1.133200,
1.041970,-1.140470,
1.016000,-1.143000,
0*%
%ADD70PPAD010*%
%ADD71C,2.286000*%
%ADD12C,1.778000*%
D14*
X+1442000Y+3132000D03*
X+1950000Y+3132000D03*
X+1442000Y+2370000D03*
X+1950000Y+2370000D03*
X+2192000Y+3132000D03*
X+2700000Y+3132000D03*
X+2192000Y+2370000D03*
X+2700000Y+2370000D03*
X+2942000Y+3132000D03*
X+3450000Y+3132000D03*
X+2942000Y+2370000D03*
X+3450000Y+2370000D03*
X+3692000Y+3132000D03*
X+4200000Y+3132000D03*
X+3692000Y+2370000D03*
X+4200000Y+2370000D03*
X+4442000Y+3132000D03*
X+4950000Y+3132000D03*
X+4442000Y+2370000D03*
X+4950000Y+2370000D03*
X+5192000Y+3132000D03*
X+5700000Y+3132000D03*
X+5192000Y+2370000D03*
X+5700000Y+2370000D03*
X+5942000Y+3132000D03*
X+6450000Y+3132000D03*
X+5942000Y+2370000D03*
X+6450000Y+2370000D03*
X+6692000Y+3132000D03*
X+7200000Y+3132000D03*
X+6692000Y+2370000D03*
X+7200000Y+2370000D03*
X+1950000Y+2120000D03*
X+1950000Y+1104000D03*
X+2700000Y+2120000D03*
X+2700000Y+1104000D03*
X+3450000Y+2120000D03*
X+3450000Y+1104000D03*
X+4200000Y+2120000D03*
X+4200000Y+1104000D03*
X+4950000Y+2120000D03*
X+4950000Y+1104000D03*
X+5700000Y+2120000D03*
X+5700000Y+1104000D03*
X+6450000Y+2120000D03*
X+6450000Y+1104000D03*
X+7200000Y+2120000D03*
X+7200000Y+1104000D03*
X+1700000Y+1104000D03*
X+1700000Y+2120000D03*
X+2450000Y+1100000D03*
X+2450000Y+2116000D03*
X+3200000Y+1100000D03*
X+3200000Y+2116000D03*
X+3950000Y+1110000D03*
X+3950000Y+2126000D03*
X+4700000Y+1110000D03*
X+4700000Y+2126000D03*
X+5450000Y+1110000D03*
X+5450000Y+2126000D03*
X+6200000Y+1110000D03*
X+6200000Y+2126000D03*
X+6950000Y+1110000D03*
X+6950000Y+2126000D03*
D70*
X+554000Y+4250000D03*
X+300000Y+4250000D03*
X+554000Y+5000000D03*
X+300000Y+5000000D03*
X+554000Y+5750000D03*
X+300000Y+5750000D03*
X+554000Y+6500000D03*
X+300000Y+6500000D03*
X+554000Y+7250000D03*
X+300000Y+7250000D03*
X+550000Y+8000000D03*
X+296000Y+8000000D03*
X+554000Y+8750000D03*
X+300000Y+8750000D03*
X+554000Y+9500000D03*
X+300000Y+9500000D03*
D71*
X+3450000Y+450000D03*
X+3196000Y+450000D03*
X+2942000Y+450000D03*
X+2688000Y+450000D03*
X+2434000Y+450000D03*
X+2180000Y+450000D03*
X+1926000Y+450000D03*
X+1672000Y+450000D03*
X+5793500Y+9257500D03*
X+5539500Y+9257500D03*
X+5285500Y+9257500D03*
X+5031500Y+9257500D03*
X+4777500Y+9257500D03*
X+4523500Y+9257500D03*
X+4269500Y+9257500D03*
X+4015500Y+9257500D03*
X+5793500Y+8307500D03*
X+5539500Y+8307500D03*
X+5285500Y+8307500D03*
X+5031500Y+8307500D03*
X+4777500Y+8307500D03*
X+4523500Y+8307500D03*
X+4269500Y+8307500D03*
X+4015500Y+8307500D03*
X+2800000Y+6250000D03*
X+2800000Y+6504000D03*
X+2800000Y+6758000D03*
X+2800000Y+7012000D03*
X+2800000Y+7266000D03*
X+2800000Y+7520000D03*
X+2800000Y+7774000D03*
X+2800000Y+8028000D03*
X+6100000Y+3750000D03*
X+6100000Y+4004000D03*
X+6100000Y+4258000D03*
D12*
X+10380000Y+3300000D03*
X+10634000Y+3300000D03*
X+10888000Y+3300000D03*
X+11142000Y+3300000D03*
X+11396000Y+3300000D03*
X+11650000Y+3300000D03*
X+11904000Y+3300000D03*
X+12158000Y+3300000D03*
X+12412000Y+3300000D03*
X+12666000Y+3300000D03*
X+9372000Y+2150000D03*
X+9626000Y+2150000D03*
X+9880000Y+2150000D03*
X+10134000Y+2150000D03*
X+10388000Y+2150000D03*
X+10642000Y+2150000D03*
X+10896000Y+2150000D03*
X+11150000Y+2150000D03*
X+11404000Y+2150000D03*
X+11658000Y+2150000D03*
X+11912000Y+2150000D03*
X+12166000Y+2150000D03*
X+12420000Y+2150000D03*
X+12674000Y+2150000D03*
X+12928000Y+2150000D03*
X+13182000Y+2150000D03*
D71*
X+7399000Y+8503500D03*
X+7399000Y+8249500D03*
X+7399000Y+7995500D03*
X+7399000Y+7741500D03*
X+7399000Y+7487500D03*
X+7399000Y+7233500D03*
X+7399000Y+6979500D03*
X+7399000Y+6725500D03*
X+11430000Y+9271000D03*
X+11176000Y+9271000D03*
X+10922000Y+9271000D03*
X+10668000Y+9271000D03*
X+14550000Y+6804000D03*
X+14550000Y+6550000D03*
D14*
X+850000Y+4250000D03*
X+1866000Y+4250000D03*
X+850000Y+5000000D03*
X+1866000Y+5000000D03*
X+850000Y+5750000D03*
X+1866000Y+5750000D03*
X+850000Y+6500000D03*
X+1866000Y+6500000D03*
X+850000Y+7250000D03*
X+1866000Y+7250000D03*
X+850000Y+8000000D03*
X+1866000Y+8000000D03*
X+850000Y+8750000D03*
X+1866000Y+8750000D03*
X+850000Y+9500000D03*
X+1866000Y+9500000D03*
X+8600000Y+3200000D03*
X+9108000Y+3200000D03*
X+9616000Y+3200000D03*
X+13450000Y+3200000D03*
X+13958000Y+3200000D03*
X+14466000Y+3200000D03*
D71*
X+7350000Y+4254000D03*
X+7350000Y+4000000D03*
X+7350000Y+3746000D03*
D14*
X+10350500Y+6731000D03*
X+10604500Y+6731000D03*
X+10858500Y+6731000D03*
X+11112500Y+6731000D03*
X+11366500Y+6731000D03*
X+11620500Y+6731000D03*
X+11620500Y+8255000D03*
X+11366500Y+8255000D03*
X+11112500Y+8255000D03*
X+10858500Y+8255000D03*
X+10604500Y+8255000D03*
X+10350500Y+8255000D03*
M02*
