G04 PROTEUS RS274X GERBER FILE*
%FSLAX45Y45*%
%MOMM*%
G01*
%ADD17C,0.203200*%
%ADD20C,0.127000*%
%ADD21C,0.063500*%
D17*
X+1442000Y+3195500D02*
X+1442000Y+3068500D01*
X+1378500Y+3132000D02*
X+1505500Y+3132000D01*
X+1950000Y+3195500D02*
X+1950000Y+3068500D01*
X+1886500Y+3132000D02*
X+2013500Y+3132000D01*
X+1442000Y+2433500D02*
X+1442000Y+2306500D01*
X+1378500Y+2370000D02*
X+1505500Y+2370000D01*
X+1950000Y+2433500D02*
X+1950000Y+2306500D01*
X+1886500Y+2370000D02*
X+2013500Y+2370000D01*
X+2192000Y+3195500D02*
X+2192000Y+3068500D01*
X+2128500Y+3132000D02*
X+2255500Y+3132000D01*
X+2700000Y+3195500D02*
X+2700000Y+3068500D01*
X+2636500Y+3132000D02*
X+2763500Y+3132000D01*
X+2192000Y+2433500D02*
X+2192000Y+2306500D01*
X+2128500Y+2370000D02*
X+2255500Y+2370000D01*
X+2700000Y+2433500D02*
X+2700000Y+2306500D01*
X+2636500Y+2370000D02*
X+2763500Y+2370000D01*
X+2942000Y+3195500D02*
X+2942000Y+3068500D01*
X+2878500Y+3132000D02*
X+3005500Y+3132000D01*
X+3450000Y+3195500D02*
X+3450000Y+3068500D01*
X+3386500Y+3132000D02*
X+3513500Y+3132000D01*
X+2942000Y+2433500D02*
X+2942000Y+2306500D01*
X+2878500Y+2370000D02*
X+3005500Y+2370000D01*
X+3450000Y+2433500D02*
X+3450000Y+2306500D01*
X+3386500Y+2370000D02*
X+3513500Y+2370000D01*
X+3692000Y+3195500D02*
X+3692000Y+3068500D01*
X+3628500Y+3132000D02*
X+3755500Y+3132000D01*
X+4200000Y+3195500D02*
X+4200000Y+3068500D01*
X+4136500Y+3132000D02*
X+4263500Y+3132000D01*
X+3692000Y+2433500D02*
X+3692000Y+2306500D01*
X+3628500Y+2370000D02*
X+3755500Y+2370000D01*
X+4200000Y+2433500D02*
X+4200000Y+2306500D01*
X+4136500Y+2370000D02*
X+4263500Y+2370000D01*
X+4442000Y+3195500D02*
X+4442000Y+3068500D01*
X+4378500Y+3132000D02*
X+4505500Y+3132000D01*
X+4950000Y+3195500D02*
X+4950000Y+3068500D01*
X+4886500Y+3132000D02*
X+5013500Y+3132000D01*
X+4442000Y+2433500D02*
X+4442000Y+2306500D01*
X+4378500Y+2370000D02*
X+4505500Y+2370000D01*
X+4950000Y+2433500D02*
X+4950000Y+2306500D01*
X+4886500Y+2370000D02*
X+5013500Y+2370000D01*
X+5192000Y+3195500D02*
X+5192000Y+3068500D01*
X+5128500Y+3132000D02*
X+5255500Y+3132000D01*
X+5700000Y+3195500D02*
X+5700000Y+3068500D01*
X+5636500Y+3132000D02*
X+5763500Y+3132000D01*
X+5192000Y+2433500D02*
X+5192000Y+2306500D01*
X+5128500Y+2370000D02*
X+5255500Y+2370000D01*
X+5700000Y+2433500D02*
X+5700000Y+2306500D01*
X+5636500Y+2370000D02*
X+5763500Y+2370000D01*
X+5942000Y+3195500D02*
X+5942000Y+3068500D01*
X+5878500Y+3132000D02*
X+6005500Y+3132000D01*
X+6450000Y+3195500D02*
X+6450000Y+3068500D01*
X+6386500Y+3132000D02*
X+6513500Y+3132000D01*
X+5942000Y+2433500D02*
X+5942000Y+2306500D01*
X+5878500Y+2370000D02*
X+6005500Y+2370000D01*
X+6450000Y+2433500D02*
X+6450000Y+2306500D01*
X+6386500Y+2370000D02*
X+6513500Y+2370000D01*
X+6692000Y+3195500D02*
X+6692000Y+3068500D01*
X+6628500Y+3132000D02*
X+6755500Y+3132000D01*
X+7200000Y+3195500D02*
X+7200000Y+3068500D01*
X+7136500Y+3132000D02*
X+7263500Y+3132000D01*
X+6692000Y+2433500D02*
X+6692000Y+2306500D01*
X+6628500Y+2370000D02*
X+6755500Y+2370000D01*
X+7200000Y+2433500D02*
X+7200000Y+2306500D01*
X+7136500Y+2370000D02*
X+7263500Y+2370000D01*
X+1950000Y+2183500D02*
X+1950000Y+2056500D01*
X+1886500Y+2120000D02*
X+2013500Y+2120000D01*
X+1950000Y+1167500D02*
X+1950000Y+1040500D01*
X+1886500Y+1104000D02*
X+2013500Y+1104000D01*
X+2700000Y+2183500D02*
X+2700000Y+2056500D01*
X+2636500Y+2120000D02*
X+2763500Y+2120000D01*
X+2700000Y+1167500D02*
X+2700000Y+1040500D01*
X+2636500Y+1104000D02*
X+2763500Y+1104000D01*
X+3450000Y+2183500D02*
X+3450000Y+2056500D01*
X+3386500Y+2120000D02*
X+3513500Y+2120000D01*
X+3450000Y+1167500D02*
X+3450000Y+1040500D01*
X+3386500Y+1104000D02*
X+3513500Y+1104000D01*
X+4200000Y+2183500D02*
X+4200000Y+2056500D01*
X+4136500Y+2120000D02*
X+4263500Y+2120000D01*
X+4200000Y+1167500D02*
X+4200000Y+1040500D01*
X+4136500Y+1104000D02*
X+4263500Y+1104000D01*
X+4950000Y+2183500D02*
X+4950000Y+2056500D01*
X+4886500Y+2120000D02*
X+5013500Y+2120000D01*
X+4950000Y+1167500D02*
X+4950000Y+1040500D01*
X+4886500Y+1104000D02*
X+5013500Y+1104000D01*
X+5700000Y+2183500D02*
X+5700000Y+2056500D01*
X+5636500Y+2120000D02*
X+5763500Y+2120000D01*
X+5700000Y+1167500D02*
X+5700000Y+1040500D01*
X+5636500Y+1104000D02*
X+5763500Y+1104000D01*
X+6450000Y+2183500D02*
X+6450000Y+2056500D01*
X+6386500Y+2120000D02*
X+6513500Y+2120000D01*
X+6450000Y+1167500D02*
X+6450000Y+1040500D01*
X+6386500Y+1104000D02*
X+6513500Y+1104000D01*
X+7200000Y+2183500D02*
X+7200000Y+2056500D01*
X+7136500Y+2120000D02*
X+7263500Y+2120000D01*
X+7200000Y+1167500D02*
X+7200000Y+1040500D01*
X+7136500Y+1104000D02*
X+7263500Y+1104000D01*
X+1700000Y+1167500D02*
X+1700000Y+1040500D01*
X+1636500Y+1104000D02*
X+1763500Y+1104000D01*
X+1700000Y+2183500D02*
X+1700000Y+2056500D01*
X+1636500Y+2120000D02*
X+1763500Y+2120000D01*
X+2450000Y+1163500D02*
X+2450000Y+1036500D01*
X+2386500Y+1100000D02*
X+2513500Y+1100000D01*
X+2450000Y+2179500D02*
X+2450000Y+2052500D01*
X+2386500Y+2116000D02*
X+2513500Y+2116000D01*
X+3200000Y+1163500D02*
X+3200000Y+1036500D01*
X+3136500Y+1100000D02*
X+3263500Y+1100000D01*
X+3200000Y+2179500D02*
X+3200000Y+2052500D01*
X+3136500Y+2116000D02*
X+3263500Y+2116000D01*
X+3950000Y+1173500D02*
X+3950000Y+1046500D01*
X+3886500Y+1110000D02*
X+4013500Y+1110000D01*
X+3950000Y+2189500D02*
X+3950000Y+2062500D01*
X+3886500Y+2126000D02*
X+4013500Y+2126000D01*
X+4700000Y+1173500D02*
X+4700000Y+1046500D01*
X+4636500Y+1110000D02*
X+4763500Y+1110000D01*
X+4700000Y+2189500D02*
X+4700000Y+2062500D01*
X+4636500Y+2126000D02*
X+4763500Y+2126000D01*
X+5450000Y+1173500D02*
X+5450000Y+1046500D01*
X+5386500Y+1110000D02*
X+5513500Y+1110000D01*
X+5450000Y+2189500D02*
X+5450000Y+2062500D01*
X+5386500Y+2126000D02*
X+5513500Y+2126000D01*
X+6200000Y+1173500D02*
X+6200000Y+1046500D01*
X+6136500Y+1110000D02*
X+6263500Y+1110000D01*
X+6200000Y+2189500D02*
X+6200000Y+2062500D01*
X+6136500Y+2126000D02*
X+6263500Y+2126000D01*
X+6950000Y+1173500D02*
X+6950000Y+1046500D01*
X+6886500Y+1110000D02*
X+7013500Y+1110000D01*
X+6950000Y+2189500D02*
X+6950000Y+2062500D01*
X+6886500Y+2126000D02*
X+7013500Y+2126000D01*
X+554000Y+4313500D02*
X+554000Y+4186500D01*
X+490500Y+4250000D02*
X+617500Y+4250000D01*
X+509099Y+4294901D02*
X+598901Y+4205099D01*
X+509099Y+4205099D02*
X+598901Y+4294901D01*
X+300000Y+4313500D02*
X+300000Y+4186500D01*
X+236500Y+4250000D02*
X+363500Y+4250000D01*
X+255099Y+4294901D02*
X+344901Y+4205099D01*
X+255099Y+4205099D02*
X+344901Y+4294901D01*
X+554000Y+5063500D02*
X+554000Y+4936500D01*
X+490500Y+5000000D02*
X+617500Y+5000000D01*
X+509099Y+5044901D02*
X+598901Y+4955099D01*
X+509099Y+4955099D02*
X+598901Y+5044901D01*
X+300000Y+5063500D02*
X+300000Y+4936500D01*
X+236500Y+5000000D02*
X+363500Y+5000000D01*
X+255099Y+5044901D02*
X+344901Y+4955099D01*
X+255099Y+4955099D02*
X+344901Y+5044901D01*
X+554000Y+5813500D02*
X+554000Y+5686500D01*
X+490500Y+5750000D02*
X+617500Y+5750000D01*
X+509099Y+5794901D02*
X+598901Y+5705099D01*
X+509099Y+5705099D02*
X+598901Y+5794901D01*
X+300000Y+5813500D02*
X+300000Y+5686500D01*
X+236500Y+5750000D02*
X+363500Y+5750000D01*
X+255099Y+5794901D02*
X+344901Y+5705099D01*
X+255099Y+5705099D02*
X+344901Y+5794901D01*
X+554000Y+6563500D02*
X+554000Y+6436500D01*
X+490500Y+6500000D02*
X+617500Y+6500000D01*
X+509099Y+6544901D02*
X+598901Y+6455099D01*
X+509099Y+6455099D02*
X+598901Y+6544901D01*
X+300000Y+6563500D02*
X+300000Y+6436500D01*
X+236500Y+6500000D02*
X+363500Y+6500000D01*
X+255099Y+6544901D02*
X+344901Y+6455099D01*
X+255099Y+6455099D02*
X+344901Y+6544901D01*
X+554000Y+7313500D02*
X+554000Y+7186500D01*
X+490500Y+7250000D02*
X+617500Y+7250000D01*
X+509099Y+7294901D02*
X+598901Y+7205099D01*
X+509099Y+7205099D02*
X+598901Y+7294901D01*
X+300000Y+7313500D02*
X+300000Y+7186500D01*
X+236500Y+7250000D02*
X+363500Y+7250000D01*
X+255099Y+7294901D02*
X+344901Y+7205099D01*
X+255099Y+7205099D02*
X+344901Y+7294901D01*
X+550000Y+8063500D02*
X+550000Y+7936500D01*
X+486500Y+8000000D02*
X+613500Y+8000000D01*
X+505099Y+8044901D02*
X+594901Y+7955099D01*
X+505099Y+7955099D02*
X+594901Y+8044901D01*
X+296000Y+8063500D02*
X+296000Y+7936500D01*
X+232500Y+8000000D02*
X+359500Y+8000000D01*
X+251099Y+8044901D02*
X+340901Y+7955099D01*
X+251099Y+7955099D02*
X+340901Y+8044901D01*
X+554000Y+8813500D02*
X+554000Y+8686500D01*
X+490500Y+8750000D02*
X+617500Y+8750000D01*
X+509099Y+8794901D02*
X+598901Y+8705099D01*
X+509099Y+8705099D02*
X+598901Y+8794901D01*
X+300000Y+8813500D02*
X+300000Y+8686500D01*
X+236500Y+8750000D02*
X+363500Y+8750000D01*
X+255099Y+8794901D02*
X+344901Y+8705099D01*
X+255099Y+8705099D02*
X+344901Y+8794901D01*
X+554000Y+9563500D02*
X+554000Y+9436500D01*
X+490500Y+9500000D02*
X+617500Y+9500000D01*
X+509099Y+9544901D02*
X+598901Y+9455099D01*
X+509099Y+9455099D02*
X+598901Y+9544901D01*
X+300000Y+9563500D02*
X+300000Y+9436500D01*
X+236500Y+9500000D02*
X+363500Y+9500000D01*
X+255099Y+9544901D02*
X+344901Y+9455099D01*
X+255099Y+9455099D02*
X+344901Y+9544901D01*
X+3450000Y+513500D02*
X+3450000Y+386500D01*
X+3386500Y+450000D02*
X+3513500Y+450000D01*
X+3405099Y+494901D02*
X+3494901Y+405099D01*
X+3405099Y+405099D02*
X+3494901Y+494901D01*
X+3196000Y+513500D02*
X+3196000Y+386500D01*
X+3132500Y+450000D02*
X+3259500Y+450000D01*
X+3151099Y+494901D02*
X+3240901Y+405099D01*
X+3151099Y+405099D02*
X+3240901Y+494901D01*
X+2942000Y+513500D02*
X+2942000Y+386500D01*
X+2878500Y+450000D02*
X+3005500Y+450000D01*
X+2897099Y+494901D02*
X+2986901Y+405099D01*
X+2897099Y+405099D02*
X+2986901Y+494901D01*
X+2688000Y+513500D02*
X+2688000Y+386500D01*
X+2624500Y+450000D02*
X+2751500Y+450000D01*
X+2643099Y+494901D02*
X+2732901Y+405099D01*
X+2643099Y+405099D02*
X+2732901Y+494901D01*
X+2434000Y+513500D02*
X+2434000Y+386500D01*
X+2370500Y+450000D02*
X+2497500Y+450000D01*
X+2389099Y+494901D02*
X+2478901Y+405099D01*
X+2389099Y+405099D02*
X+2478901Y+494901D01*
X+2180000Y+513500D02*
X+2180000Y+386500D01*
X+2116500Y+450000D02*
X+2243500Y+450000D01*
X+2135099Y+494901D02*
X+2224901Y+405099D01*
X+2135099Y+405099D02*
X+2224901Y+494901D01*
X+1926000Y+513500D02*
X+1926000Y+386500D01*
X+1862500Y+450000D02*
X+1989500Y+450000D01*
X+1881099Y+494901D02*
X+1970901Y+405099D01*
X+1881099Y+405099D02*
X+1970901Y+494901D01*
X+1672000Y+513500D02*
X+1672000Y+386500D01*
X+1608500Y+450000D02*
X+1735500Y+450000D01*
X+1627099Y+494901D02*
X+1716901Y+405099D01*
X+1627099Y+405099D02*
X+1716901Y+494901D01*
X+5793500Y+9321000D02*
X+5793500Y+9194000D01*
X+5730000Y+9257500D02*
X+5857000Y+9257500D01*
X+5748599Y+9302401D02*
X+5838401Y+9212599D01*
X+5748599Y+9212599D02*
X+5838401Y+9302401D01*
X+5539500Y+9321000D02*
X+5539500Y+9194000D01*
X+5476000Y+9257500D02*
X+5603000Y+9257500D01*
X+5494599Y+9302401D02*
X+5584401Y+9212599D01*
X+5494599Y+9212599D02*
X+5584401Y+9302401D01*
X+5285500Y+9321000D02*
X+5285500Y+9194000D01*
X+5222000Y+9257500D02*
X+5349000Y+9257500D01*
X+5240599Y+9302401D02*
X+5330401Y+9212599D01*
X+5240599Y+9212599D02*
X+5330401Y+9302401D01*
X+5031500Y+9321000D02*
X+5031500Y+9194000D01*
X+4968000Y+9257500D02*
X+5095000Y+9257500D01*
X+4986599Y+9302401D02*
X+5076401Y+9212599D01*
X+4986599Y+9212599D02*
X+5076401Y+9302401D01*
X+4777500Y+9321000D02*
X+4777500Y+9194000D01*
X+4714000Y+9257500D02*
X+4841000Y+9257500D01*
X+4732599Y+9302401D02*
X+4822401Y+9212599D01*
X+4732599Y+9212599D02*
X+4822401Y+9302401D01*
X+4523500Y+9321000D02*
X+4523500Y+9194000D01*
X+4460000Y+9257500D02*
X+4587000Y+9257500D01*
X+4478599Y+9302401D02*
X+4568401Y+9212599D01*
X+4478599Y+9212599D02*
X+4568401Y+9302401D01*
X+4269500Y+9321000D02*
X+4269500Y+9194000D01*
X+4206000Y+9257500D02*
X+4333000Y+9257500D01*
X+4224599Y+9302401D02*
X+4314401Y+9212599D01*
X+4224599Y+9212599D02*
X+4314401Y+9302401D01*
X+4015500Y+9321000D02*
X+4015500Y+9194000D01*
X+3952000Y+9257500D02*
X+4079000Y+9257500D01*
X+3970599Y+9302401D02*
X+4060401Y+9212599D01*
X+3970599Y+9212599D02*
X+4060401Y+9302401D01*
X+5793500Y+8371000D02*
X+5793500Y+8244000D01*
X+5730000Y+8307500D02*
X+5857000Y+8307500D01*
X+5748599Y+8352401D02*
X+5838401Y+8262599D01*
X+5748599Y+8262599D02*
X+5838401Y+8352401D01*
X+5539500Y+8371000D02*
X+5539500Y+8244000D01*
X+5476000Y+8307500D02*
X+5603000Y+8307500D01*
X+5494599Y+8352401D02*
X+5584401Y+8262599D01*
X+5494599Y+8262599D02*
X+5584401Y+8352401D01*
X+5285500Y+8371000D02*
X+5285500Y+8244000D01*
X+5222000Y+8307500D02*
X+5349000Y+8307500D01*
X+5240599Y+8352401D02*
X+5330401Y+8262599D01*
X+5240599Y+8262599D02*
X+5330401Y+8352401D01*
X+5031500Y+8371000D02*
X+5031500Y+8244000D01*
X+4968000Y+8307500D02*
X+5095000Y+8307500D01*
X+4986599Y+8352401D02*
X+5076401Y+8262599D01*
X+4986599Y+8262599D02*
X+5076401Y+8352401D01*
X+4777500Y+8371000D02*
X+4777500Y+8244000D01*
X+4714000Y+8307500D02*
X+4841000Y+8307500D01*
X+4732599Y+8352401D02*
X+4822401Y+8262599D01*
X+4732599Y+8262599D02*
X+4822401Y+8352401D01*
X+4523500Y+8371000D02*
X+4523500Y+8244000D01*
X+4460000Y+8307500D02*
X+4587000Y+8307500D01*
X+4478599Y+8352401D02*
X+4568401Y+8262599D01*
X+4478599Y+8262599D02*
X+4568401Y+8352401D01*
X+4269500Y+8371000D02*
X+4269500Y+8244000D01*
X+4206000Y+8307500D02*
X+4333000Y+8307500D01*
X+4224599Y+8352401D02*
X+4314401Y+8262599D01*
X+4224599Y+8262599D02*
X+4314401Y+8352401D01*
X+4015500Y+8371000D02*
X+4015500Y+8244000D01*
X+3952000Y+8307500D02*
X+4079000Y+8307500D01*
X+3970599Y+8352401D02*
X+4060401Y+8262599D01*
X+3970599Y+8262599D02*
X+4060401Y+8352401D01*
X+2800000Y+6313500D02*
X+2800000Y+6186500D01*
X+2736500Y+6250000D02*
X+2863500Y+6250000D01*
X+2755099Y+6294901D02*
X+2844901Y+6205099D01*
X+2755099Y+6205099D02*
X+2844901Y+6294901D01*
X+2800000Y+6567500D02*
X+2800000Y+6440500D01*
X+2736500Y+6504000D02*
X+2863500Y+6504000D01*
X+2755099Y+6548901D02*
X+2844901Y+6459099D01*
X+2755099Y+6459099D02*
X+2844901Y+6548901D01*
X+2800000Y+6821500D02*
X+2800000Y+6694500D01*
X+2736500Y+6758000D02*
X+2863500Y+6758000D01*
X+2755099Y+6802901D02*
X+2844901Y+6713099D01*
X+2755099Y+6713099D02*
X+2844901Y+6802901D01*
X+2800000Y+7075500D02*
X+2800000Y+6948500D01*
X+2736500Y+7012000D02*
X+2863500Y+7012000D01*
X+2755099Y+7056901D02*
X+2844901Y+6967099D01*
X+2755099Y+6967099D02*
X+2844901Y+7056901D01*
X+2800000Y+7329500D02*
X+2800000Y+7202500D01*
X+2736500Y+7266000D02*
X+2863500Y+7266000D01*
X+2755099Y+7310901D02*
X+2844901Y+7221099D01*
X+2755099Y+7221099D02*
X+2844901Y+7310901D01*
X+2800000Y+7583500D02*
X+2800000Y+7456500D01*
X+2736500Y+7520000D02*
X+2863500Y+7520000D01*
X+2755099Y+7564901D02*
X+2844901Y+7475099D01*
X+2755099Y+7475099D02*
X+2844901Y+7564901D01*
X+2800000Y+7837500D02*
X+2800000Y+7710500D01*
X+2736500Y+7774000D02*
X+2863500Y+7774000D01*
X+2755099Y+7818901D02*
X+2844901Y+7729099D01*
X+2755099Y+7729099D02*
X+2844901Y+7818901D01*
X+2800000Y+8091500D02*
X+2800000Y+7964500D01*
X+2736500Y+8028000D02*
X+2863500Y+8028000D01*
X+2755099Y+8072901D02*
X+2844901Y+7983099D01*
X+2755099Y+7983099D02*
X+2844901Y+8072901D01*
X+6100000Y+3813500D02*
X+6100000Y+3686500D01*
X+6036500Y+3750000D02*
X+6163500Y+3750000D01*
X+6055099Y+3794901D02*
X+6144901Y+3705099D01*
X+6055099Y+3705099D02*
X+6144901Y+3794901D01*
X+6100000Y+4067500D02*
X+6100000Y+3940500D01*
X+6036500Y+4004000D02*
X+6163500Y+4004000D01*
X+6055099Y+4048901D02*
X+6144901Y+3959099D01*
X+6055099Y+3959099D02*
X+6144901Y+4048901D01*
X+6100000Y+4321500D02*
X+6100000Y+4194500D01*
X+6036500Y+4258000D02*
X+6163500Y+4258000D01*
X+6055099Y+4302901D02*
X+6144901Y+4213099D01*
X+6055099Y+4213099D02*
X+6144901Y+4302901D01*
X+10335099Y+3344901D02*
X+10424901Y+3255099D01*
X+10335099Y+3255099D02*
X+10424901Y+3344901D01*
X+10589099Y+3344901D02*
X+10678901Y+3255099D01*
X+10589099Y+3255099D02*
X+10678901Y+3344901D01*
X+10843099Y+3344901D02*
X+10932901Y+3255099D01*
X+10843099Y+3255099D02*
X+10932901Y+3344901D01*
X+11097099Y+3344901D02*
X+11186901Y+3255099D01*
X+11097099Y+3255099D02*
X+11186901Y+3344901D01*
X+11351099Y+3344901D02*
X+11440901Y+3255099D01*
X+11351099Y+3255099D02*
X+11440901Y+3344901D01*
X+11605099Y+3344901D02*
X+11694901Y+3255099D01*
X+11605099Y+3255099D02*
X+11694901Y+3344901D01*
X+11859099Y+3344901D02*
X+11948901Y+3255099D01*
X+11859099Y+3255099D02*
X+11948901Y+3344901D01*
X+12113099Y+3344901D02*
X+12202901Y+3255099D01*
X+12113099Y+3255099D02*
X+12202901Y+3344901D01*
X+12367099Y+3344901D02*
X+12456901Y+3255099D01*
X+12367099Y+3255099D02*
X+12456901Y+3344901D01*
X+12621099Y+3344901D02*
X+12710901Y+3255099D01*
X+12621099Y+3255099D02*
X+12710901Y+3344901D01*
X+9327099Y+2194901D02*
X+9416901Y+2105099D01*
X+9327099Y+2105099D02*
X+9416901Y+2194901D01*
X+9581099Y+2194901D02*
X+9670901Y+2105099D01*
X+9581099Y+2105099D02*
X+9670901Y+2194901D01*
X+9835099Y+2194901D02*
X+9924901Y+2105099D01*
X+9835099Y+2105099D02*
X+9924901Y+2194901D01*
X+10089099Y+2194901D02*
X+10178901Y+2105099D01*
X+10089099Y+2105099D02*
X+10178901Y+2194901D01*
X+10343099Y+2194901D02*
X+10432901Y+2105099D01*
X+10343099Y+2105099D02*
X+10432901Y+2194901D01*
X+10597099Y+2194901D02*
X+10686901Y+2105099D01*
X+10597099Y+2105099D02*
X+10686901Y+2194901D01*
X+10851099Y+2194901D02*
X+10940901Y+2105099D01*
X+10851099Y+2105099D02*
X+10940901Y+2194901D01*
X+11105099Y+2194901D02*
X+11194901Y+2105099D01*
X+11105099Y+2105099D02*
X+11194901Y+2194901D01*
X+11359099Y+2194901D02*
X+11448901Y+2105099D01*
X+11359099Y+2105099D02*
X+11448901Y+2194901D01*
X+11613099Y+2194901D02*
X+11702901Y+2105099D01*
X+11613099Y+2105099D02*
X+11702901Y+2194901D01*
X+11867099Y+2194901D02*
X+11956901Y+2105099D01*
X+11867099Y+2105099D02*
X+11956901Y+2194901D01*
X+12121099Y+2194901D02*
X+12210901Y+2105099D01*
X+12121099Y+2105099D02*
X+12210901Y+2194901D01*
X+12375099Y+2194901D02*
X+12464901Y+2105099D01*
X+12375099Y+2105099D02*
X+12464901Y+2194901D01*
X+12629099Y+2194901D02*
X+12718901Y+2105099D01*
X+12629099Y+2105099D02*
X+12718901Y+2194901D01*
X+12883099Y+2194901D02*
X+12972901Y+2105099D01*
X+12883099Y+2105099D02*
X+12972901Y+2194901D01*
X+13137099Y+2194901D02*
X+13226901Y+2105099D01*
X+13137099Y+2105099D02*
X+13226901Y+2194901D01*
X+7399000Y+8567000D02*
X+7399000Y+8440000D01*
X+7335500Y+8503500D02*
X+7462500Y+8503500D01*
X+7354099Y+8548401D02*
X+7443901Y+8458599D01*
X+7354099Y+8458599D02*
X+7443901Y+8548401D01*
X+7399000Y+8313000D02*
X+7399000Y+8186000D01*
X+7335500Y+8249500D02*
X+7462500Y+8249500D01*
X+7354099Y+8294401D02*
X+7443901Y+8204599D01*
X+7354099Y+8204599D02*
X+7443901Y+8294401D01*
X+7399000Y+8059000D02*
X+7399000Y+7932000D01*
X+7335500Y+7995500D02*
X+7462500Y+7995500D01*
X+7354099Y+8040401D02*
X+7443901Y+7950599D01*
X+7354099Y+7950599D02*
X+7443901Y+8040401D01*
X+7399000Y+7805000D02*
X+7399000Y+7678000D01*
X+7335500Y+7741500D02*
X+7462500Y+7741500D01*
X+7354099Y+7786401D02*
X+7443901Y+7696599D01*
X+7354099Y+7696599D02*
X+7443901Y+7786401D01*
X+7399000Y+7551000D02*
X+7399000Y+7424000D01*
X+7335500Y+7487500D02*
X+7462500Y+7487500D01*
X+7354099Y+7532401D02*
X+7443901Y+7442599D01*
X+7354099Y+7442599D02*
X+7443901Y+7532401D01*
X+7399000Y+7297000D02*
X+7399000Y+7170000D01*
X+7335500Y+7233500D02*
X+7462500Y+7233500D01*
X+7354099Y+7278401D02*
X+7443901Y+7188599D01*
X+7354099Y+7188599D02*
X+7443901Y+7278401D01*
X+7399000Y+7043000D02*
X+7399000Y+6916000D01*
X+7335500Y+6979500D02*
X+7462500Y+6979500D01*
X+7354099Y+7024401D02*
X+7443901Y+6934599D01*
X+7354099Y+6934599D02*
X+7443901Y+7024401D01*
X+7399000Y+6789000D02*
X+7399000Y+6662000D01*
X+7335500Y+6725500D02*
X+7462500Y+6725500D01*
X+7354099Y+6770401D02*
X+7443901Y+6680599D01*
X+7354099Y+6680599D02*
X+7443901Y+6770401D01*
X+11430000Y+9334500D02*
X+11430000Y+9207500D01*
X+11366500Y+9271000D02*
X+11493500Y+9271000D01*
X+11385099Y+9315901D02*
X+11474901Y+9226099D01*
X+11385099Y+9226099D02*
X+11474901Y+9315901D01*
X+11176000Y+9334500D02*
X+11176000Y+9207500D01*
X+11112500Y+9271000D02*
X+11239500Y+9271000D01*
X+11131099Y+9315901D02*
X+11220901Y+9226099D01*
X+11131099Y+9226099D02*
X+11220901Y+9315901D01*
X+10922000Y+9334500D02*
X+10922000Y+9207500D01*
X+10858500Y+9271000D02*
X+10985500Y+9271000D01*
X+10877099Y+9315901D02*
X+10966901Y+9226099D01*
X+10877099Y+9226099D02*
X+10966901Y+9315901D01*
X+10668000Y+9334500D02*
X+10668000Y+9207500D01*
X+10604500Y+9271000D02*
X+10731500Y+9271000D01*
X+10623099Y+9315901D02*
X+10712901Y+9226099D01*
X+10623099Y+9226099D02*
X+10712901Y+9315901D01*
X+14550000Y+6867500D02*
X+14550000Y+6740500D01*
X+14486500Y+6804000D02*
X+14613500Y+6804000D01*
X+14505099Y+6848901D02*
X+14594901Y+6759099D01*
X+14505099Y+6759099D02*
X+14594901Y+6848901D01*
X+14550000Y+6613500D02*
X+14550000Y+6486500D01*
X+14486500Y+6550000D02*
X+14613500Y+6550000D01*
X+14505099Y+6594901D02*
X+14594901Y+6505099D01*
X+14505099Y+6505099D02*
X+14594901Y+6594901D01*
X+850000Y+4313500D02*
X+850000Y+4186500D01*
X+786500Y+4250000D02*
X+913500Y+4250000D01*
X+1866000Y+4313500D02*
X+1866000Y+4186500D01*
X+1802500Y+4250000D02*
X+1929500Y+4250000D01*
X+850000Y+5063500D02*
X+850000Y+4936500D01*
X+786500Y+5000000D02*
X+913500Y+5000000D01*
X+1866000Y+5063500D02*
X+1866000Y+4936500D01*
X+1802500Y+5000000D02*
X+1929500Y+5000000D01*
X+850000Y+5813500D02*
X+850000Y+5686500D01*
X+786500Y+5750000D02*
X+913500Y+5750000D01*
X+1866000Y+5813500D02*
X+1866000Y+5686500D01*
X+1802500Y+5750000D02*
X+1929500Y+5750000D01*
X+850000Y+6563500D02*
X+850000Y+6436500D01*
X+786500Y+6500000D02*
X+913500Y+6500000D01*
X+1866000Y+6563500D02*
X+1866000Y+6436500D01*
X+1802500Y+6500000D02*
X+1929500Y+6500000D01*
X+850000Y+7313500D02*
X+850000Y+7186500D01*
X+786500Y+7250000D02*
X+913500Y+7250000D01*
X+1866000Y+7313500D02*
X+1866000Y+7186500D01*
X+1802500Y+7250000D02*
X+1929500Y+7250000D01*
X+850000Y+8063500D02*
X+850000Y+7936500D01*
X+786500Y+8000000D02*
X+913500Y+8000000D01*
X+1866000Y+8063500D02*
X+1866000Y+7936500D01*
X+1802500Y+8000000D02*
X+1929500Y+8000000D01*
X+850000Y+8813500D02*
X+850000Y+8686500D01*
X+786500Y+8750000D02*
X+913500Y+8750000D01*
X+1866000Y+8813500D02*
X+1866000Y+8686500D01*
X+1802500Y+8750000D02*
X+1929500Y+8750000D01*
X+850000Y+9563500D02*
X+850000Y+9436500D01*
X+786500Y+9500000D02*
X+913500Y+9500000D01*
X+1866000Y+9563500D02*
X+1866000Y+9436500D01*
X+1802500Y+9500000D02*
X+1929500Y+9500000D01*
X+8600000Y+3263500D02*
X+8600000Y+3136500D01*
X+8536500Y+3200000D02*
X+8663500Y+3200000D01*
X+9108000Y+3263500D02*
X+9108000Y+3136500D01*
X+9044500Y+3200000D02*
X+9171500Y+3200000D01*
X+9616000Y+3263500D02*
X+9616000Y+3136500D01*
X+9552500Y+3200000D02*
X+9679500Y+3200000D01*
X+13450000Y+3263500D02*
X+13450000Y+3136500D01*
X+13386500Y+3200000D02*
X+13513500Y+3200000D01*
X+13958000Y+3263500D02*
X+13958000Y+3136500D01*
X+13894500Y+3200000D02*
X+14021500Y+3200000D01*
X+14466000Y+3263500D02*
X+14466000Y+3136500D01*
X+14402500Y+3200000D02*
X+14529500Y+3200000D01*
X+7350000Y+4317500D02*
X+7350000Y+4190500D01*
X+7286500Y+4254000D02*
X+7413500Y+4254000D01*
X+7350000Y+4063500D02*
X+7350000Y+3936500D01*
X+7286500Y+4000000D02*
X+7413500Y+4000000D01*
X+7350000Y+3809500D02*
X+7350000Y+3682500D01*
X+7286500Y+3746000D02*
X+7413500Y+3746000D01*
X+10350500Y+6794500D02*
X+10350500Y+6667500D01*
X+10287000Y+6731000D02*
X+10414000Y+6731000D01*
X+10604500Y+6794500D02*
X+10604500Y+6667500D01*
X+10541000Y+6731000D02*
X+10668000Y+6731000D01*
X+10858500Y+6794500D02*
X+10858500Y+6667500D01*
X+10795000Y+6731000D02*
X+10922000Y+6731000D01*
X+11112500Y+6794500D02*
X+11112500Y+6667500D01*
X+11049000Y+6731000D02*
X+11176000Y+6731000D01*
X+11366500Y+6794500D02*
X+11366500Y+6667500D01*
X+11303000Y+6731000D02*
X+11430000Y+6731000D01*
X+11620500Y+6794500D02*
X+11620500Y+6667500D01*
X+11557000Y+6731000D02*
X+11684000Y+6731000D01*
X+11620500Y+8318500D02*
X+11620500Y+8191500D01*
X+11557000Y+8255000D02*
X+11684000Y+8255000D01*
X+11366500Y+8318500D02*
X+11366500Y+8191500D01*
X+11303000Y+8255000D02*
X+11430000Y+8255000D01*
X+11112500Y+8318500D02*
X+11112500Y+8191500D01*
X+11049000Y+8255000D02*
X+11176000Y+8255000D01*
X+10858500Y+8318500D02*
X+10858500Y+8191500D01*
X+10795000Y+8255000D02*
X+10922000Y+8255000D01*
X+10604500Y+8318500D02*
X+10604500Y+8191500D01*
X+10541000Y+8255000D02*
X+10668000Y+8255000D01*
X+10350500Y+8318500D02*
X+10350500Y+8191500D01*
X+10287000Y+8255000D02*
X+10414000Y+8255000D01*
D20*
X-12700Y-1350860D02*
X+2631440Y-1350860D01*
X+2631440Y-347560D01*
X-12700Y-347560D01*
X-12700Y-1350860D01*
D21*
X+454662Y-347560D02*
X+454662Y-1350860D01*
X+1267462Y-347560D02*
X+1267462Y-1350860D01*
X+2100582Y-347560D02*
X+2100582Y-1350860D01*
X-12700Y-620610D02*
X+2631440Y-620610D01*
X-12700Y-861910D02*
X+2631440Y-861910D01*
X-12700Y-1103210D02*
X+2631440Y-1103210D01*
D20*
X+44450Y-511390D02*
X+59690Y-526630D01*
X+120650Y-526630D01*
X+135890Y-511390D01*
X+135890Y-496150D01*
X+120650Y-480910D01*
X+59690Y-480910D01*
X+44450Y-465670D01*
X+44450Y-450430D01*
X+59690Y-435190D01*
X+120650Y-435190D01*
X+135890Y-450430D01*
X+257810Y-435190D02*
X+166370Y-526630D01*
X+166370Y-435190D02*
X+212090Y-480910D01*
X+288290Y-526630D02*
X+288290Y-435190D01*
X+334010Y-480910D01*
X+379730Y-435190D01*
X+379730Y-526630D01*
X+511810Y-511390D02*
X+527050Y-526630D01*
X+588010Y-526630D01*
X+603250Y-511390D01*
X+603250Y-496150D01*
X+588010Y-480910D01*
X+527050Y-480910D01*
X+511810Y-465670D01*
X+511810Y-450430D01*
X+527050Y-435190D01*
X+588010Y-435190D01*
X+603250Y-450430D01*
X+648970Y-435190D02*
X+709930Y-435190D01*
X+679450Y-435190D02*
X+679450Y-526630D01*
X+648970Y-526630D02*
X+709930Y-526630D01*
X+755650Y-435190D02*
X+847090Y-435190D01*
X+755650Y-526630D01*
X+847090Y-526630D01*
X+969010Y-526630D02*
X+877570Y-526630D01*
X+877570Y-435190D01*
X+969010Y-435190D01*
X+877570Y-480910D02*
X+938530Y-480910D01*
X+1324610Y-526630D02*
X+1324610Y-435190D01*
X+1400810Y-435190D01*
X+1416050Y-450430D01*
X+1416050Y-465670D01*
X+1400810Y-480910D01*
X+1324610Y-480910D01*
X+1446530Y-435190D02*
X+1446530Y-526630D01*
X+1537970Y-526630D01*
X+1568450Y-526630D02*
X+1568450Y-465670D01*
X+1598930Y-435190D01*
X+1629410Y-435190D01*
X+1659890Y-465670D01*
X+1659890Y-526630D01*
X+1568450Y-496150D02*
X+1659890Y-496150D01*
X+1690370Y-435190D02*
X+1781810Y-435190D01*
X+1736090Y-435190D02*
X+1736090Y-526630D01*
X+1903730Y-526630D02*
X+1812290Y-526630D01*
X+1812290Y-435190D01*
X+1903730Y-435190D01*
X+1812290Y-480910D02*
X+1873250Y-480910D01*
X+1934210Y-526630D02*
X+1934210Y-435190D01*
X+1995170Y-435190D01*
X+2025650Y-465670D01*
X+2025650Y-496150D01*
X+1995170Y-526630D01*
X+1934210Y-526630D01*
X+2157730Y-465670D02*
X+2188210Y-435190D01*
X+2218690Y-435190D01*
X+2249170Y-465670D01*
X+2249170Y-496150D01*
X+2218690Y-526630D01*
X+2188210Y-526630D01*
X+2157730Y-496150D01*
X+2157730Y-465670D01*
X+2218690Y-496150D02*
X+2249170Y-526630D01*
X+2279650Y-435190D02*
X+2371090Y-435190D01*
X+2325370Y-435190D02*
X+2325370Y-526630D01*
X+2493010Y-435190D02*
X+2401570Y-526630D01*
X+2401570Y-435190D02*
X+2447290Y-480910D01*
D17*
X+233680Y-671410D02*
X+233680Y-798410D01*
X+170180Y-734910D02*
X+297180Y-734910D01*
D20*
X+530860Y-760310D02*
X+530860Y-709510D01*
X+543560Y-696810D01*
X+594360Y-696810D01*
X+607060Y-709510D01*
X+607060Y-760310D01*
X+594360Y-773010D01*
X+543560Y-773010D01*
X+530860Y-760310D01*
X+530860Y-773010D02*
X+607060Y-696810D01*
X+670560Y-760310D02*
X+683260Y-760310D01*
X+683260Y-773010D01*
X+670560Y-773010D01*
X+670560Y-760310D01*
X+746760Y-696810D02*
X+810260Y-696810D01*
X+810260Y-709510D01*
X+746760Y-773010D01*
X+911860Y-709510D02*
X+899160Y-696810D01*
X+861060Y-696810D01*
X+848360Y-709510D01*
X+848360Y-760310D01*
X+861060Y-773010D01*
X+899160Y-773010D01*
X+911860Y-760310D01*
X+911860Y-747610D01*
X+899160Y-734910D01*
X+848360Y-734910D01*
X+949960Y-709510D02*
X+962660Y-696810D01*
X+1000760Y-696810D01*
X+1013460Y-709510D01*
X+1013460Y-722210D01*
X+1000760Y-734910D01*
X+962660Y-734910D01*
X+949960Y-747610D01*
X+949960Y-773010D01*
X+1013460Y-773010D01*
X+1038860Y-773010D02*
X+1038860Y-722210D01*
X+1038860Y-734910D02*
X+1051560Y-722210D01*
X+1076960Y-747610D01*
X+1102360Y-722210D01*
X+1115060Y-734910D01*
X+1115060Y-773010D01*
X+1140460Y-773010D02*
X+1140460Y-722210D01*
X+1140460Y-734910D02*
X+1153160Y-722210D01*
X+1178560Y-747610D01*
X+1203960Y-722210D01*
X+1216660Y-734910D01*
X+1216660Y-773010D01*
X+1432560Y-696810D02*
X+1356360Y-773010D01*
X+1356360Y-696810D02*
X+1394460Y-734910D01*
X+1534160Y-773010D02*
X+1457960Y-773010D01*
X+1457960Y-696810D01*
X+1534160Y-696810D01*
X+1457960Y-734910D02*
X+1508760Y-734910D01*
X+1559560Y-760310D02*
X+1572260Y-773010D01*
X+1623060Y-773010D01*
X+1635760Y-760310D01*
X+1635760Y-747610D01*
X+1623060Y-734910D01*
X+1572260Y-734910D01*
X+1559560Y-722210D01*
X+1559560Y-709510D01*
X+1572260Y-696810D01*
X+1623060Y-696810D01*
X+1635760Y-709510D01*
X+2227580Y-722210D02*
X+2252980Y-696810D01*
X+2252980Y-773010D01*
X+2303780Y-760310D02*
X+2303780Y-709510D01*
X+2316480Y-696810D01*
X+2367280Y-696810D01*
X+2379980Y-709510D01*
X+2379980Y-760310D01*
X+2367280Y-773010D01*
X+2316480Y-773010D01*
X+2303780Y-760310D01*
X+2303780Y-773010D02*
X+2379980Y-696810D01*
X+2430780Y-722210D02*
X+2456180Y-696810D01*
X+2456180Y-773010D01*
D17*
X+188779Y-931309D02*
X+278581Y-1021111D01*
X+188779Y-1021111D02*
X+278581Y-931309D01*
D20*
X+530860Y-1001610D02*
X+530860Y-950810D01*
X+543560Y-938110D01*
X+594360Y-938110D01*
X+607060Y-950810D01*
X+607060Y-1001610D01*
X+594360Y-1014310D01*
X+543560Y-1014310D01*
X+530860Y-1001610D01*
X+530860Y-1014310D02*
X+607060Y-938110D01*
X+670560Y-1001610D02*
X+683260Y-1001610D01*
X+683260Y-1014310D01*
X+670560Y-1014310D01*
X+670560Y-1001610D01*
X+810260Y-963510D02*
X+797560Y-976210D01*
X+759460Y-976210D01*
X+746760Y-963510D01*
X+746760Y-950810D01*
X+759460Y-938110D01*
X+797560Y-938110D01*
X+810260Y-950810D01*
X+810260Y-1001610D01*
X+797560Y-1014310D01*
X+759460Y-1014310D01*
X+911860Y-950810D02*
X+899160Y-938110D01*
X+861060Y-938110D01*
X+848360Y-950810D01*
X+848360Y-1001610D01*
X+861060Y-1014310D01*
X+899160Y-1014310D01*
X+911860Y-1001610D01*
X+911860Y-988910D01*
X+899160Y-976210D01*
X+848360Y-976210D01*
X+1013460Y-938110D02*
X+949960Y-938110D01*
X+949960Y-963510D01*
X+1000760Y-963510D01*
X+1013460Y-976210D01*
X+1013460Y-1001610D01*
X+1000760Y-1014310D01*
X+962660Y-1014310D01*
X+949960Y-1001610D01*
X+1038860Y-1014310D02*
X+1038860Y-963510D01*
X+1038860Y-976210D02*
X+1051560Y-963510D01*
X+1076960Y-988910D01*
X+1102360Y-963510D01*
X+1115060Y-976210D01*
X+1115060Y-1014310D01*
X+1140460Y-1014310D02*
X+1140460Y-963510D01*
X+1140460Y-976210D02*
X+1153160Y-963510D01*
X+1178560Y-988910D01*
X+1203960Y-963510D01*
X+1216660Y-976210D01*
X+1216660Y-1014310D01*
X+1432560Y-938110D02*
X+1356360Y-1014310D01*
X+1356360Y-938110D02*
X+1394460Y-976210D01*
X+1534160Y-1014310D02*
X+1457960Y-1014310D01*
X+1457960Y-938110D01*
X+1534160Y-938110D01*
X+1457960Y-976210D02*
X+1508760Y-976210D01*
X+1559560Y-1001610D02*
X+1572260Y-1014310D01*
X+1623060Y-1014310D01*
X+1635760Y-1001610D01*
X+1635760Y-988910D01*
X+1623060Y-976210D01*
X+1572260Y-976210D01*
X+1559560Y-963510D01*
X+1559560Y-950810D01*
X+1572260Y-938110D01*
X+1623060Y-938110D01*
X+1635760Y-950810D01*
X+2214880Y-950810D02*
X+2227580Y-938110D01*
X+2265680Y-938110D01*
X+2278380Y-950810D01*
X+2278380Y-963510D01*
X+2265680Y-976210D01*
X+2227580Y-976210D01*
X+2214880Y-988910D01*
X+2214880Y-1014310D01*
X+2278380Y-1014310D01*
X+2379980Y-950810D02*
X+2367280Y-938110D01*
X+2329180Y-938110D01*
X+2316480Y-950810D01*
X+2316480Y-1001610D01*
X+2329180Y-1014310D01*
X+2367280Y-1014310D01*
X+2379980Y-1001610D01*
X+2379980Y-988910D01*
X+2367280Y-976210D01*
X+2316480Y-976210D01*
D17*
X+233680Y-1154010D02*
X+233680Y-1281010D01*
X+170180Y-1217510D02*
X+297180Y-1217510D01*
X+188779Y-1172609D02*
X+278581Y-1262411D01*
X+188779Y-1262411D02*
X+278581Y-1172609D01*
D20*
X+556260Y-1204810D02*
X+581660Y-1179410D01*
X+581660Y-1255610D01*
X+670560Y-1242910D02*
X+683260Y-1242910D01*
X+683260Y-1255610D01*
X+670560Y-1255610D01*
X+670560Y-1242910D01*
X+734060Y-1242910D02*
X+734060Y-1192110D01*
X+746760Y-1179410D01*
X+797560Y-1179410D01*
X+810260Y-1192110D01*
X+810260Y-1242910D01*
X+797560Y-1255610D01*
X+746760Y-1255610D01*
X+734060Y-1242910D01*
X+734060Y-1255610D02*
X+810260Y-1179410D01*
X+861060Y-1204810D02*
X+886460Y-1179410D01*
X+886460Y-1255610D01*
X+1013460Y-1192110D02*
X+1000760Y-1179410D01*
X+962660Y-1179410D01*
X+949960Y-1192110D01*
X+949960Y-1242910D01*
X+962660Y-1255610D01*
X+1000760Y-1255610D01*
X+1013460Y-1242910D01*
X+1013460Y-1230210D01*
X+1000760Y-1217510D01*
X+949960Y-1217510D01*
X+1038860Y-1255610D02*
X+1038860Y-1204810D01*
X+1038860Y-1217510D02*
X+1051560Y-1204810D01*
X+1076960Y-1230210D01*
X+1102360Y-1204810D01*
X+1115060Y-1217510D01*
X+1115060Y-1255610D01*
X+1140460Y-1255610D02*
X+1140460Y-1204810D01*
X+1140460Y-1217510D02*
X+1153160Y-1204810D01*
X+1178560Y-1230210D01*
X+1203960Y-1204810D01*
X+1216660Y-1217510D01*
X+1216660Y-1255610D01*
X+1432560Y-1179410D02*
X+1356360Y-1255610D01*
X+1356360Y-1179410D02*
X+1394460Y-1217510D01*
X+1534160Y-1255610D02*
X+1457960Y-1255610D01*
X+1457960Y-1179410D01*
X+1534160Y-1179410D01*
X+1457960Y-1217510D02*
X+1508760Y-1217510D01*
X+1559560Y-1242910D02*
X+1572260Y-1255610D01*
X+1623060Y-1255610D01*
X+1635760Y-1242910D01*
X+1635760Y-1230210D01*
X+1623060Y-1217510D01*
X+1572260Y-1217510D01*
X+1559560Y-1204810D01*
X+1559560Y-1192110D01*
X+1572260Y-1179410D01*
X+1623060Y-1179410D01*
X+1635760Y-1192110D01*
X+2278380Y-1192110D02*
X+2265680Y-1179410D01*
X+2227580Y-1179410D01*
X+2214880Y-1192110D01*
X+2214880Y-1242910D01*
X+2227580Y-1255610D01*
X+2265680Y-1255610D01*
X+2278380Y-1242910D01*
X+2278380Y-1230210D01*
X+2265680Y-1217510D01*
X+2214880Y-1217510D01*
X+2379980Y-1179410D02*
X+2316480Y-1179410D01*
X+2316480Y-1204810D01*
X+2367280Y-1204810D01*
X+2379980Y-1217510D01*
X+2379980Y-1242910D01*
X+2367280Y-1255610D01*
X+2329180Y-1255610D01*
X+2316480Y-1242910D01*
M02*
