M48
METRIC,TZ
T01C0.7620
T02C1.0160
T03C0.9650
%
T01
X+14420Y+31320
X+19500Y+31320
X+14420Y+23700
X+19500Y+23700
X+21920Y+31320
X+27000Y+31320
X+21920Y+23700
X+27000Y+23700
X+29420Y+31320
X+34500Y+31320
X+29420Y+23700
X+34500Y+23700
X+36920Y+31320
X+42000Y+31320
X+36920Y+23700
X+42000Y+23700
X+44420Y+31320
X+49500Y+31320
X+44420Y+23700
X+49500Y+23700
X+51920Y+31320
X+57000Y+31320
X+51920Y+23700
X+57000Y+23700
X+59420Y+31320
X+64500Y+31320
X+59420Y+23700
X+64500Y+23700
X+66920Y+31320
X+72000Y+31320
X+66920Y+23700
X+72000Y+23700
X+19500Y+21200
X+19500Y+11040
X+27000Y+21200
X+27000Y+11040
X+34500Y+21200
X+34500Y+11040
X+42000Y+21200
X+42000Y+11040
X+49500Y+21200
X+49500Y+11040
X+57000Y+21200
X+57000Y+11040
X+64500Y+21200
X+64500Y+11040
X+72000Y+21200
X+72000Y+11040
X+17000Y+11040
X+17000Y+21200
X+24500Y+11000
X+24500Y+21160
X+32000Y+11000
X+32000Y+21160
X+39500Y+11100
X+39500Y+21260
X+47000Y+11100
X+47000Y+21260
X+54500Y+11100
X+54500Y+21260
X+62000Y+11100
X+62000Y+21260
X+69500Y+11100
X+69500Y+21260
X+8500Y+42500
X+18660Y+42500
X+8500Y+50000
X+18660Y+50000
X+8500Y+57500
X+18660Y+57500
X+8500Y+65000
X+18660Y+65000
X+8500Y+72500
X+18660Y+72500
X+8500Y+80000
X+18660Y+80000
X+8500Y+87500
X+18660Y+87500
X+8500Y+95000
X+18660Y+95000
X+86000Y+32000
X+91080Y+32000
X+96160Y+32000
X+134500Y+32000
X+139580Y+32000
X+144660Y+32000
X+73500Y+42540
X+73500Y+40000
X+73500Y+37460
X+103505Y+67310
X+106045Y+67310
X+108585Y+67310
X+111125Y+67310
X+113665Y+67310
X+116205Y+67310
X+116205Y+82550
X+113665Y+82550
X+111125Y+82550
X+108585Y+82550
X+106045Y+82550
X+103505Y+82550
T02
X+5540Y+42500
X+3000Y+42500
X+5540Y+50000
X+3000Y+50000
X+5540Y+57500
X+3000Y+57500
X+5540Y+65000
X+3000Y+65000
X+5540Y+72500
X+3000Y+72500
X+5500Y+80000
X+2960Y+80000
X+5540Y+87500
X+3000Y+87500
X+5540Y+95000
X+3000Y+95000
X+34500Y+4500
X+31960Y+4500
X+29420Y+4500
X+26880Y+4500
X+24340Y+4500
X+21800Y+4500
X+19260Y+4500
X+16720Y+4500
X+57935Y+92575
X+55395Y+92575
X+52855Y+92575
X+50315Y+92575
X+47775Y+92575
X+45235Y+92575
X+42695Y+92575
X+40155Y+92575
X+57935Y+83075
X+55395Y+83075
X+52855Y+83075
X+50315Y+83075
X+47775Y+83075
X+45235Y+83075
X+42695Y+83075
X+40155Y+83075
X+28000Y+62500
X+28000Y+65040
X+28000Y+67580
X+28000Y+70120
X+28000Y+72660
X+28000Y+75200
X+28000Y+77740
X+28000Y+80280
X+61000Y+37500
X+61000Y+40040
X+61000Y+42580
X+73990Y+85035
X+73990Y+82495
X+73990Y+79955
X+73990Y+77415
X+73990Y+74875
X+73990Y+72335
X+73990Y+69795
X+73990Y+67255
X+114300Y+92710
X+111760Y+92710
X+109220Y+92710
X+106680Y+92710
X+145500Y+68040
X+145500Y+65500
T03
X+103800Y+33000
X+106340Y+33000
X+108880Y+33000
X+111420Y+33000
X+113960Y+33000
X+116500Y+33000
X+119040Y+33000
X+121580Y+33000
X+124120Y+33000
X+126660Y+33000
X+93720Y+21500
X+96260Y+21500
X+98800Y+21500
X+101340Y+21500
X+103880Y+21500
X+106420Y+21500
X+108960Y+21500
X+111500Y+21500
X+114040Y+21500
X+116580Y+21500
X+119120Y+21500
X+121660Y+21500
X+124200Y+21500
X+126740Y+21500
X+129280Y+21500
X+131820Y+21500
M30
