G04 PROTEUS RS274X GERBER FILE*
%FSLAX45Y45*%
%MOMM*%
G01*
%ADD17C,0.203200*%
%ADD18C,0.508000*%
%ADD19C,0.152400*%
D17*
X+1416600Y+2471600D02*
X+1975400Y+2471600D01*
X+1975400Y+3030400D01*
X+1416600Y+3030400D01*
X+1416600Y+2471600D01*
X+1375960Y+2560500D02*
X+1284520Y+2560500D01*
X+1284520Y+2639875D01*
X+1299760Y+2655750D01*
X+1315000Y+2655750D01*
X+1330240Y+2639875D01*
X+1330240Y+2560500D01*
X+1375960Y+2687500D02*
X+1284520Y+2687500D01*
X+1284520Y+2766875D01*
X+1299760Y+2782750D01*
X+1315000Y+2782750D01*
X+1330240Y+2766875D01*
X+1345480Y+2782750D01*
X+1360720Y+2782750D01*
X+1375960Y+2766875D01*
X+1375960Y+2687500D01*
X+1330240Y+2687500D02*
X+1330240Y+2766875D01*
X+1315000Y+2846250D02*
X+1284520Y+2878000D01*
X+1375960Y+2878000D01*
X+2166600Y+2471600D02*
X+2725400Y+2471600D01*
X+2725400Y+3030400D01*
X+2166600Y+3030400D01*
X+2166600Y+2471600D01*
X+2125960Y+2560500D02*
X+2034520Y+2560500D01*
X+2034520Y+2639875D01*
X+2049760Y+2655750D01*
X+2065000Y+2655750D01*
X+2080240Y+2639875D01*
X+2080240Y+2560500D01*
X+2125960Y+2687500D02*
X+2034520Y+2687500D01*
X+2034520Y+2766875D01*
X+2049760Y+2782750D01*
X+2065000Y+2782750D01*
X+2080240Y+2766875D01*
X+2095480Y+2782750D01*
X+2110720Y+2782750D01*
X+2125960Y+2766875D01*
X+2125960Y+2687500D01*
X+2080240Y+2687500D02*
X+2080240Y+2766875D01*
X+2049760Y+2830375D02*
X+2034520Y+2846250D01*
X+2034520Y+2893875D01*
X+2049760Y+2909750D01*
X+2065000Y+2909750D01*
X+2080240Y+2893875D01*
X+2080240Y+2846250D01*
X+2095480Y+2830375D01*
X+2125960Y+2830375D01*
X+2125960Y+2909750D01*
X+2916600Y+2471600D02*
X+3475400Y+2471600D01*
X+3475400Y+3030400D01*
X+2916600Y+3030400D01*
X+2916600Y+2471600D01*
X+2875960Y+2560500D02*
X+2784520Y+2560500D01*
X+2784520Y+2639875D01*
X+2799760Y+2655750D01*
X+2815000Y+2655750D01*
X+2830240Y+2639875D01*
X+2830240Y+2560500D01*
X+2875960Y+2687500D02*
X+2784520Y+2687500D01*
X+2784520Y+2766875D01*
X+2799760Y+2782750D01*
X+2815000Y+2782750D01*
X+2830240Y+2766875D01*
X+2845480Y+2782750D01*
X+2860720Y+2782750D01*
X+2875960Y+2766875D01*
X+2875960Y+2687500D01*
X+2830240Y+2687500D02*
X+2830240Y+2766875D01*
X+2799760Y+2830375D02*
X+2784520Y+2846250D01*
X+2784520Y+2893875D01*
X+2799760Y+2909750D01*
X+2815000Y+2909750D01*
X+2830240Y+2893875D01*
X+2845480Y+2909750D01*
X+2860720Y+2909750D01*
X+2875960Y+2893875D01*
X+2875960Y+2846250D01*
X+2860720Y+2830375D01*
X+2830240Y+2862125D02*
X+2830240Y+2893875D01*
X+3666600Y+2471600D02*
X+4225400Y+2471600D01*
X+4225400Y+3030400D01*
X+3666600Y+3030400D01*
X+3666600Y+2471600D01*
X+3625960Y+2560500D02*
X+3534520Y+2560500D01*
X+3534520Y+2639875D01*
X+3549760Y+2655750D01*
X+3565000Y+2655750D01*
X+3580240Y+2639875D01*
X+3580240Y+2560500D01*
X+3625960Y+2687500D02*
X+3534520Y+2687500D01*
X+3534520Y+2766875D01*
X+3549760Y+2782750D01*
X+3565000Y+2782750D01*
X+3580240Y+2766875D01*
X+3595480Y+2782750D01*
X+3610720Y+2782750D01*
X+3625960Y+2766875D01*
X+3625960Y+2687500D01*
X+3580240Y+2687500D02*
X+3580240Y+2766875D01*
X+3595480Y+2909750D02*
X+3595480Y+2814500D01*
X+3534520Y+2878000D01*
X+3625960Y+2878000D01*
X+4416600Y+2471600D02*
X+4975400Y+2471600D01*
X+4975400Y+3030400D01*
X+4416600Y+3030400D01*
X+4416600Y+2471600D01*
X+4375960Y+2560500D02*
X+4284520Y+2560500D01*
X+4284520Y+2639875D01*
X+4299760Y+2655750D01*
X+4315000Y+2655750D01*
X+4330240Y+2639875D01*
X+4330240Y+2560500D01*
X+4375960Y+2687500D02*
X+4284520Y+2687500D01*
X+4284520Y+2766875D01*
X+4299760Y+2782750D01*
X+4315000Y+2782750D01*
X+4330240Y+2766875D01*
X+4345480Y+2782750D01*
X+4360720Y+2782750D01*
X+4375960Y+2766875D01*
X+4375960Y+2687500D01*
X+4330240Y+2687500D02*
X+4330240Y+2766875D01*
X+4284520Y+2909750D02*
X+4284520Y+2830375D01*
X+4315000Y+2830375D01*
X+4315000Y+2893875D01*
X+4330240Y+2909750D01*
X+4360720Y+2909750D01*
X+4375960Y+2893875D01*
X+4375960Y+2846250D01*
X+4360720Y+2830375D01*
X+5166600Y+2471600D02*
X+5725400Y+2471600D01*
X+5725400Y+3030400D01*
X+5166600Y+3030400D01*
X+5166600Y+2471600D01*
X+5125960Y+2560500D02*
X+5034520Y+2560500D01*
X+5034520Y+2639875D01*
X+5049760Y+2655750D01*
X+5065000Y+2655750D01*
X+5080240Y+2639875D01*
X+5080240Y+2560500D01*
X+5125960Y+2687500D02*
X+5034520Y+2687500D01*
X+5034520Y+2766875D01*
X+5049760Y+2782750D01*
X+5065000Y+2782750D01*
X+5080240Y+2766875D01*
X+5095480Y+2782750D01*
X+5110720Y+2782750D01*
X+5125960Y+2766875D01*
X+5125960Y+2687500D01*
X+5080240Y+2687500D02*
X+5080240Y+2766875D01*
X+5049760Y+2909750D02*
X+5034520Y+2893875D01*
X+5034520Y+2846250D01*
X+5049760Y+2830375D01*
X+5110720Y+2830375D01*
X+5125960Y+2846250D01*
X+5125960Y+2893875D01*
X+5110720Y+2909750D01*
X+5095480Y+2909750D01*
X+5080240Y+2893875D01*
X+5080240Y+2830375D01*
X+5916600Y+2471600D02*
X+6475400Y+2471600D01*
X+6475400Y+3030400D01*
X+5916600Y+3030400D01*
X+5916600Y+2471600D01*
X+5875960Y+2560500D02*
X+5784520Y+2560500D01*
X+5784520Y+2639875D01*
X+5799760Y+2655750D01*
X+5815000Y+2655750D01*
X+5830240Y+2639875D01*
X+5830240Y+2560500D01*
X+5875960Y+2687500D02*
X+5784520Y+2687500D01*
X+5784520Y+2766875D01*
X+5799760Y+2782750D01*
X+5815000Y+2782750D01*
X+5830240Y+2766875D01*
X+5845480Y+2782750D01*
X+5860720Y+2782750D01*
X+5875960Y+2766875D01*
X+5875960Y+2687500D01*
X+5830240Y+2687500D02*
X+5830240Y+2766875D01*
X+5784520Y+2830375D02*
X+5784520Y+2909750D01*
X+5799760Y+2909750D01*
X+5875960Y+2830375D01*
X+6666600Y+2471600D02*
X+7225400Y+2471600D01*
X+7225400Y+3030400D01*
X+6666600Y+3030400D01*
X+6666600Y+2471600D01*
X+6625960Y+2560500D02*
X+6534520Y+2560500D01*
X+6534520Y+2639875D01*
X+6549760Y+2655750D01*
X+6565000Y+2655750D01*
X+6580240Y+2639875D01*
X+6580240Y+2560500D01*
X+6625960Y+2687500D02*
X+6534520Y+2687500D01*
X+6534520Y+2766875D01*
X+6549760Y+2782750D01*
X+6565000Y+2782750D01*
X+6580240Y+2766875D01*
X+6595480Y+2782750D01*
X+6610720Y+2782750D01*
X+6625960Y+2766875D01*
X+6625960Y+2687500D01*
X+6580240Y+2687500D02*
X+6580240Y+2766875D01*
X+6580240Y+2846250D02*
X+6565000Y+2830375D01*
X+6549760Y+2830375D01*
X+6534520Y+2846250D01*
X+6534520Y+2893875D01*
X+6549760Y+2909750D01*
X+6565000Y+2909750D01*
X+6580240Y+2893875D01*
X+6580240Y+2846250D01*
X+6595480Y+2830375D01*
X+6610720Y+2830375D01*
X+6625960Y+2846250D01*
X+6625960Y+2893875D01*
X+6610720Y+2909750D01*
X+6595480Y+2909750D01*
X+6580240Y+2893875D01*
X+1950000Y+1993000D02*
X+1950000Y+1866000D01*
X+1886500Y+1358000D02*
X+2013500Y+1358000D01*
X+2013500Y+1866000D01*
X+1886500Y+1866000D01*
X+1886500Y+1358000D01*
X+1950000Y+1358000D02*
X+1950000Y+1231000D01*
X+2145580Y+1485000D02*
X+2054140Y+1485000D01*
X+2054140Y+1564375D01*
X+2069380Y+1580250D01*
X+2084620Y+1580250D01*
X+2099860Y+1564375D01*
X+2099860Y+1485000D01*
X+2099860Y+1564375D02*
X+2115100Y+1580250D01*
X+2145580Y+1580250D01*
X+2084620Y+1643750D02*
X+2054140Y+1675500D01*
X+2145580Y+1675500D01*
X+2700000Y+1993000D02*
X+2700000Y+1866000D01*
X+2636500Y+1358000D02*
X+2763500Y+1358000D01*
X+2763500Y+1866000D01*
X+2636500Y+1866000D01*
X+2636500Y+1358000D01*
X+2700000Y+1358000D02*
X+2700000Y+1231000D01*
X+2895580Y+1485000D02*
X+2804140Y+1485000D01*
X+2804140Y+1564375D01*
X+2819380Y+1580250D01*
X+2834620Y+1580250D01*
X+2849860Y+1564375D01*
X+2849860Y+1485000D01*
X+2849860Y+1564375D02*
X+2865100Y+1580250D01*
X+2895580Y+1580250D01*
X+2819380Y+1627875D02*
X+2804140Y+1643750D01*
X+2804140Y+1691375D01*
X+2819380Y+1707250D01*
X+2834620Y+1707250D01*
X+2849860Y+1691375D01*
X+2849860Y+1643750D01*
X+2865100Y+1627875D01*
X+2895580Y+1627875D01*
X+2895580Y+1707250D01*
X+3450000Y+1993000D02*
X+3450000Y+1866000D01*
X+3386500Y+1358000D02*
X+3513500Y+1358000D01*
X+3513500Y+1866000D01*
X+3386500Y+1866000D01*
X+3386500Y+1358000D01*
X+3450000Y+1358000D02*
X+3450000Y+1231000D01*
X+3645580Y+1485000D02*
X+3554140Y+1485000D01*
X+3554140Y+1564375D01*
X+3569380Y+1580250D01*
X+3584620Y+1580250D01*
X+3599860Y+1564375D01*
X+3599860Y+1485000D01*
X+3599860Y+1564375D02*
X+3615100Y+1580250D01*
X+3645580Y+1580250D01*
X+3569380Y+1627875D02*
X+3554140Y+1643750D01*
X+3554140Y+1691375D01*
X+3569380Y+1707250D01*
X+3584620Y+1707250D01*
X+3599860Y+1691375D01*
X+3615100Y+1707250D01*
X+3630340Y+1707250D01*
X+3645580Y+1691375D01*
X+3645580Y+1643750D01*
X+3630340Y+1627875D01*
X+3599860Y+1659625D02*
X+3599860Y+1691375D01*
X+4200000Y+1993000D02*
X+4200000Y+1866000D01*
X+4136500Y+1358000D02*
X+4263500Y+1358000D01*
X+4263500Y+1866000D01*
X+4136500Y+1866000D01*
X+4136500Y+1358000D01*
X+4200000Y+1358000D02*
X+4200000Y+1231000D01*
X+4395580Y+1485000D02*
X+4304140Y+1485000D01*
X+4304140Y+1564375D01*
X+4319380Y+1580250D01*
X+4334620Y+1580250D01*
X+4349860Y+1564375D01*
X+4349860Y+1485000D01*
X+4349860Y+1564375D02*
X+4365100Y+1580250D01*
X+4395580Y+1580250D01*
X+4365100Y+1707250D02*
X+4365100Y+1612000D01*
X+4304140Y+1675500D01*
X+4395580Y+1675500D01*
X+4950000Y+1993000D02*
X+4950000Y+1866000D01*
X+4886500Y+1358000D02*
X+5013500Y+1358000D01*
X+5013500Y+1866000D01*
X+4886500Y+1866000D01*
X+4886500Y+1358000D01*
X+4950000Y+1358000D02*
X+4950000Y+1231000D01*
X+5145580Y+1485000D02*
X+5054140Y+1485000D01*
X+5054140Y+1564375D01*
X+5069380Y+1580250D01*
X+5084620Y+1580250D01*
X+5099860Y+1564375D01*
X+5099860Y+1485000D01*
X+5099860Y+1564375D02*
X+5115100Y+1580250D01*
X+5145580Y+1580250D01*
X+5054140Y+1707250D02*
X+5054140Y+1627875D01*
X+5084620Y+1627875D01*
X+5084620Y+1691375D01*
X+5099860Y+1707250D01*
X+5130340Y+1707250D01*
X+5145580Y+1691375D01*
X+5145580Y+1643750D01*
X+5130340Y+1627875D01*
X+5700000Y+1993000D02*
X+5700000Y+1866000D01*
X+5636500Y+1358000D02*
X+5763500Y+1358000D01*
X+5763500Y+1866000D01*
X+5636500Y+1866000D01*
X+5636500Y+1358000D01*
X+5700000Y+1358000D02*
X+5700000Y+1231000D01*
X+5895580Y+1485000D02*
X+5804140Y+1485000D01*
X+5804140Y+1564375D01*
X+5819380Y+1580250D01*
X+5834620Y+1580250D01*
X+5849860Y+1564375D01*
X+5849860Y+1485000D01*
X+5849860Y+1564375D02*
X+5865100Y+1580250D01*
X+5895580Y+1580250D01*
X+5819380Y+1707250D02*
X+5804140Y+1691375D01*
X+5804140Y+1643750D01*
X+5819380Y+1627875D01*
X+5880340Y+1627875D01*
X+5895580Y+1643750D01*
X+5895580Y+1691375D01*
X+5880340Y+1707250D01*
X+5865100Y+1707250D01*
X+5849860Y+1691375D01*
X+5849860Y+1627875D01*
X+6450000Y+1993000D02*
X+6450000Y+1866000D01*
X+6386500Y+1358000D02*
X+6513500Y+1358000D01*
X+6513500Y+1866000D01*
X+6386500Y+1866000D01*
X+6386500Y+1358000D01*
X+6450000Y+1358000D02*
X+6450000Y+1231000D01*
X+6645580Y+1485000D02*
X+6554140Y+1485000D01*
X+6554140Y+1564375D01*
X+6569380Y+1580250D01*
X+6584620Y+1580250D01*
X+6599860Y+1564375D01*
X+6599860Y+1485000D01*
X+6599860Y+1564375D02*
X+6615100Y+1580250D01*
X+6645580Y+1580250D01*
X+6554140Y+1627875D02*
X+6554140Y+1707250D01*
X+6569380Y+1707250D01*
X+6645580Y+1627875D01*
X+7200000Y+1993000D02*
X+7200000Y+1866000D01*
X+7136500Y+1358000D02*
X+7263500Y+1358000D01*
X+7263500Y+1866000D01*
X+7136500Y+1866000D01*
X+7136500Y+1358000D01*
X+7200000Y+1358000D02*
X+7200000Y+1231000D01*
X+7395580Y+1485000D02*
X+7304140Y+1485000D01*
X+7304140Y+1564375D01*
X+7319380Y+1580250D01*
X+7334620Y+1580250D01*
X+7349860Y+1564375D01*
X+7349860Y+1485000D01*
X+7349860Y+1564375D02*
X+7365100Y+1580250D01*
X+7395580Y+1580250D01*
X+7349860Y+1643750D02*
X+7334620Y+1627875D01*
X+7319380Y+1627875D01*
X+7304140Y+1643750D01*
X+7304140Y+1691375D01*
X+7319380Y+1707250D01*
X+7334620Y+1707250D01*
X+7349860Y+1691375D01*
X+7349860Y+1643750D01*
X+7365100Y+1627875D01*
X+7380340Y+1627875D01*
X+7395580Y+1643750D01*
X+7395580Y+1691375D01*
X+7380340Y+1707250D01*
X+7365100Y+1707250D01*
X+7349860Y+1691375D01*
X+1700000Y+1231000D02*
X+1700000Y+1358000D01*
X+1636500Y+1358000D02*
X+1763500Y+1358000D01*
X+1763500Y+1866000D01*
X+1636500Y+1866000D01*
X+1636500Y+1358000D01*
X+1700000Y+1866000D02*
X+1700000Y+1993000D01*
X+1595860Y+1485000D02*
X+1504420Y+1485000D01*
X+1504420Y+1564375D01*
X+1519660Y+1580250D01*
X+1534900Y+1580250D01*
X+1550140Y+1564375D01*
X+1550140Y+1485000D01*
X+1550140Y+1564375D02*
X+1565380Y+1580250D01*
X+1595860Y+1580250D01*
X+1534900Y+1707250D02*
X+1550140Y+1691375D01*
X+1550140Y+1643750D01*
X+1534900Y+1627875D01*
X+1519660Y+1627875D01*
X+1504420Y+1643750D01*
X+1504420Y+1691375D01*
X+1519660Y+1707250D01*
X+1580620Y+1707250D01*
X+1595860Y+1691375D01*
X+1595860Y+1643750D01*
X+2450000Y+1227000D02*
X+2450000Y+1354000D01*
X+2386500Y+1354000D02*
X+2513500Y+1354000D01*
X+2513500Y+1862000D01*
X+2386500Y+1862000D01*
X+2386500Y+1354000D01*
X+2450000Y+1862000D02*
X+2450000Y+1989000D01*
X+2345860Y+1417500D02*
X+2254420Y+1417500D01*
X+2254420Y+1496875D01*
X+2269660Y+1512750D01*
X+2284900Y+1512750D01*
X+2300140Y+1496875D01*
X+2300140Y+1417500D01*
X+2300140Y+1496875D02*
X+2315380Y+1512750D01*
X+2345860Y+1512750D01*
X+2284900Y+1576250D02*
X+2254420Y+1608000D01*
X+2345860Y+1608000D01*
X+2330620Y+1671500D02*
X+2269660Y+1671500D01*
X+2254420Y+1687375D01*
X+2254420Y+1750875D01*
X+2269660Y+1766750D01*
X+2330620Y+1766750D01*
X+2345860Y+1750875D01*
X+2345860Y+1687375D01*
X+2330620Y+1671500D01*
X+2345860Y+1671500D02*
X+2254420Y+1766750D01*
X+3200000Y+1227000D02*
X+3200000Y+1354000D01*
X+3136500Y+1354000D02*
X+3263500Y+1354000D01*
X+3263500Y+1862000D01*
X+3136500Y+1862000D01*
X+3136500Y+1354000D01*
X+3200000Y+1862000D02*
X+3200000Y+1989000D01*
X+3095860Y+1417500D02*
X+3004420Y+1417500D01*
X+3004420Y+1496875D01*
X+3019660Y+1512750D01*
X+3034900Y+1512750D01*
X+3050140Y+1496875D01*
X+3050140Y+1417500D01*
X+3050140Y+1496875D02*
X+3065380Y+1512750D01*
X+3095860Y+1512750D01*
X+3034900Y+1576250D02*
X+3004420Y+1608000D01*
X+3095860Y+1608000D01*
X+3034900Y+1703250D02*
X+3004420Y+1735000D01*
X+3095860Y+1735000D01*
X+3950000Y+1237000D02*
X+3950000Y+1364000D01*
X+3886500Y+1364000D02*
X+4013500Y+1364000D01*
X+4013500Y+1872000D01*
X+3886500Y+1872000D01*
X+3886500Y+1364000D01*
X+3950000Y+1872000D02*
X+3950000Y+1999000D01*
X+3845860Y+1427500D02*
X+3754420Y+1427500D01*
X+3754420Y+1506875D01*
X+3769660Y+1522750D01*
X+3784900Y+1522750D01*
X+3800140Y+1506875D01*
X+3800140Y+1427500D01*
X+3800140Y+1506875D02*
X+3815380Y+1522750D01*
X+3845860Y+1522750D01*
X+3784900Y+1586250D02*
X+3754420Y+1618000D01*
X+3845860Y+1618000D01*
X+3769660Y+1697375D02*
X+3754420Y+1713250D01*
X+3754420Y+1760875D01*
X+3769660Y+1776750D01*
X+3784900Y+1776750D01*
X+3800140Y+1760875D01*
X+3800140Y+1713250D01*
X+3815380Y+1697375D01*
X+3845860Y+1697375D01*
X+3845860Y+1776750D01*
X+4700000Y+1237000D02*
X+4700000Y+1364000D01*
X+4636500Y+1364000D02*
X+4763500Y+1364000D01*
X+4763500Y+1872000D01*
X+4636500Y+1872000D01*
X+4636500Y+1364000D01*
X+4700000Y+1872000D02*
X+4700000Y+1999000D01*
X+4595860Y+1427500D02*
X+4504420Y+1427500D01*
X+4504420Y+1506875D01*
X+4519660Y+1522750D01*
X+4534900Y+1522750D01*
X+4550140Y+1506875D01*
X+4550140Y+1427500D01*
X+4550140Y+1506875D02*
X+4565380Y+1522750D01*
X+4595860Y+1522750D01*
X+4534900Y+1586250D02*
X+4504420Y+1618000D01*
X+4595860Y+1618000D01*
X+4519660Y+1697375D02*
X+4504420Y+1713250D01*
X+4504420Y+1760875D01*
X+4519660Y+1776750D01*
X+4534900Y+1776750D01*
X+4550140Y+1760875D01*
X+4565380Y+1776750D01*
X+4580620Y+1776750D01*
X+4595860Y+1760875D01*
X+4595860Y+1713250D01*
X+4580620Y+1697375D01*
X+4550140Y+1729125D02*
X+4550140Y+1760875D01*
X+5450000Y+1237000D02*
X+5450000Y+1364000D01*
X+5386500Y+1364000D02*
X+5513500Y+1364000D01*
X+5513500Y+1872000D01*
X+5386500Y+1872000D01*
X+5386500Y+1364000D01*
X+5450000Y+1872000D02*
X+5450000Y+1999000D01*
X+5345860Y+1427500D02*
X+5254420Y+1427500D01*
X+5254420Y+1506875D01*
X+5269660Y+1522750D01*
X+5284900Y+1522750D01*
X+5300140Y+1506875D01*
X+5300140Y+1427500D01*
X+5300140Y+1506875D02*
X+5315380Y+1522750D01*
X+5345860Y+1522750D01*
X+5284900Y+1586250D02*
X+5254420Y+1618000D01*
X+5345860Y+1618000D01*
X+5315380Y+1776750D02*
X+5315380Y+1681500D01*
X+5254420Y+1745000D01*
X+5345860Y+1745000D01*
X+6200000Y+1237000D02*
X+6200000Y+1364000D01*
X+6136500Y+1364000D02*
X+6263500Y+1364000D01*
X+6263500Y+1872000D01*
X+6136500Y+1872000D01*
X+6136500Y+1364000D01*
X+6200000Y+1872000D02*
X+6200000Y+1999000D01*
X+6095860Y+1427500D02*
X+6004420Y+1427500D01*
X+6004420Y+1506875D01*
X+6019660Y+1522750D01*
X+6034900Y+1522750D01*
X+6050140Y+1506875D01*
X+6050140Y+1427500D01*
X+6050140Y+1506875D02*
X+6065380Y+1522750D01*
X+6095860Y+1522750D01*
X+6034900Y+1586250D02*
X+6004420Y+1618000D01*
X+6095860Y+1618000D01*
X+6004420Y+1776750D02*
X+6004420Y+1697375D01*
X+6034900Y+1697375D01*
X+6034900Y+1760875D01*
X+6050140Y+1776750D01*
X+6080620Y+1776750D01*
X+6095860Y+1760875D01*
X+6095860Y+1713250D01*
X+6080620Y+1697375D01*
X+6950000Y+1237000D02*
X+6950000Y+1364000D01*
X+6886500Y+1364000D02*
X+7013500Y+1364000D01*
X+7013500Y+1872000D01*
X+6886500Y+1872000D01*
X+6886500Y+1364000D01*
X+6950000Y+1872000D02*
X+6950000Y+1999000D01*
X+6845860Y+1427500D02*
X+6754420Y+1427500D01*
X+6754420Y+1506875D01*
X+6769660Y+1522750D01*
X+6784900Y+1522750D01*
X+6800140Y+1506875D01*
X+6800140Y+1427500D01*
X+6800140Y+1506875D02*
X+6815380Y+1522750D01*
X+6845860Y+1522750D01*
X+6784900Y+1586250D02*
X+6754420Y+1618000D01*
X+6845860Y+1618000D01*
X+6769660Y+1776750D02*
X+6754420Y+1760875D01*
X+6754420Y+1713250D01*
X+6769660Y+1697375D01*
X+6830620Y+1697375D01*
X+6845860Y+1713250D01*
X+6845860Y+1760875D01*
X+6830620Y+1776750D01*
X+6815380Y+1776750D01*
X+6800140Y+1760875D01*
X+6800140Y+1697375D01*
X+681000Y+4250000D02*
X+680173Y+4270483D01*
X+673455Y+4311450D01*
X+659437Y+4352417D01*
X+636659Y+4393384D01*
X+601859Y+4434229D01*
X+560892Y+4465845D01*
X+519925Y+4486392D01*
X+478958Y+4498629D01*
X+437991Y+4503762D01*
X+427000Y+4504000D01*
X+173000Y+4250000D02*
X+173827Y+4270483D01*
X+180545Y+4311450D01*
X+194563Y+4352417D01*
X+217341Y+4393384D01*
X+252141Y+4434229D01*
X+293108Y+4465845D01*
X+334075Y+4486392D01*
X+375042Y+4498629D01*
X+416009Y+4503762D01*
X+427000Y+4504000D01*
X+173000Y+4250000D02*
X+173827Y+4229517D01*
X+180545Y+4188550D01*
X+194563Y+4147583D01*
X+217341Y+4106616D01*
X+252141Y+4065771D01*
X+293108Y+4034155D01*
X+334075Y+4013608D01*
X+375042Y+4001371D01*
X+416009Y+3996238D01*
X+427000Y+3996000D01*
X+681000Y+4250000D02*
X+680173Y+4229517D01*
X+673455Y+4188550D01*
X+659437Y+4147583D01*
X+636659Y+4106616D01*
X+601859Y+4065771D01*
X+560892Y+4034155D01*
X+519925Y+4013608D01*
X+478958Y+4001371D01*
X+437991Y+3996238D01*
X+427000Y+3996000D01*
X+744500Y+3996000D02*
X+617500Y+3996000D01*
X+681000Y+3932500D02*
X+681000Y+4059500D01*
X+331750Y+3800420D02*
X+331750Y+3891860D01*
X+395250Y+3891860D01*
X+427000Y+3861380D01*
X+427000Y+3830900D01*
X+395250Y+3800420D01*
X+331750Y+3800420D01*
X+490500Y+3861380D02*
X+522250Y+3891860D01*
X+522250Y+3800420D01*
X+681000Y+5000000D02*
X+680173Y+5020483D01*
X+673455Y+5061450D01*
X+659437Y+5102417D01*
X+636659Y+5143384D01*
X+601859Y+5184229D01*
X+560892Y+5215845D01*
X+519925Y+5236392D01*
X+478958Y+5248629D01*
X+437991Y+5253762D01*
X+427000Y+5254000D01*
X+173000Y+5000000D02*
X+173827Y+5020483D01*
X+180545Y+5061450D01*
X+194563Y+5102417D01*
X+217341Y+5143384D01*
X+252141Y+5184229D01*
X+293108Y+5215845D01*
X+334075Y+5236392D01*
X+375042Y+5248629D01*
X+416009Y+5253762D01*
X+427000Y+5254000D01*
X+173000Y+5000000D02*
X+173827Y+4979517D01*
X+180545Y+4938550D01*
X+194563Y+4897583D01*
X+217341Y+4856616D01*
X+252141Y+4815771D01*
X+293108Y+4784155D01*
X+334075Y+4763608D01*
X+375042Y+4751371D01*
X+416009Y+4746238D01*
X+427000Y+4746000D01*
X+681000Y+5000000D02*
X+680173Y+4979517D01*
X+673455Y+4938550D01*
X+659437Y+4897583D01*
X+636659Y+4856616D01*
X+601859Y+4815771D01*
X+560892Y+4784155D01*
X+519925Y+4763608D01*
X+478958Y+4751371D01*
X+437991Y+4746238D01*
X+427000Y+4746000D01*
X+744500Y+4746000D02*
X+617500Y+4746000D01*
X+681000Y+4682500D02*
X+681000Y+4809500D01*
X+331750Y+4550420D02*
X+331750Y+4641860D01*
X+395250Y+4641860D01*
X+427000Y+4611380D01*
X+427000Y+4580900D01*
X+395250Y+4550420D01*
X+331750Y+4550420D01*
X+474625Y+4626620D02*
X+490500Y+4641860D01*
X+538125Y+4641860D01*
X+554000Y+4626620D01*
X+554000Y+4611380D01*
X+538125Y+4596140D01*
X+490500Y+4596140D01*
X+474625Y+4580900D01*
X+474625Y+4550420D01*
X+554000Y+4550420D01*
X+681000Y+5750000D02*
X+680173Y+5770483D01*
X+673455Y+5811450D01*
X+659437Y+5852417D01*
X+636659Y+5893384D01*
X+601859Y+5934229D01*
X+560892Y+5965845D01*
X+519925Y+5986392D01*
X+478958Y+5998629D01*
X+437991Y+6003762D01*
X+427000Y+6004000D01*
X+173000Y+5750000D02*
X+173827Y+5770483D01*
X+180545Y+5811450D01*
X+194563Y+5852417D01*
X+217341Y+5893384D01*
X+252141Y+5934229D01*
X+293108Y+5965845D01*
X+334075Y+5986392D01*
X+375042Y+5998629D01*
X+416009Y+6003762D01*
X+427000Y+6004000D01*
X+173000Y+5750000D02*
X+173827Y+5729517D01*
X+180545Y+5688550D01*
X+194563Y+5647583D01*
X+217341Y+5606616D01*
X+252141Y+5565771D01*
X+293108Y+5534155D01*
X+334075Y+5513608D01*
X+375042Y+5501371D01*
X+416009Y+5496238D01*
X+427000Y+5496000D01*
X+681000Y+5750000D02*
X+680173Y+5729517D01*
X+673455Y+5688550D01*
X+659437Y+5647583D01*
X+636659Y+5606616D01*
X+601859Y+5565771D01*
X+560892Y+5534155D01*
X+519925Y+5513608D01*
X+478958Y+5501371D01*
X+437991Y+5496238D01*
X+427000Y+5496000D01*
X+744500Y+5496000D02*
X+617500Y+5496000D01*
X+681000Y+5432500D02*
X+681000Y+5559500D01*
X+331750Y+5300420D02*
X+331750Y+5391860D01*
X+395250Y+5391860D01*
X+427000Y+5361380D01*
X+427000Y+5330900D01*
X+395250Y+5300420D01*
X+331750Y+5300420D01*
X+474625Y+5376620D02*
X+490500Y+5391860D01*
X+538125Y+5391860D01*
X+554000Y+5376620D01*
X+554000Y+5361380D01*
X+538125Y+5346140D01*
X+554000Y+5330900D01*
X+554000Y+5315660D01*
X+538125Y+5300420D01*
X+490500Y+5300420D01*
X+474625Y+5315660D01*
X+506375Y+5346140D02*
X+538125Y+5346140D01*
X+681000Y+6500000D02*
X+680173Y+6520483D01*
X+673455Y+6561450D01*
X+659437Y+6602417D01*
X+636659Y+6643384D01*
X+601859Y+6684229D01*
X+560892Y+6715845D01*
X+519925Y+6736392D01*
X+478958Y+6748629D01*
X+437991Y+6753762D01*
X+427000Y+6754000D01*
X+173000Y+6500000D02*
X+173827Y+6520483D01*
X+180545Y+6561450D01*
X+194563Y+6602417D01*
X+217341Y+6643384D01*
X+252141Y+6684229D01*
X+293108Y+6715845D01*
X+334075Y+6736392D01*
X+375042Y+6748629D01*
X+416009Y+6753762D01*
X+427000Y+6754000D01*
X+173000Y+6500000D02*
X+173827Y+6479517D01*
X+180545Y+6438550D01*
X+194563Y+6397583D01*
X+217341Y+6356616D01*
X+252141Y+6315771D01*
X+293108Y+6284155D01*
X+334075Y+6263608D01*
X+375042Y+6251371D01*
X+416009Y+6246238D01*
X+427000Y+6246000D01*
X+681000Y+6500000D02*
X+680173Y+6479517D01*
X+673455Y+6438550D01*
X+659437Y+6397583D01*
X+636659Y+6356616D01*
X+601859Y+6315771D01*
X+560892Y+6284155D01*
X+519925Y+6263608D01*
X+478958Y+6251371D01*
X+437991Y+6246238D01*
X+427000Y+6246000D01*
X+744500Y+6246000D02*
X+617500Y+6246000D01*
X+681000Y+6182500D02*
X+681000Y+6309500D01*
X+331750Y+6050420D02*
X+331750Y+6141860D01*
X+395250Y+6141860D01*
X+427000Y+6111380D01*
X+427000Y+6080900D01*
X+395250Y+6050420D01*
X+331750Y+6050420D01*
X+554000Y+6080900D02*
X+458750Y+6080900D01*
X+522250Y+6141860D01*
X+522250Y+6050420D01*
X+681000Y+7250000D02*
X+680173Y+7270483D01*
X+673455Y+7311450D01*
X+659437Y+7352417D01*
X+636659Y+7393384D01*
X+601859Y+7434229D01*
X+560892Y+7465845D01*
X+519925Y+7486392D01*
X+478958Y+7498629D01*
X+437991Y+7503762D01*
X+427000Y+7504000D01*
X+173000Y+7250000D02*
X+173827Y+7270483D01*
X+180545Y+7311450D01*
X+194563Y+7352417D01*
X+217341Y+7393384D01*
X+252141Y+7434229D01*
X+293108Y+7465845D01*
X+334075Y+7486392D01*
X+375042Y+7498629D01*
X+416009Y+7503762D01*
X+427000Y+7504000D01*
X+173000Y+7250000D02*
X+173827Y+7229517D01*
X+180545Y+7188550D01*
X+194563Y+7147583D01*
X+217341Y+7106616D01*
X+252141Y+7065771D01*
X+293108Y+7034155D01*
X+334075Y+7013608D01*
X+375042Y+7001371D01*
X+416009Y+6996238D01*
X+427000Y+6996000D01*
X+681000Y+7250000D02*
X+680173Y+7229517D01*
X+673455Y+7188550D01*
X+659437Y+7147583D01*
X+636659Y+7106616D01*
X+601859Y+7065771D01*
X+560892Y+7034155D01*
X+519925Y+7013608D01*
X+478958Y+7001371D01*
X+437991Y+6996238D01*
X+427000Y+6996000D01*
X+744500Y+6996000D02*
X+617500Y+6996000D01*
X+681000Y+6932500D02*
X+681000Y+7059500D01*
X+331750Y+6800420D02*
X+331750Y+6891860D01*
X+395250Y+6891860D01*
X+427000Y+6861380D01*
X+427000Y+6830900D01*
X+395250Y+6800420D01*
X+331750Y+6800420D01*
X+554000Y+6891860D02*
X+474625Y+6891860D01*
X+474625Y+6861380D01*
X+538125Y+6861380D01*
X+554000Y+6846140D01*
X+554000Y+6815660D01*
X+538125Y+6800420D01*
X+490500Y+6800420D01*
X+474625Y+6815660D01*
X+677000Y+8000000D02*
X+676173Y+8020483D01*
X+669455Y+8061450D01*
X+655437Y+8102417D01*
X+632659Y+8143384D01*
X+597859Y+8184229D01*
X+556892Y+8215845D01*
X+515925Y+8236392D01*
X+474958Y+8248629D01*
X+433991Y+8253762D01*
X+423000Y+8254000D01*
X+169000Y+8000000D02*
X+169827Y+8020483D01*
X+176545Y+8061450D01*
X+190563Y+8102417D01*
X+213341Y+8143384D01*
X+248141Y+8184229D01*
X+289108Y+8215845D01*
X+330075Y+8236392D01*
X+371042Y+8248629D01*
X+412009Y+8253762D01*
X+423000Y+8254000D01*
X+169000Y+8000000D02*
X+169827Y+7979517D01*
X+176545Y+7938550D01*
X+190563Y+7897583D01*
X+213341Y+7856616D01*
X+248141Y+7815771D01*
X+289108Y+7784155D01*
X+330075Y+7763608D01*
X+371042Y+7751371D01*
X+412009Y+7746238D01*
X+423000Y+7746000D01*
X+677000Y+8000000D02*
X+676173Y+7979517D01*
X+669455Y+7938550D01*
X+655437Y+7897583D01*
X+632659Y+7856616D01*
X+597859Y+7815771D01*
X+556892Y+7784155D01*
X+515925Y+7763608D01*
X+474958Y+7751371D01*
X+433991Y+7746238D01*
X+423000Y+7746000D01*
X+740500Y+7746000D02*
X+613500Y+7746000D01*
X+677000Y+7682500D02*
X+677000Y+7809500D01*
X+327750Y+7550420D02*
X+327750Y+7641860D01*
X+391250Y+7641860D01*
X+423000Y+7611380D01*
X+423000Y+7580900D01*
X+391250Y+7550420D01*
X+327750Y+7550420D01*
X+550000Y+7626620D02*
X+534125Y+7641860D01*
X+486500Y+7641860D01*
X+470625Y+7626620D01*
X+470625Y+7565660D01*
X+486500Y+7550420D01*
X+534125Y+7550420D01*
X+550000Y+7565660D01*
X+550000Y+7580900D01*
X+534125Y+7596140D01*
X+470625Y+7596140D01*
X+681000Y+8750000D02*
X+680173Y+8770483D01*
X+673455Y+8811450D01*
X+659437Y+8852417D01*
X+636659Y+8893384D01*
X+601859Y+8934229D01*
X+560892Y+8965845D01*
X+519925Y+8986392D01*
X+478958Y+8998629D01*
X+437991Y+9003762D01*
X+427000Y+9004000D01*
X+173000Y+8750000D02*
X+173827Y+8770483D01*
X+180545Y+8811450D01*
X+194563Y+8852417D01*
X+217341Y+8893384D01*
X+252141Y+8934229D01*
X+293108Y+8965845D01*
X+334075Y+8986392D01*
X+375042Y+8998629D01*
X+416009Y+9003762D01*
X+427000Y+9004000D01*
X+173000Y+8750000D02*
X+173827Y+8729517D01*
X+180545Y+8688550D01*
X+194563Y+8647583D01*
X+217341Y+8606616D01*
X+252141Y+8565771D01*
X+293108Y+8534155D01*
X+334075Y+8513608D01*
X+375042Y+8501371D01*
X+416009Y+8496238D01*
X+427000Y+8496000D01*
X+681000Y+8750000D02*
X+680173Y+8729517D01*
X+673455Y+8688550D01*
X+659437Y+8647583D01*
X+636659Y+8606616D01*
X+601859Y+8565771D01*
X+560892Y+8534155D01*
X+519925Y+8513608D01*
X+478958Y+8501371D01*
X+437991Y+8496238D01*
X+427000Y+8496000D01*
X+744500Y+8496000D02*
X+617500Y+8496000D01*
X+681000Y+8432500D02*
X+681000Y+8559500D01*
X+331750Y+8300420D02*
X+331750Y+8391860D01*
X+395250Y+8391860D01*
X+427000Y+8361380D01*
X+427000Y+8330900D01*
X+395250Y+8300420D01*
X+331750Y+8300420D01*
X+474625Y+8391860D02*
X+554000Y+8391860D01*
X+554000Y+8376620D01*
X+474625Y+8300420D01*
X+681000Y+9500000D02*
X+680173Y+9520483D01*
X+673455Y+9561450D01*
X+659437Y+9602417D01*
X+636659Y+9643384D01*
X+601859Y+9684229D01*
X+560892Y+9715845D01*
X+519925Y+9736392D01*
X+478958Y+9748629D01*
X+437991Y+9753762D01*
X+427000Y+9754000D01*
X+173000Y+9500000D02*
X+173827Y+9520483D01*
X+180545Y+9561450D01*
X+194563Y+9602417D01*
X+217341Y+9643384D01*
X+252141Y+9684229D01*
X+293108Y+9715845D01*
X+334075Y+9736392D01*
X+375042Y+9748629D01*
X+416009Y+9753762D01*
X+427000Y+9754000D01*
X+173000Y+9500000D02*
X+173827Y+9479517D01*
X+180545Y+9438550D01*
X+194563Y+9397583D01*
X+217341Y+9356616D01*
X+252141Y+9315771D01*
X+293108Y+9284155D01*
X+334075Y+9263608D01*
X+375042Y+9251371D01*
X+416009Y+9246238D01*
X+427000Y+9246000D01*
X+681000Y+9500000D02*
X+680173Y+9479517D01*
X+673455Y+9438550D01*
X+659437Y+9397583D01*
X+636659Y+9356616D01*
X+601859Y+9315771D01*
X+560892Y+9284155D01*
X+519925Y+9263608D01*
X+478958Y+9251371D01*
X+437991Y+9246238D01*
X+427000Y+9246000D01*
X+744500Y+9246000D02*
X+617500Y+9246000D01*
X+681000Y+9182500D02*
X+681000Y+9309500D01*
X+331750Y+9050420D02*
X+331750Y+9141860D01*
X+395250Y+9141860D01*
X+427000Y+9111380D01*
X+427000Y+9080900D01*
X+395250Y+9050420D01*
X+331750Y+9050420D01*
X+490500Y+9096140D02*
X+474625Y+9111380D01*
X+474625Y+9126620D01*
X+490500Y+9141860D01*
X+538125Y+9141860D01*
X+554000Y+9126620D01*
X+554000Y+9111380D01*
X+538125Y+9096140D01*
X+490500Y+9096140D01*
X+474625Y+9080900D01*
X+474625Y+9065660D01*
X+490500Y+9050420D01*
X+538125Y+9050420D01*
X+554000Y+9065660D01*
X+554000Y+9080900D01*
X+538125Y+9096140D01*
X+1418000Y+69000D02*
X+3704000Y+69000D01*
X+3704000Y+704000D01*
X+1418000Y+704000D01*
X+1418000Y+69000D01*
X+3704000Y+196000D02*
X+1418000Y+196000D01*
X+2434000Y-32600D02*
X+2434000Y-47840D01*
X+2449875Y-63080D01*
X+2513375Y-63080D01*
X+2529250Y-47840D01*
X+2529250Y+28360D01*
X+2592750Y-2120D02*
X+2624500Y+28360D01*
X+2624500Y-63080D01*
X+3761500Y+8876500D02*
X+6047500Y+8876500D01*
X+6047500Y+9511500D01*
X+3761500Y+9511500D01*
X+3761500Y+8876500D01*
X+6047500Y+9003500D02*
X+3761500Y+9003500D01*
X+4777500Y+8774900D02*
X+4777500Y+8759660D01*
X+4793375Y+8744420D01*
X+4856875Y+8744420D01*
X+4872750Y+8759660D01*
X+4872750Y+8835860D01*
X+4920375Y+8820620D02*
X+4936250Y+8835860D01*
X+4983875Y+8835860D01*
X+4999750Y+8820620D01*
X+4999750Y+8805380D01*
X+4983875Y+8790140D01*
X+4936250Y+8790140D01*
X+4920375Y+8774900D01*
X+4920375Y+8744420D01*
X+4999750Y+8744420D01*
X+3761500Y+7926500D02*
X+6047500Y+7926500D01*
X+6047500Y+8561500D01*
X+3761500Y+8561500D01*
X+3761500Y+7926500D01*
X+6047500Y+8053500D02*
X+3761500Y+8053500D01*
X+4777500Y+7824900D02*
X+4777500Y+7809660D01*
X+4793375Y+7794420D01*
X+4856875Y+7794420D01*
X+4872750Y+7809660D01*
X+4872750Y+7885860D01*
X+4920375Y+7870620D02*
X+4936250Y+7885860D01*
X+4983875Y+7885860D01*
X+4999750Y+7870620D01*
X+4999750Y+7855380D01*
X+4983875Y+7840140D01*
X+4999750Y+7824900D01*
X+4999750Y+7809660D01*
X+4983875Y+7794420D01*
X+4936250Y+7794420D01*
X+4920375Y+7809660D01*
X+4952125Y+7840140D02*
X+4983875Y+7840140D01*
X+2419000Y+5996000D02*
X+3054000Y+5996000D01*
X+3054000Y+8282000D01*
X+2419000Y+8282000D01*
X+2419000Y+5996000D01*
X+2546000Y+5996000D02*
X+2546000Y+8282000D01*
X+2347880Y+7012000D02*
X+2363120Y+7012000D01*
X+2378360Y+7027875D01*
X+2378360Y+7091375D01*
X+2363120Y+7107250D01*
X+2286920Y+7107250D01*
X+2347880Y+7234250D02*
X+2347880Y+7139000D01*
X+2286920Y+7202500D01*
X+2378360Y+7202500D01*
X+5719000Y+3496000D02*
X+6354000Y+3496000D01*
X+6354000Y+4512000D01*
X+5719000Y+4512000D01*
X+5719000Y+3496000D01*
X+5846000Y+3496000D02*
X+5846000Y+4512000D01*
X+5647880Y+3877000D02*
X+5663120Y+3877000D01*
X+5678360Y+3892875D01*
X+5678360Y+3956375D01*
X+5663120Y+3972250D01*
X+5586920Y+3972250D01*
X+5586920Y+4099250D02*
X+5586920Y+4019875D01*
X+5617400Y+4019875D01*
X+5617400Y+4083375D01*
X+5632640Y+4099250D01*
X+5663120Y+4099250D01*
X+5678360Y+4083375D01*
X+5678360Y+4035750D01*
X+5663120Y+4019875D01*
D18*
X+10418100Y+3490500D02*
X+10417969Y+3493658D01*
X+10416903Y+3499976D01*
X+10414672Y+3506294D01*
X+10411027Y+3512612D01*
X+10405452Y+3518851D01*
X+10399134Y+3523447D01*
X+10392816Y+3526380D01*
X+10386498Y+3528042D01*
X+10380180Y+3528600D01*
X+10380000Y+3528600D01*
X+10341900Y+3490500D02*
X+10342031Y+3493658D01*
X+10343097Y+3499976D01*
X+10345328Y+3506294D01*
X+10348973Y+3512612D01*
X+10354548Y+3518851D01*
X+10360866Y+3523447D01*
X+10367184Y+3526380D01*
X+10373502Y+3528042D01*
X+10379820Y+3528600D01*
X+10380000Y+3528600D01*
X+10341900Y+3490500D02*
X+10342031Y+3487342D01*
X+10343097Y+3481024D01*
X+10345328Y+3474706D01*
X+10348973Y+3468388D01*
X+10354548Y+3462149D01*
X+10360866Y+3457553D01*
X+10367184Y+3454620D01*
X+10373502Y+3452958D01*
X+10379820Y+3452400D01*
X+10380000Y+3452400D01*
X+10418100Y+3490500D02*
X+10417969Y+3487342D01*
X+10416903Y+3481024D01*
X+10414672Y+3474706D01*
X+10411027Y+3468388D01*
X+10405452Y+3462149D01*
X+10399134Y+3457553D01*
X+10392816Y+3454620D01*
X+10386498Y+3452958D01*
X+10380180Y+3452400D01*
X+10380000Y+3452400D01*
D19*
X+10011700Y+3173000D02*
X+13034300Y+3173000D01*
X+13034300Y+3427000D01*
X+10011700Y+3427000D01*
X+10011700Y+3173000D01*
D17*
X+11396000Y+3614960D02*
X+11396000Y+3599720D01*
X+11411875Y+3584480D01*
X+11475375Y+3584480D01*
X+11491250Y+3599720D01*
X+11491250Y+3675920D01*
X+11618250Y+3660680D02*
X+11602375Y+3675920D01*
X+11554750Y+3675920D01*
X+11538875Y+3660680D01*
X+11538875Y+3599720D01*
X+11554750Y+3584480D01*
X+11602375Y+3584480D01*
X+11618250Y+3599720D01*
X+11618250Y+3614960D01*
X+11602375Y+3630200D01*
X+11538875Y+3630200D01*
D18*
X+9410100Y+2340500D02*
X+9409969Y+2343658D01*
X+9408903Y+2349976D01*
X+9406672Y+2356294D01*
X+9403027Y+2362612D01*
X+9397452Y+2368851D01*
X+9391134Y+2373447D01*
X+9384816Y+2376380D01*
X+9378498Y+2378042D01*
X+9372180Y+2378600D01*
X+9372000Y+2378600D01*
X+9333900Y+2340500D02*
X+9334031Y+2343658D01*
X+9335097Y+2349976D01*
X+9337328Y+2356294D01*
X+9340973Y+2362612D01*
X+9346548Y+2368851D01*
X+9352866Y+2373447D01*
X+9359184Y+2376380D01*
X+9365502Y+2378042D01*
X+9371820Y+2378600D01*
X+9372000Y+2378600D01*
X+9333900Y+2340500D02*
X+9334031Y+2337342D01*
X+9335097Y+2331024D01*
X+9337328Y+2324706D01*
X+9340973Y+2318388D01*
X+9346548Y+2312149D01*
X+9352866Y+2307553D01*
X+9359184Y+2304620D01*
X+9365502Y+2302958D01*
X+9371820Y+2302400D01*
X+9372000Y+2302400D01*
X+9410100Y+2340500D02*
X+9409969Y+2337342D01*
X+9408903Y+2331024D01*
X+9406672Y+2324706D01*
X+9403027Y+2318388D01*
X+9397452Y+2312149D01*
X+9391134Y+2307553D01*
X+9384816Y+2304620D01*
X+9378498Y+2302958D01*
X+9372180Y+2302400D01*
X+9372000Y+2302400D01*
D19*
X+9003700Y+2023000D02*
X+13550300Y+2023000D01*
X+13550300Y+2277000D01*
X+9003700Y+2277000D01*
X+9003700Y+2023000D01*
D17*
X+11150000Y+2464960D02*
X+11150000Y+2449720D01*
X+11165875Y+2434480D01*
X+11229375Y+2434480D01*
X+11245250Y+2449720D01*
X+11245250Y+2525920D01*
X+11292875Y+2525920D02*
X+11372250Y+2525920D01*
X+11372250Y+2510680D01*
X+11292875Y+2434480D01*
X+7145000Y+6471500D02*
X+7780000Y+6471500D01*
X+7780000Y+8757500D01*
X+7145000Y+8757500D01*
X+7145000Y+6471500D01*
X+7653000Y+8757500D02*
X+7653000Y+6471500D01*
X+7056100Y+6471500D02*
X+7071340Y+6471500D01*
X+7086580Y+6487375D01*
X+7086580Y+6550875D01*
X+7071340Y+6566750D01*
X+6995140Y+6566750D01*
X+7040860Y+6630250D02*
X+7025620Y+6614375D01*
X+7010380Y+6614375D01*
X+6995140Y+6630250D01*
X+6995140Y+6677875D01*
X+7010380Y+6693750D01*
X+7025620Y+6693750D01*
X+7040860Y+6677875D01*
X+7040860Y+6630250D01*
X+7056100Y+6614375D01*
X+7071340Y+6614375D01*
X+7086580Y+6630250D01*
X+7086580Y+6677875D01*
X+7071340Y+6693750D01*
X+7056100Y+6693750D01*
X+7040860Y+6677875D01*
X+10414000Y+8890000D02*
X+11684000Y+8890000D01*
X+11684000Y+9525000D01*
X+10414000Y+9525000D01*
X+10414000Y+8890000D01*
X+11684000Y+9017000D02*
X+10414000Y+9017000D01*
X+10922000Y+8788400D02*
X+10922000Y+8773160D01*
X+10937875Y+8757920D01*
X+11001375Y+8757920D01*
X+11017250Y+8773160D01*
X+11017250Y+8849360D01*
X+11144250Y+8818880D02*
X+11128375Y+8803640D01*
X+11080750Y+8803640D01*
X+11064875Y+8818880D01*
X+11064875Y+8834120D01*
X+11080750Y+8849360D01*
X+11128375Y+8849360D01*
X+11144250Y+8834120D01*
X+11144250Y+8773160D01*
X+11128375Y+8757920D01*
X+11080750Y+8757920D01*
X+14296000Y+6296000D02*
X+14931000Y+6296000D01*
X+14931000Y+7058000D01*
X+14296000Y+7058000D01*
X+14296000Y+6296000D01*
X+14804000Y+7058000D02*
X+14804000Y+6296000D01*
X+14232600Y+6486500D02*
X+14247840Y+6486500D01*
X+14263080Y+6502375D01*
X+14263080Y+6565875D01*
X+14247840Y+6581750D01*
X+14171640Y+6581750D01*
X+14202120Y+6645250D02*
X+14171640Y+6677000D01*
X+14263080Y+6677000D01*
X+14247840Y+6740500D02*
X+14186880Y+6740500D01*
X+14171640Y+6756375D01*
X+14171640Y+6819875D01*
X+14186880Y+6835750D01*
X+14247840Y+6835750D01*
X+14263080Y+6819875D01*
X+14263080Y+6756375D01*
X+14247840Y+6740500D01*
X+14263080Y+6740500D02*
X+14171640Y+6835750D01*
X+977000Y+4250000D02*
X+1104000Y+4250000D01*
X+1104000Y+4186500D02*
X+1612000Y+4186500D01*
X+1612000Y+4313500D01*
X+1104000Y+4313500D01*
X+1104000Y+4186500D01*
X+1612000Y+4250000D02*
X+1739000Y+4250000D01*
X+1167500Y+4354140D02*
X+1167500Y+4445580D01*
X+1246875Y+4445580D01*
X+1262750Y+4430340D01*
X+1262750Y+4415100D01*
X+1246875Y+4399860D01*
X+1167500Y+4399860D01*
X+1246875Y+4399860D02*
X+1262750Y+4384620D01*
X+1262750Y+4354140D01*
X+1326250Y+4415100D02*
X+1358000Y+4445580D01*
X+1358000Y+4354140D01*
X+1437375Y+4445580D02*
X+1516750Y+4445580D01*
X+1516750Y+4430340D01*
X+1437375Y+4354140D01*
X+977000Y+5000000D02*
X+1104000Y+5000000D01*
X+1104000Y+4936500D02*
X+1612000Y+4936500D01*
X+1612000Y+5063500D01*
X+1104000Y+5063500D01*
X+1104000Y+4936500D01*
X+1612000Y+5000000D02*
X+1739000Y+5000000D01*
X+1167500Y+5104140D02*
X+1167500Y+5195580D01*
X+1246875Y+5195580D01*
X+1262750Y+5180340D01*
X+1262750Y+5165100D01*
X+1246875Y+5149860D01*
X+1167500Y+5149860D01*
X+1246875Y+5149860D02*
X+1262750Y+5134620D01*
X+1262750Y+5104140D01*
X+1326250Y+5165100D02*
X+1358000Y+5195580D01*
X+1358000Y+5104140D01*
X+1453250Y+5149860D02*
X+1437375Y+5165100D01*
X+1437375Y+5180340D01*
X+1453250Y+5195580D01*
X+1500875Y+5195580D01*
X+1516750Y+5180340D01*
X+1516750Y+5165100D01*
X+1500875Y+5149860D01*
X+1453250Y+5149860D01*
X+1437375Y+5134620D01*
X+1437375Y+5119380D01*
X+1453250Y+5104140D01*
X+1500875Y+5104140D01*
X+1516750Y+5119380D01*
X+1516750Y+5134620D01*
X+1500875Y+5149860D01*
X+977000Y+5750000D02*
X+1104000Y+5750000D01*
X+1104000Y+5686500D02*
X+1612000Y+5686500D01*
X+1612000Y+5813500D01*
X+1104000Y+5813500D01*
X+1104000Y+5686500D01*
X+1612000Y+5750000D02*
X+1739000Y+5750000D01*
X+1167500Y+5854140D02*
X+1167500Y+5945580D01*
X+1246875Y+5945580D01*
X+1262750Y+5930340D01*
X+1262750Y+5915100D01*
X+1246875Y+5899860D01*
X+1167500Y+5899860D01*
X+1246875Y+5899860D02*
X+1262750Y+5884620D01*
X+1262750Y+5854140D01*
X+1326250Y+5915100D02*
X+1358000Y+5945580D01*
X+1358000Y+5854140D01*
X+1516750Y+5915100D02*
X+1500875Y+5899860D01*
X+1453250Y+5899860D01*
X+1437375Y+5915100D01*
X+1437375Y+5930340D01*
X+1453250Y+5945580D01*
X+1500875Y+5945580D01*
X+1516750Y+5930340D01*
X+1516750Y+5869380D01*
X+1500875Y+5854140D01*
X+1453250Y+5854140D01*
X+977000Y+6500000D02*
X+1104000Y+6500000D01*
X+1104000Y+6436500D02*
X+1612000Y+6436500D01*
X+1612000Y+6563500D01*
X+1104000Y+6563500D01*
X+1104000Y+6436500D01*
X+1612000Y+6500000D02*
X+1739000Y+6500000D01*
X+1167500Y+6604140D02*
X+1167500Y+6695580D01*
X+1246875Y+6695580D01*
X+1262750Y+6680340D01*
X+1262750Y+6665100D01*
X+1246875Y+6649860D01*
X+1167500Y+6649860D01*
X+1246875Y+6649860D02*
X+1262750Y+6634620D01*
X+1262750Y+6604140D01*
X+1310375Y+6680340D02*
X+1326250Y+6695580D01*
X+1373875Y+6695580D01*
X+1389750Y+6680340D01*
X+1389750Y+6665100D01*
X+1373875Y+6649860D01*
X+1326250Y+6649860D01*
X+1310375Y+6634620D01*
X+1310375Y+6604140D01*
X+1389750Y+6604140D01*
X+1421500Y+6619380D02*
X+1421500Y+6680340D01*
X+1437375Y+6695580D01*
X+1500875Y+6695580D01*
X+1516750Y+6680340D01*
X+1516750Y+6619380D01*
X+1500875Y+6604140D01*
X+1437375Y+6604140D01*
X+1421500Y+6619380D01*
X+1421500Y+6604140D02*
X+1516750Y+6695580D01*
X+977000Y+7250000D02*
X+1104000Y+7250000D01*
X+1104000Y+7186500D02*
X+1612000Y+7186500D01*
X+1612000Y+7313500D01*
X+1104000Y+7313500D01*
X+1104000Y+7186500D01*
X+1612000Y+7250000D02*
X+1739000Y+7250000D01*
X+1167500Y+7354140D02*
X+1167500Y+7445580D01*
X+1246875Y+7445580D01*
X+1262750Y+7430340D01*
X+1262750Y+7415100D01*
X+1246875Y+7399860D01*
X+1167500Y+7399860D01*
X+1246875Y+7399860D02*
X+1262750Y+7384620D01*
X+1262750Y+7354140D01*
X+1310375Y+7430340D02*
X+1326250Y+7445580D01*
X+1373875Y+7445580D01*
X+1389750Y+7430340D01*
X+1389750Y+7415100D01*
X+1373875Y+7399860D01*
X+1326250Y+7399860D01*
X+1310375Y+7384620D01*
X+1310375Y+7354140D01*
X+1389750Y+7354140D01*
X+1453250Y+7415100D02*
X+1485000Y+7445580D01*
X+1485000Y+7354140D01*
X+977000Y+8000000D02*
X+1104000Y+8000000D01*
X+1104000Y+7936500D02*
X+1612000Y+7936500D01*
X+1612000Y+8063500D01*
X+1104000Y+8063500D01*
X+1104000Y+7936500D01*
X+1612000Y+8000000D02*
X+1739000Y+8000000D01*
X+1167500Y+8104140D02*
X+1167500Y+8195580D01*
X+1246875Y+8195580D01*
X+1262750Y+8180340D01*
X+1262750Y+8165100D01*
X+1246875Y+8149860D01*
X+1167500Y+8149860D01*
X+1246875Y+8149860D02*
X+1262750Y+8134620D01*
X+1262750Y+8104140D01*
X+1310375Y+8180340D02*
X+1326250Y+8195580D01*
X+1373875Y+8195580D01*
X+1389750Y+8180340D01*
X+1389750Y+8165100D01*
X+1373875Y+8149860D01*
X+1326250Y+8149860D01*
X+1310375Y+8134620D01*
X+1310375Y+8104140D01*
X+1389750Y+8104140D01*
X+1437375Y+8180340D02*
X+1453250Y+8195580D01*
X+1500875Y+8195580D01*
X+1516750Y+8180340D01*
X+1516750Y+8165100D01*
X+1500875Y+8149860D01*
X+1453250Y+8149860D01*
X+1437375Y+8134620D01*
X+1437375Y+8104140D01*
X+1516750Y+8104140D01*
X+977000Y+8750000D02*
X+1104000Y+8750000D01*
X+1104000Y+8686500D02*
X+1612000Y+8686500D01*
X+1612000Y+8813500D01*
X+1104000Y+8813500D01*
X+1104000Y+8686500D01*
X+1612000Y+8750000D02*
X+1739000Y+8750000D01*
X+1167500Y+8854140D02*
X+1167500Y+8945580D01*
X+1246875Y+8945580D01*
X+1262750Y+8930340D01*
X+1262750Y+8915100D01*
X+1246875Y+8899860D01*
X+1167500Y+8899860D01*
X+1246875Y+8899860D02*
X+1262750Y+8884620D01*
X+1262750Y+8854140D01*
X+1310375Y+8930340D02*
X+1326250Y+8945580D01*
X+1373875Y+8945580D01*
X+1389750Y+8930340D01*
X+1389750Y+8915100D01*
X+1373875Y+8899860D01*
X+1326250Y+8899860D01*
X+1310375Y+8884620D01*
X+1310375Y+8854140D01*
X+1389750Y+8854140D01*
X+1437375Y+8930340D02*
X+1453250Y+8945580D01*
X+1500875Y+8945580D01*
X+1516750Y+8930340D01*
X+1516750Y+8915100D01*
X+1500875Y+8899860D01*
X+1516750Y+8884620D01*
X+1516750Y+8869380D01*
X+1500875Y+8854140D01*
X+1453250Y+8854140D01*
X+1437375Y+8869380D01*
X+1469125Y+8899860D02*
X+1500875Y+8899860D01*
X+977000Y+9500000D02*
X+1104000Y+9500000D01*
X+1104000Y+9436500D02*
X+1612000Y+9436500D01*
X+1612000Y+9563500D01*
X+1104000Y+9563500D01*
X+1104000Y+9436500D01*
X+1612000Y+9500000D02*
X+1739000Y+9500000D01*
X+1167500Y+9604140D02*
X+1167500Y+9695580D01*
X+1246875Y+9695580D01*
X+1262750Y+9680340D01*
X+1262750Y+9665100D01*
X+1246875Y+9649860D01*
X+1167500Y+9649860D01*
X+1246875Y+9649860D02*
X+1262750Y+9634620D01*
X+1262750Y+9604140D01*
X+1310375Y+9680340D02*
X+1326250Y+9695580D01*
X+1373875Y+9695580D01*
X+1389750Y+9680340D01*
X+1389750Y+9665100D01*
X+1373875Y+9649860D01*
X+1326250Y+9649860D01*
X+1310375Y+9634620D01*
X+1310375Y+9604140D01*
X+1389750Y+9604140D01*
X+1516750Y+9634620D02*
X+1421500Y+9634620D01*
X+1485000Y+9695580D01*
X+1485000Y+9604140D01*
X+8295200Y+2692000D02*
X+9920800Y+2692000D01*
X+9920800Y+3454000D01*
X+8295200Y+3454000D01*
X+8295200Y+2692000D01*
X+8777800Y+3454000D02*
X+9438200Y+3454000D01*
X+9438200Y+5105000D01*
X+8777800Y+5105000D01*
X+8777800Y+3454000D01*
X+8917500Y+5145640D02*
X+8917500Y+5237080D01*
X+8996875Y+5237080D01*
X+9012750Y+5221840D01*
X+9012750Y+5206600D01*
X+8996875Y+5191360D01*
X+8917500Y+5191360D01*
X+8996875Y+5191360D02*
X+9012750Y+5176120D01*
X+9012750Y+5145640D01*
X+9044500Y+5237080D02*
X+9044500Y+5191360D01*
X+9092125Y+5145640D01*
X+9139750Y+5191360D01*
X+9139750Y+5237080D01*
X+9203250Y+5206600D02*
X+9235000Y+5237080D01*
X+9235000Y+5145640D01*
X+13145200Y+2692000D02*
X+14770800Y+2692000D01*
X+14770800Y+3454000D01*
X+13145200Y+3454000D01*
X+13145200Y+2692000D01*
X+13627800Y+3454000D02*
X+14288200Y+3454000D01*
X+14288200Y+5105000D01*
X+13627800Y+5105000D01*
X+13627800Y+3454000D01*
X+13767500Y+5145640D02*
X+13767500Y+5237080D01*
X+13846875Y+5237080D01*
X+13862750Y+5221840D01*
X+13862750Y+5206600D01*
X+13846875Y+5191360D01*
X+13767500Y+5191360D01*
X+13846875Y+5191360D02*
X+13862750Y+5176120D01*
X+13862750Y+5145640D01*
X+13894500Y+5237080D02*
X+13894500Y+5191360D01*
X+13942125Y+5145640D01*
X+13989750Y+5191360D01*
X+13989750Y+5237080D01*
X+14037375Y+5221840D02*
X+14053250Y+5237080D01*
X+14100875Y+5237080D01*
X+14116750Y+5221840D01*
X+14116750Y+5206600D01*
X+14100875Y+5191360D01*
X+14053250Y+5191360D01*
X+14037375Y+5176120D01*
X+14037375Y+5145640D01*
X+14116750Y+5145640D01*
X+7350000Y+4406400D02*
X+7392236Y+4404347D01*
X+7433096Y+4398314D01*
X+7472393Y+4388485D01*
X+7509941Y+4375047D01*
X+7545554Y+4358186D01*
X+7579047Y+4338088D01*
X+7638925Y+4288925D01*
X+7688088Y+4229046D01*
X+7708186Y+4195554D01*
X+7725047Y+4159941D01*
X+7738485Y+4122393D01*
X+7748314Y+4083096D01*
X+7754347Y+4042236D01*
X+7756400Y+4000000D01*
X+7350000Y+3593600D02*
X+7392236Y+3595653D01*
X+7433096Y+3601686D01*
X+7472393Y+3611515D01*
X+7509941Y+3624953D01*
X+7545554Y+3641814D01*
X+7579047Y+3661912D01*
X+7638925Y+3711075D01*
X+7688088Y+3770954D01*
X+7708186Y+3804446D01*
X+7725047Y+3840059D01*
X+7738485Y+3877607D01*
X+7748314Y+3916904D01*
X+7754347Y+3957764D01*
X+7756400Y+4000000D01*
X+7350000Y+4406400D02*
X+7276340Y+4399415D01*
X+7210300Y+4381000D01*
X+7350000Y+3593600D02*
X+7276340Y+3600585D01*
X+7210300Y+3619000D01*
X+7210300Y+4381000D02*
X+7210300Y+3619000D01*
X+7797040Y+3873000D02*
X+7873240Y+3873000D01*
X+7888480Y+3888875D01*
X+7888480Y+3952375D01*
X+7873240Y+3968250D01*
X+7797040Y+3968250D01*
X+7827520Y+4031750D02*
X+7797040Y+4063500D01*
X+7888480Y+4063500D01*
X+8445500Y+6540500D02*
X+13525500Y+6540500D01*
X+13525500Y+8445500D01*
X+8445500Y+8445500D01*
X+8445500Y+6540500D01*
X+10747375Y+8577580D02*
X+10826750Y+8577580D01*
X+10826750Y+8562340D01*
X+10747375Y+8486140D01*
X+10858500Y+8501380D02*
X+10874375Y+8486140D01*
X+10937875Y+8486140D01*
X+10953750Y+8501380D01*
X+10953750Y+8516620D01*
X+10937875Y+8531860D01*
X+10874375Y+8531860D01*
X+10858500Y+8547100D01*
X+10858500Y+8562340D01*
X+10874375Y+8577580D01*
X+10937875Y+8577580D01*
X+10953750Y+8562340D01*
X+11080750Y+8486140D02*
X+10985500Y+8486140D01*
X+10985500Y+8577580D01*
X+11080750Y+8577580D01*
X+10985500Y+8531860D02*
X+11049000Y+8531860D01*
X+11176000Y+8516620D02*
X+11207750Y+8516620D01*
X+11207750Y+8486140D01*
X+11144250Y+8486140D01*
X+11112500Y+8516620D01*
X+11112500Y+8547100D01*
X+11144250Y+8577580D01*
X+11191875Y+8577580D01*
X+11207750Y+8562340D01*
M02*
