G04 PROTEUS RS274X GERBER FILE*
%FSLAX45Y45*%
%MOMM*%
G01*
%ADD10C,0.254000*%
%ADD11C,0.762000*%
%ADD12C,1.778000*%
%ADD13R,2.032000X2.032000*%
%ADD14C,2.032000*%
%ADD15C,1.524000*%
%ADD16C,0.000000*%
G36*
X+14939040Y+60960D02*
X+60960Y+60960D01*
X+60960Y+9939040D01*
X+14939040Y+9939040D01*
X+14939040Y+60960D01*
G37*
%LPC*%
G36*
X+1315001Y+3079395D02*
X+1315001Y+3184605D01*
X+1389395Y+3258999D01*
X+1494605Y+3258999D01*
X+1568999Y+3184605D01*
X+1568999Y+3079395D01*
X+1494605Y+3005001D01*
X+1389395Y+3005001D01*
X+1315001Y+3079395D01*
G37*
G36*
X+2318999Y+3184605D02*
X+2318999Y+3079395D01*
X+2244605Y+3005001D01*
X+2139395Y+3005001D01*
X+2071000Y+3073396D01*
X+2002605Y+3005001D01*
X+1897395Y+3005001D01*
X+1823001Y+3079395D01*
X+1823001Y+3184605D01*
X+1897395Y+3258999D01*
X+2002605Y+3258999D01*
X+2071000Y+3190604D01*
X+2139395Y+3258999D01*
X+2244605Y+3258999D01*
X+2318999Y+3184605D01*
G37*
G36*
X+1315001Y+2317395D02*
X+1315001Y+2422605D01*
X+1389395Y+2496999D01*
X+1494605Y+2496999D01*
X+1568999Y+2422605D01*
X+1568999Y+2317395D01*
X+1494605Y+2243001D01*
X+1389395Y+2243001D01*
X+1315001Y+2317395D01*
G37*
G36*
X+2318999Y+2422605D02*
X+2318999Y+2317395D01*
X+2244605Y+2243001D01*
X+2139395Y+2243001D01*
X+2071000Y+2311396D01*
X+2004604Y+2245000D01*
X+2076999Y+2172605D01*
X+2076999Y+2067395D01*
X+2002605Y+1993001D01*
X+1897395Y+1993001D01*
X+1825000Y+2065396D01*
X+1752605Y+1993001D01*
X+1647395Y+1993001D01*
X+1573001Y+2067395D01*
X+1573001Y+2172605D01*
X+1647395Y+2246999D01*
X+1752605Y+2246999D01*
X+1825000Y+2174604D01*
X+1895396Y+2245000D01*
X+1823001Y+2317395D01*
X+1823001Y+2422605D01*
X+1897395Y+2496999D01*
X+2002605Y+2496999D01*
X+2071000Y+2428604D01*
X+2139395Y+2496999D01*
X+2244605Y+2496999D01*
X+2318999Y+2422605D01*
G37*
G36*
X+3068999Y+3184605D02*
X+3068999Y+3079395D01*
X+2994605Y+3005001D01*
X+2889395Y+3005001D01*
X+2821000Y+3073396D01*
X+2752605Y+3005001D01*
X+2647395Y+3005001D01*
X+2573001Y+3079395D01*
X+2573001Y+3184605D01*
X+2647395Y+3258999D01*
X+2752605Y+3258999D01*
X+2821000Y+3190604D01*
X+2889395Y+3258999D01*
X+2994605Y+3258999D01*
X+3068999Y+3184605D01*
G37*
G36*
X+3068999Y+2422605D02*
X+3068999Y+2317395D01*
X+2994605Y+2243001D01*
X+2889395Y+2243001D01*
X+2821000Y+2311396D01*
X+2754604Y+2245000D01*
X+2826999Y+2172605D01*
X+2826999Y+2067395D01*
X+2752605Y+1993001D01*
X+2647395Y+1993001D01*
X+2576999Y+2063397D01*
X+2576999Y+2063395D01*
X+2502605Y+1989001D01*
X+2397395Y+1989001D01*
X+2323001Y+2063395D01*
X+2323001Y+2168605D01*
X+2397395Y+2242999D01*
X+2502605Y+2242999D01*
X+2573001Y+2172603D01*
X+2573001Y+2172605D01*
X+2645396Y+2245000D01*
X+2573001Y+2317395D01*
X+2573001Y+2422605D01*
X+2647395Y+2496999D01*
X+2752605Y+2496999D01*
X+2821000Y+2428604D01*
X+2889395Y+2496999D01*
X+2994605Y+2496999D01*
X+3068999Y+2422605D01*
G37*
G36*
X+3818999Y+3184605D02*
X+3818999Y+3079395D01*
X+3744605Y+3005001D01*
X+3639395Y+3005001D01*
X+3571000Y+3073396D01*
X+3502605Y+3005001D01*
X+3397395Y+3005001D01*
X+3323001Y+3079395D01*
X+3323001Y+3184605D01*
X+3397395Y+3258999D01*
X+3502605Y+3258999D01*
X+3571000Y+3190604D01*
X+3639395Y+3258999D01*
X+3744605Y+3258999D01*
X+3818999Y+3184605D01*
G37*
G36*
X+3818999Y+2422605D02*
X+3818999Y+2317395D01*
X+3744605Y+2243001D01*
X+3639395Y+2243001D01*
X+3571000Y+2311396D01*
X+3504604Y+2245000D01*
X+3576999Y+2172605D01*
X+3576999Y+2067395D01*
X+3502605Y+1993001D01*
X+3397395Y+1993001D01*
X+3326999Y+2063397D01*
X+3326999Y+2063395D01*
X+3252605Y+1989001D01*
X+3147395Y+1989001D01*
X+3073001Y+2063395D01*
X+3073001Y+2168605D01*
X+3147395Y+2242999D01*
X+3252605Y+2242999D01*
X+3323001Y+2172603D01*
X+3323001Y+2172605D01*
X+3395396Y+2245000D01*
X+3323001Y+2317395D01*
X+3323001Y+2422605D01*
X+3397395Y+2496999D01*
X+3502605Y+2496999D01*
X+3571000Y+2428604D01*
X+3639395Y+2496999D01*
X+3744605Y+2496999D01*
X+3818999Y+2422605D01*
G37*
G36*
X+4568999Y+3184605D02*
X+4568999Y+3079395D01*
X+4494605Y+3005001D01*
X+4389395Y+3005001D01*
X+4321000Y+3073396D01*
X+4252605Y+3005001D01*
X+4147395Y+3005001D01*
X+4073001Y+3079395D01*
X+4073001Y+3184605D01*
X+4147395Y+3258999D01*
X+4252605Y+3258999D01*
X+4321000Y+3190604D01*
X+4389395Y+3258999D01*
X+4494605Y+3258999D01*
X+4568999Y+3184605D01*
G37*
G36*
X+4568999Y+2422605D02*
X+4568999Y+2317395D01*
X+4494605Y+2243001D01*
X+4389395Y+2243001D01*
X+4321000Y+2311396D01*
X+4254604Y+2245000D01*
X+4326999Y+2172605D01*
X+4326999Y+2067395D01*
X+4252605Y+1993001D01*
X+4147395Y+1993001D01*
X+4073001Y+2067395D01*
X+4073001Y+2069397D01*
X+4002605Y+1999001D01*
X+3897395Y+1999001D01*
X+3823001Y+2073395D01*
X+3823001Y+2178605D01*
X+3897395Y+2252999D01*
X+4002605Y+2252999D01*
X+4076999Y+2178605D01*
X+4076999Y+2176799D01*
X+4077195Y+2176799D01*
X+4145396Y+2245000D01*
X+4073001Y+2317395D01*
X+4073001Y+2422605D01*
X+4147395Y+2496999D01*
X+4252605Y+2496999D01*
X+4321000Y+2428604D01*
X+4389395Y+2496999D01*
X+4494605Y+2496999D01*
X+4568999Y+2422605D01*
G37*
G36*
X+5318999Y+3184605D02*
X+5318999Y+3079395D01*
X+5244605Y+3005001D01*
X+5139395Y+3005001D01*
X+5071000Y+3073396D01*
X+5002605Y+3005001D01*
X+4897395Y+3005001D01*
X+4823001Y+3079395D01*
X+4823001Y+3184605D01*
X+4897395Y+3258999D01*
X+5002605Y+3258999D01*
X+5071000Y+3190604D01*
X+5139395Y+3258999D01*
X+5244605Y+3258999D01*
X+5318999Y+3184605D01*
G37*
G36*
X+5318999Y+2422605D02*
X+5318999Y+2317395D01*
X+5244605Y+2243001D01*
X+5139395Y+2243001D01*
X+5071000Y+2311396D01*
X+5004604Y+2245000D01*
X+5076999Y+2172605D01*
X+5076999Y+2067395D01*
X+5002605Y+1993001D01*
X+4897395Y+1993001D01*
X+4823001Y+2067395D01*
X+4823001Y+2069397D01*
X+4752605Y+1999001D01*
X+4647395Y+1999001D01*
X+4573001Y+2073395D01*
X+4573001Y+2178605D01*
X+4647395Y+2252999D01*
X+4752605Y+2252999D01*
X+4826999Y+2178605D01*
X+4826999Y+2176799D01*
X+4827195Y+2176799D01*
X+4895396Y+2245000D01*
X+4823001Y+2317395D01*
X+4823001Y+2422605D01*
X+4897395Y+2496999D01*
X+5002605Y+2496999D01*
X+5071000Y+2428604D01*
X+5139395Y+2496999D01*
X+5244605Y+2496999D01*
X+5318999Y+2422605D01*
G37*
G36*
X+6068999Y+3184605D02*
X+6068999Y+3079395D01*
X+5994605Y+3005001D01*
X+5889395Y+3005001D01*
X+5821000Y+3073396D01*
X+5752605Y+3005001D01*
X+5647395Y+3005001D01*
X+5573001Y+3079395D01*
X+5573001Y+3184605D01*
X+5647395Y+3258999D01*
X+5752605Y+3258999D01*
X+5821000Y+3190604D01*
X+5889395Y+3258999D01*
X+5994605Y+3258999D01*
X+6068999Y+3184605D01*
G37*
G36*
X+6068999Y+2422605D02*
X+6068999Y+2317395D01*
X+5994605Y+2243001D01*
X+5889395Y+2243001D01*
X+5821000Y+2311396D01*
X+5754604Y+2245000D01*
X+5826999Y+2172605D01*
X+5826999Y+2067395D01*
X+5752605Y+1993001D01*
X+5647395Y+1993001D01*
X+5573001Y+2067395D01*
X+5573001Y+2069397D01*
X+5502605Y+1999001D01*
X+5397395Y+1999001D01*
X+5323001Y+2073395D01*
X+5323001Y+2178605D01*
X+5397395Y+2252999D01*
X+5502605Y+2252999D01*
X+5576999Y+2178605D01*
X+5576999Y+2176799D01*
X+5577195Y+2176799D01*
X+5645396Y+2245000D01*
X+5573001Y+2317395D01*
X+5573001Y+2422605D01*
X+5647395Y+2496999D01*
X+5752605Y+2496999D01*
X+5821000Y+2428604D01*
X+5889395Y+2496999D01*
X+5994605Y+2496999D01*
X+6068999Y+2422605D01*
G37*
G36*
X+6818999Y+3184605D02*
X+6818999Y+3079395D01*
X+6744605Y+3005001D01*
X+6639395Y+3005001D01*
X+6571000Y+3073396D01*
X+6502605Y+3005001D01*
X+6397395Y+3005001D01*
X+6323001Y+3079395D01*
X+6323001Y+3184605D01*
X+6397395Y+3258999D01*
X+6502605Y+3258999D01*
X+6571000Y+3190604D01*
X+6639395Y+3258999D01*
X+6744605Y+3258999D01*
X+6818999Y+3184605D01*
G37*
G36*
X+6818999Y+2422605D02*
X+6818999Y+2317395D01*
X+6744605Y+2243001D01*
X+6639395Y+2243001D01*
X+6571000Y+2311396D01*
X+6504604Y+2245000D01*
X+6576999Y+2172605D01*
X+6576999Y+2067395D01*
X+6502605Y+1993001D01*
X+6397395Y+1993001D01*
X+6323001Y+2067395D01*
X+6323001Y+2069397D01*
X+6252605Y+1999001D01*
X+6147395Y+1999001D01*
X+6073001Y+2073395D01*
X+6073001Y+2178605D01*
X+6147395Y+2252999D01*
X+6252605Y+2252999D01*
X+6326999Y+2178605D01*
X+6326999Y+2176799D01*
X+6327195Y+2176799D01*
X+6395396Y+2245000D01*
X+6323001Y+2317395D01*
X+6323001Y+2422605D01*
X+6397395Y+2496999D01*
X+6502605Y+2496999D01*
X+6571000Y+2428604D01*
X+6639395Y+2496999D01*
X+6744605Y+2496999D01*
X+6818999Y+2422605D01*
G37*
G36*
X+7073001Y+3079395D02*
X+7073001Y+3184605D01*
X+7147395Y+3258999D01*
X+7252605Y+3258999D01*
X+7326999Y+3184605D01*
X+7326999Y+3079395D01*
X+7252605Y+3005001D01*
X+7147395Y+3005001D01*
X+7073001Y+3079395D01*
G37*
G36*
X+7326999Y+2422605D02*
X+7326999Y+2317395D01*
X+7254604Y+2245000D01*
X+7326999Y+2172605D01*
X+7326999Y+2067395D01*
X+7252605Y+1993001D01*
X+7147395Y+1993001D01*
X+7073001Y+2067395D01*
X+7073001Y+2069397D01*
X+7002605Y+1999001D01*
X+6897395Y+1999001D01*
X+6823001Y+2073395D01*
X+6823001Y+2178605D01*
X+6897395Y+2252999D01*
X+7002605Y+2252999D01*
X+7076999Y+2178605D01*
X+7076999Y+2176799D01*
X+7077195Y+2176799D01*
X+7145396Y+2245000D01*
X+7073001Y+2317395D01*
X+7073001Y+2422605D01*
X+7147395Y+2496999D01*
X+7252605Y+2496999D01*
X+7326999Y+2422605D01*
G37*
G36*
X+14689699Y+6861865D02*
X+14689699Y+6746135D01*
X+14620564Y+6677000D01*
X+14689699Y+6607865D01*
X+14689699Y+6492135D01*
X+14607865Y+6410301D01*
X+14492135Y+6410301D01*
X+14410301Y+6492135D01*
X+14410301Y+6556541D01*
X+13526199Y+5672439D01*
X+13526199Y+3303405D01*
X+13576999Y+3252605D01*
X+13576999Y+3147395D01*
X+13502605Y+3073001D01*
X+13397395Y+3073001D01*
X+13346595Y+3123801D01*
X+13176439Y+3123801D01*
X+12883939Y+3416301D01*
X+9556561Y+3416301D01*
X+9474199Y+3333939D01*
X+9474199Y+3016061D01*
X+9702199Y+2788061D01*
X+9702199Y+2235444D01*
X+9740299Y+2197344D01*
X+9740299Y+2102656D01*
X+9673344Y+2035701D01*
X+9578656Y+2035701D01*
X+9511701Y+2102656D01*
X+9511701Y+2197344D01*
X+9549801Y+2235444D01*
X+9549801Y+2724939D01*
X+9321801Y+2952939D01*
X+9321801Y+3098801D01*
X+9186405Y+3098801D01*
X+9160605Y+3073001D01*
X+9055395Y+3073001D01*
X+8981001Y+3147395D01*
X+8981001Y+3219239D01*
X+8847439Y+3352801D01*
X+7823199Y+3352801D01*
X+7823199Y+1809939D01*
X+7251699Y+1238439D01*
X+7251699Y+1230999D01*
X+7252605Y+1230999D01*
X+7326999Y+1156605D01*
X+7326999Y+1051395D01*
X+7252605Y+977001D01*
X+7147395Y+977001D01*
X+7073001Y+1051395D01*
X+7073001Y+1053397D01*
X+7002605Y+983001D01*
X+6897395Y+983001D01*
X+6896118Y+984278D01*
X+6311041Y+399201D01*
X+3589699Y+399201D01*
X+3589699Y+392135D01*
X+3507865Y+310301D01*
X+3392135Y+310301D01*
X+3323000Y+379436D01*
X+3253865Y+310301D01*
X+3138135Y+310301D01*
X+3069000Y+379436D01*
X+2999865Y+310301D01*
X+2884135Y+310301D01*
X+2879138Y+315298D01*
X+2703541Y+139701D01*
X+1502959Y+139701D01*
X+1409701Y+232959D01*
X+1409701Y+1418041D01*
X+1502959Y+1511299D01*
X+5120541Y+1511299D01*
X+5396118Y+1235722D01*
X+5397395Y+1236999D01*
X+5502605Y+1236999D01*
X+5576999Y+1162605D01*
X+5576999Y+1160603D01*
X+5647395Y+1230999D01*
X+5719239Y+1230999D01*
X+5834439Y+1346199D01*
X+6315561Y+1346199D01*
X+6430761Y+1230999D01*
X+6469239Y+1230999D01*
X+6584439Y+1346199D01*
X+7143939Y+1346199D01*
X+7670801Y+1873061D01*
X+7670801Y+3825439D01*
X+7489699Y+4006541D01*
X+7489699Y+3942135D01*
X+7420564Y+3873000D01*
X+7489699Y+3803865D01*
X+7489699Y+3688135D01*
X+7407865Y+3606301D01*
X+7292135Y+3606301D01*
X+7210301Y+3688135D01*
X+7210301Y+3803865D01*
X+7279436Y+3873000D01*
X+7210301Y+3942135D01*
X+7210301Y+3949201D01*
X+6332959Y+3949201D01*
X+6328959Y+3953201D01*
X+6239699Y+3953201D01*
X+6239699Y+3946135D01*
X+6170564Y+3877000D01*
X+6239699Y+3807865D01*
X+6239699Y+3692135D01*
X+6157865Y+3610301D01*
X+6042135Y+3610301D01*
X+5960301Y+3692135D01*
X+5960301Y+3807865D01*
X+6029436Y+3877000D01*
X+5960301Y+3946135D01*
X+5960301Y+4061865D01*
X+6029436Y+4131000D01*
X+5960301Y+4200135D01*
X+5960301Y+4315865D01*
X+6042135Y+4397699D01*
X+6157865Y+4397699D01*
X+6239699Y+4315865D01*
X+6239699Y+4200135D01*
X+6170564Y+4131000D01*
X+6239699Y+4061865D01*
X+6239699Y+4054799D01*
X+6371041Y+4054799D01*
X+6375041Y+4050799D01*
X+7210301Y+4050799D01*
X+7210301Y+4057865D01*
X+7279436Y+4127000D01*
X+7210301Y+4196135D01*
X+7210301Y+4311865D01*
X+7292135Y+4393699D01*
X+7407865Y+4393699D01*
X+7489699Y+4311865D01*
X+7489699Y+4222061D01*
X+7823199Y+3888561D01*
X+7823199Y+3505199D01*
X+8910561Y+3505199D01*
X+9088761Y+3326999D01*
X+9160605Y+3326999D01*
X+9234999Y+3252605D01*
X+9234999Y+3251199D01*
X+9321801Y+3251199D01*
X+9321801Y+3397061D01*
X+9493439Y+3568699D01*
X+12947061Y+3568699D01*
X+13239561Y+3276199D01*
X+13346595Y+3276199D01*
X+13373801Y+3303405D01*
X+13373801Y+5735561D01*
X+14410301Y+6772061D01*
X+14410301Y+6861865D01*
X+14492135Y+6943699D01*
X+14607865Y+6943699D01*
X+14689699Y+6861865D01*
G37*
G36*
X+693699Y+4300799D02*
X+723001Y+4300799D01*
X+723001Y+4302605D01*
X+797395Y+4376999D01*
X+902605Y+4376999D01*
X+976999Y+4302605D01*
X+976999Y+4197395D01*
X+902605Y+4123001D01*
X+797395Y+4123001D01*
X+723001Y+4197395D01*
X+723001Y+4199201D01*
X+719542Y+4199201D01*
X+719541Y+4199200D01*
X+693699Y+4199200D01*
X+693699Y+4110301D01*
X+160301Y+4110301D01*
X+160301Y+4389699D01*
X+693699Y+4389699D01*
X+693699Y+4300799D01*
G37*
G36*
X+693699Y+5050799D02*
X+723001Y+5050799D01*
X+723001Y+5052605D01*
X+797395Y+5126999D01*
X+902605Y+5126999D01*
X+976999Y+5052605D01*
X+976999Y+4947395D01*
X+902605Y+4873001D01*
X+797395Y+4873001D01*
X+723001Y+4947395D01*
X+723001Y+4949201D01*
X+719542Y+4949201D01*
X+719541Y+4949200D01*
X+693699Y+4949200D01*
X+693699Y+4860301D01*
X+160301Y+4860301D01*
X+160301Y+5139699D01*
X+693699Y+5139699D01*
X+693699Y+5050799D01*
G37*
G36*
X+693699Y+5800799D02*
X+723001Y+5800799D01*
X+723001Y+5802605D01*
X+797395Y+5876999D01*
X+902605Y+5876999D01*
X+976999Y+5802605D01*
X+976999Y+5697395D01*
X+902605Y+5623001D01*
X+797395Y+5623001D01*
X+723001Y+5697395D01*
X+723001Y+5699201D01*
X+719542Y+5699201D01*
X+719541Y+5699200D01*
X+693699Y+5699200D01*
X+693699Y+5610301D01*
X+160301Y+5610301D01*
X+160301Y+5889699D01*
X+693699Y+5889699D01*
X+693699Y+5800799D01*
G37*
G36*
X+693699Y+6550799D02*
X+723001Y+6550799D01*
X+723001Y+6552605D01*
X+797395Y+6626999D01*
X+902605Y+6626999D01*
X+976999Y+6552605D01*
X+976999Y+6447395D01*
X+902605Y+6373001D01*
X+797395Y+6373001D01*
X+723001Y+6447395D01*
X+723001Y+6449201D01*
X+719542Y+6449201D01*
X+719541Y+6449200D01*
X+693699Y+6449200D01*
X+693699Y+6360301D01*
X+160301Y+6360301D01*
X+160301Y+6639699D01*
X+693699Y+6639699D01*
X+693699Y+6550799D01*
G37*
G36*
X+693699Y+7300799D02*
X+723001Y+7300799D01*
X+723001Y+7302605D01*
X+797395Y+7376999D01*
X+902605Y+7376999D01*
X+976999Y+7302605D01*
X+976999Y+7197395D01*
X+902605Y+7123001D01*
X+797395Y+7123001D01*
X+723001Y+7197395D01*
X+723001Y+7199201D01*
X+719542Y+7199201D01*
X+719541Y+7199200D01*
X+693699Y+7199200D01*
X+693699Y+7110301D01*
X+160301Y+7110301D01*
X+160301Y+7389699D01*
X+693699Y+7389699D01*
X+693699Y+7300799D01*
G37*
G36*
X+689699Y+8050799D02*
X+723001Y+8050799D01*
X+723001Y+8052605D01*
X+797395Y+8126999D01*
X+902605Y+8126999D01*
X+976999Y+8052605D01*
X+976999Y+7947395D01*
X+902605Y+7873001D01*
X+797395Y+7873001D01*
X+723001Y+7947395D01*
X+723001Y+7949201D01*
X+719542Y+7949201D01*
X+719541Y+7949200D01*
X+689699Y+7949200D01*
X+689699Y+7860301D01*
X+156301Y+7860301D01*
X+156301Y+8139699D01*
X+689699Y+8139699D01*
X+689699Y+8050799D01*
G37*
G36*
X+693699Y+8800799D02*
X+723001Y+8800799D01*
X+723001Y+8802605D01*
X+797395Y+8876999D01*
X+902605Y+8876999D01*
X+976999Y+8802605D01*
X+976999Y+8697395D01*
X+902605Y+8623001D01*
X+797395Y+8623001D01*
X+723001Y+8697395D01*
X+723001Y+8699201D01*
X+719542Y+8699201D01*
X+719541Y+8699200D01*
X+693699Y+8699200D01*
X+693699Y+8610301D01*
X+160301Y+8610301D01*
X+160301Y+8889699D01*
X+693699Y+8889699D01*
X+693699Y+8800799D01*
G37*
G36*
X+885920Y+9663420D02*
X+900799Y+9648541D01*
X+900799Y+9626999D01*
X+902605Y+9626999D01*
X+976999Y+9552605D01*
X+976999Y+9447395D01*
X+902605Y+9373001D01*
X+797395Y+9373001D01*
X+723001Y+9447395D01*
X+723001Y+9552605D01*
X+788028Y+9617632D01*
X+740959Y+9664701D01*
X+638541Y+9664701D01*
X+613539Y+9639699D01*
X+693699Y+9639699D01*
X+693699Y+9360301D01*
X+160301Y+9360301D01*
X+160301Y+9639699D01*
X+503201Y+9639699D01*
X+503201Y+9673041D01*
X+596459Y+9766299D01*
X+783041Y+9766299D01*
X+885920Y+9663420D01*
G37*
G36*
X+5933199Y+9315365D02*
X+5933199Y+9199635D01*
X+5851365Y+9117801D01*
X+5844299Y+9117801D01*
X+5844299Y+8447199D01*
X+5851365Y+8447199D01*
X+5933199Y+8365365D01*
X+5933199Y+8249635D01*
X+5851365Y+8167801D01*
X+5735635Y+8167801D01*
X+5666500Y+8236936D01*
X+5597365Y+8167801D01*
X+5481635Y+8167801D01*
X+5412500Y+8236936D01*
X+5343365Y+8167801D01*
X+5227635Y+8167801D01*
X+5158500Y+8236936D01*
X+5089365Y+8167801D01*
X+4973635Y+8167801D01*
X+4904500Y+8236936D01*
X+4835365Y+8167801D01*
X+4719635Y+8167801D01*
X+4650500Y+8236936D01*
X+4581365Y+8167801D01*
X+4465635Y+8167801D01*
X+4396500Y+8236936D01*
X+4327365Y+8167801D01*
X+4211635Y+8167801D01*
X+4142500Y+8236936D01*
X+4073365Y+8167801D01*
X+3957635Y+8167801D01*
X+3875801Y+8249635D01*
X+3875801Y+8365365D01*
X+3957635Y+8447199D01*
X+3964701Y+8447199D01*
X+3964701Y+9117801D01*
X+3957635Y+9117801D01*
X+3875801Y+9199635D01*
X+3875801Y+9315365D01*
X+3957635Y+9397199D01*
X+4073365Y+9397199D01*
X+4142500Y+9328064D01*
X+4211635Y+9397199D01*
X+4327365Y+9397199D01*
X+4396500Y+9328064D01*
X+4465635Y+9397199D01*
X+4581365Y+9397199D01*
X+4650500Y+9328064D01*
X+4719635Y+9397199D01*
X+4835365Y+9397199D01*
X+4904500Y+9328064D01*
X+4973635Y+9397199D01*
X+5089365Y+9397199D01*
X+5158500Y+9328064D01*
X+5227635Y+9397199D01*
X+5343365Y+9397199D01*
X+5412500Y+9328064D01*
X+5481635Y+9397199D01*
X+5597365Y+9397199D01*
X+5666500Y+9328064D01*
X+5735635Y+9397199D01*
X+5851365Y+9397199D01*
X+5933199Y+9315365D01*
G37*
G36*
X+1992999Y+9552605D02*
X+1992999Y+9447395D01*
X+1991722Y+9446118D01*
X+2850799Y+8587041D01*
X+2850799Y+8167699D01*
X+2857865Y+8167699D01*
X+2939699Y+8085865D01*
X+2939699Y+7970135D01*
X+2870564Y+7901000D01*
X+2939699Y+7831865D01*
X+2939699Y+7716135D01*
X+2870564Y+7647000D01*
X+2939699Y+7577865D01*
X+2939699Y+7462135D01*
X+2870564Y+7393000D01*
X+2939699Y+7323865D01*
X+2939699Y+7208135D01*
X+2870564Y+7139000D01*
X+2939699Y+7069865D01*
X+2939699Y+6954135D01*
X+2870564Y+6885000D01*
X+2939699Y+6815865D01*
X+2939699Y+6700135D01*
X+2870564Y+6631000D01*
X+2939699Y+6561865D01*
X+2939699Y+6446135D01*
X+2870564Y+6377000D01*
X+2939699Y+6307865D01*
X+2939699Y+6192135D01*
X+2857865Y+6110301D01*
X+2850799Y+6110301D01*
X+2850799Y+5162959D01*
X+1991722Y+4303882D01*
X+1992999Y+4302605D01*
X+1992999Y+4197395D01*
X+1918605Y+4123001D01*
X+1813395Y+4123001D01*
X+1739001Y+4197395D01*
X+1739001Y+4302605D01*
X+1813395Y+4376999D01*
X+1918605Y+4376999D01*
X+1919882Y+4375722D01*
X+2749201Y+5205041D01*
X+2749201Y+6110301D01*
X+2742135Y+6110301D01*
X+2660301Y+6192135D01*
X+2660301Y+6292461D01*
X+2454397Y+6086557D01*
X+2454397Y+5516557D01*
X+1991722Y+5053882D01*
X+1992999Y+5052605D01*
X+1992999Y+4947395D01*
X+1918605Y+4873001D01*
X+1813395Y+4873001D01*
X+1739001Y+4947395D01*
X+1739001Y+5052605D01*
X+1813395Y+5126999D01*
X+1918605Y+5126999D01*
X+1919882Y+5125722D01*
X+2352799Y+5558639D01*
X+2352799Y+6128639D01*
X+2665298Y+6441138D01*
X+2660301Y+6446135D01*
X+2660301Y+6546461D01*
X+2082799Y+5968959D01*
X+2082799Y+5894959D01*
X+1991722Y+5803882D01*
X+1992999Y+5802605D01*
X+1992999Y+5697395D01*
X+1918605Y+5623001D01*
X+1813395Y+5623001D01*
X+1739001Y+5697395D01*
X+1739001Y+5802605D01*
X+1813395Y+5876999D01*
X+1918605Y+5876999D01*
X+1919882Y+5875722D01*
X+1981201Y+5937041D01*
X+1981201Y+6011041D01*
X+2665298Y+6695138D01*
X+2660301Y+6700135D01*
X+2660301Y+6815865D01*
X+2729436Y+6885000D01*
X+2660301Y+6954135D01*
X+2660301Y+6961201D01*
X+2399042Y+6961202D01*
X+1991722Y+6553882D01*
X+1992999Y+6552605D01*
X+1992999Y+6447395D01*
X+1918605Y+6373001D01*
X+1813395Y+6373001D01*
X+1739001Y+6447395D01*
X+1739001Y+6552605D01*
X+1813395Y+6626999D01*
X+1918605Y+6626999D01*
X+1919882Y+6625722D01*
X+2356958Y+7062798D01*
X+2378000Y+7062798D01*
X+2660301Y+7062799D01*
X+2660301Y+7069865D01*
X+2729436Y+7139000D01*
X+2660301Y+7208135D01*
X+2660301Y+7215201D01*
X+2624541Y+7215201D01*
X+2608541Y+7199201D01*
X+1992999Y+7199201D01*
X+1992999Y+7197395D01*
X+1918605Y+7123001D01*
X+1813395Y+7123001D01*
X+1739001Y+7197395D01*
X+1739001Y+7302605D01*
X+1813395Y+7376999D01*
X+1918605Y+7376999D01*
X+1992999Y+7302605D01*
X+1992999Y+7300799D01*
X+2566459Y+7300799D01*
X+2582459Y+7316799D01*
X+2660301Y+7316799D01*
X+2660301Y+7323865D01*
X+2729436Y+7393000D01*
X+2660301Y+7462135D01*
X+2660301Y+7469201D01*
X+2324959Y+7469201D01*
X+1919882Y+7874278D01*
X+1918605Y+7873001D01*
X+1813395Y+7873001D01*
X+1739001Y+7947395D01*
X+1739001Y+8052605D01*
X+1813395Y+8126999D01*
X+1918605Y+8126999D01*
X+1992999Y+8052605D01*
X+1992999Y+7947395D01*
X+1991722Y+7946118D01*
X+2367041Y+7570799D01*
X+2660301Y+7570799D01*
X+2660301Y+7577865D01*
X+2729436Y+7647000D01*
X+2660301Y+7716135D01*
X+2660301Y+7831865D01*
X+2665298Y+7836862D01*
X+2162404Y+8339756D01*
X+2162404Y+8381756D01*
X+1919882Y+8624278D01*
X+1918605Y+8623001D01*
X+1813395Y+8623001D01*
X+1739001Y+8697395D01*
X+1739001Y+8802605D01*
X+1813395Y+8876999D01*
X+1918605Y+8876999D01*
X+1992999Y+8802605D01*
X+1992999Y+8697395D01*
X+1991722Y+8696118D01*
X+2264002Y+8423838D01*
X+2264002Y+8381838D01*
X+2660301Y+7985539D01*
X+2660301Y+8085865D01*
X+2742135Y+8167699D01*
X+2749201Y+8167699D01*
X+2749201Y+8544959D01*
X+1919882Y+9374278D01*
X+1918605Y+9373001D01*
X+1813395Y+9373001D01*
X+1739001Y+9447395D01*
X+1739001Y+9552605D01*
X+1813395Y+9626999D01*
X+1918605Y+9626999D01*
X+1992999Y+9552605D01*
G37*
G36*
X+10494299Y+3347344D02*
X+10494299Y+3252656D01*
X+10427344Y+3185701D01*
X+10337541Y+3185701D01*
X+10184799Y+3032959D01*
X+10184799Y+2260844D01*
X+10248299Y+2197344D01*
X+10248299Y+2102656D01*
X+10181344Y+2035701D01*
X+10086656Y+2035701D01*
X+10019701Y+2102656D01*
X+10019701Y+2197344D01*
X+10083201Y+2260844D01*
X+10083201Y+3075041D01*
X+10265701Y+3257541D01*
X+10265701Y+3347344D01*
X+10332656Y+3414299D01*
X+10427344Y+3414299D01*
X+10494299Y+3347344D01*
G37*
G36*
X+10748299Y+3347344D02*
X+10748299Y+3252656D01*
X+10684799Y+3189156D01*
X+10684799Y+3132541D01*
X+10692799Y+3124541D01*
X+10692799Y+2260844D01*
X+10756299Y+2197344D01*
X+10756299Y+2102656D01*
X+10689344Y+2035701D01*
X+10594656Y+2035701D01*
X+10527701Y+2102656D01*
X+10527701Y+2197344D01*
X+10591201Y+2260844D01*
X+10591201Y+3082459D01*
X+10583201Y+3090459D01*
X+10583201Y+3189156D01*
X+10519701Y+3252656D01*
X+10519701Y+3347344D01*
X+10586656Y+3414299D01*
X+10681344Y+3414299D01*
X+10748299Y+3347344D01*
G37*
G36*
X+11002299Y+3347344D02*
X+11002299Y+3252656D01*
X+10938799Y+3189156D01*
X+10938799Y+3132541D01*
X+10946799Y+3124541D01*
X+10946799Y+2260844D01*
X+11010299Y+2197344D01*
X+11010299Y+2102656D01*
X+10943344Y+2035701D01*
X+10848656Y+2035701D01*
X+10781701Y+2102656D01*
X+10781701Y+2197344D01*
X+10845201Y+2260844D01*
X+10845201Y+3082459D01*
X+10837201Y+3090459D01*
X+10837201Y+3189156D01*
X+10773701Y+3252656D01*
X+10773701Y+3347344D01*
X+10840656Y+3414299D01*
X+10935344Y+3414299D01*
X+11002299Y+3347344D01*
G37*
G36*
X+11256299Y+3347344D02*
X+11256299Y+3252656D01*
X+11192799Y+3189156D01*
X+11192799Y+3132541D01*
X+11200799Y+3124541D01*
X+11200799Y+2260844D01*
X+11264299Y+2197344D01*
X+11264299Y+2102656D01*
X+11197344Y+2035701D01*
X+11102656Y+2035701D01*
X+11035701Y+2102656D01*
X+11035701Y+2197344D01*
X+11099201Y+2260844D01*
X+11099201Y+3082459D01*
X+11091201Y+3090459D01*
X+11091201Y+3189156D01*
X+11027701Y+3252656D01*
X+11027701Y+3347344D01*
X+11094656Y+3414299D01*
X+11189344Y+3414299D01*
X+11256299Y+3347344D01*
G37*
G36*
X+11510299Y+3347344D02*
X+11510299Y+3252656D01*
X+11454799Y+3197156D01*
X+11454799Y+2260844D01*
X+11518299Y+2197344D01*
X+11518299Y+2102656D01*
X+11451344Y+2035701D01*
X+11356656Y+2035701D01*
X+11289701Y+2102656D01*
X+11289701Y+2197344D01*
X+11353201Y+2260844D01*
X+11353201Y+3185701D01*
X+11348656Y+3185701D01*
X+11281701Y+3252656D01*
X+11281701Y+3347344D01*
X+11348656Y+3414299D01*
X+11443344Y+3414299D01*
X+11510299Y+3347344D01*
G37*
G36*
X+11764299Y+3347344D02*
X+11764299Y+3252656D01*
X+11708799Y+3197156D01*
X+11708799Y+2260844D01*
X+11772299Y+2197344D01*
X+11772299Y+2102656D01*
X+11705344Y+2035701D01*
X+11610656Y+2035701D01*
X+11543701Y+2102656D01*
X+11543701Y+2197344D01*
X+11607201Y+2260844D01*
X+11607201Y+3185701D01*
X+11602656Y+3185701D01*
X+11535701Y+3252656D01*
X+11535701Y+3347344D01*
X+11602656Y+3414299D01*
X+11697344Y+3414299D01*
X+11764299Y+3347344D01*
G37*
G36*
X+12018299Y+3347344D02*
X+12018299Y+3252656D01*
X+11962799Y+3197156D01*
X+11962799Y+2260844D01*
X+12026299Y+2197344D01*
X+12026299Y+2102656D01*
X+11959344Y+2035701D01*
X+11864656Y+2035701D01*
X+11797701Y+2102656D01*
X+11797701Y+2197344D01*
X+11861201Y+2260844D01*
X+11861201Y+3185701D01*
X+11856656Y+3185701D01*
X+11789701Y+3252656D01*
X+11789701Y+3347344D01*
X+11856656Y+3414299D01*
X+11951344Y+3414299D01*
X+12018299Y+3347344D01*
G37*
G36*
X+12272299Y+3347344D02*
X+12272299Y+3252656D01*
X+12208799Y+3189156D01*
X+12208799Y+3132541D01*
X+12216799Y+3124541D01*
X+12216799Y+2260844D01*
X+12280299Y+2197344D01*
X+12280299Y+2102656D01*
X+12213344Y+2035701D01*
X+12118656Y+2035701D01*
X+12051701Y+2102656D01*
X+12051701Y+2197344D01*
X+12115201Y+2260844D01*
X+12115201Y+3082459D01*
X+12107201Y+3090459D01*
X+12107201Y+3189156D01*
X+12043701Y+3252656D01*
X+12043701Y+3347344D01*
X+12110656Y+3414299D01*
X+12205344Y+3414299D01*
X+12272299Y+3347344D01*
G37*
G36*
X+12526299Y+3347344D02*
X+12526299Y+3252656D01*
X+12462799Y+3189156D01*
X+12462799Y+3132541D01*
X+12470799Y+3124541D01*
X+12470799Y+2260844D01*
X+12534299Y+2197344D01*
X+12534299Y+2102656D01*
X+12467344Y+2035701D01*
X+12372656Y+2035701D01*
X+12305701Y+2102656D01*
X+12305701Y+2197344D01*
X+12369201Y+2260844D01*
X+12369201Y+3082459D01*
X+12361201Y+3090459D01*
X+12361201Y+3189156D01*
X+12297701Y+3252656D01*
X+12297701Y+3347344D01*
X+12364656Y+3414299D01*
X+12459344Y+3414299D01*
X+12526299Y+3347344D01*
G37*
G36*
X+12780299Y+3347344D02*
X+12780299Y+3252656D01*
X+12716799Y+3189156D01*
X+12716799Y+3132541D01*
X+12724799Y+3124541D01*
X+12724799Y+2260844D01*
X+12788299Y+2197344D01*
X+12788299Y+2102656D01*
X+12721344Y+2035701D01*
X+12626656Y+2035701D01*
X+12559701Y+2102656D01*
X+12559701Y+2197344D01*
X+12623201Y+2260844D01*
X+12623201Y+3082459D01*
X+12615201Y+3090459D01*
X+12615201Y+3189156D01*
X+12551701Y+3252656D01*
X+12551701Y+3347344D01*
X+12618656Y+3414299D01*
X+12713344Y+3414299D01*
X+12780299Y+3347344D01*
G37*
G36*
X+9486299Y+2197344D02*
X+9486299Y+2102656D01*
X+9419344Y+2035701D01*
X+9324656Y+2035701D01*
X+9257701Y+2102656D01*
X+9257701Y+2197344D01*
X+9324656Y+2264299D01*
X+9419344Y+2264299D01*
X+9486299Y+2197344D01*
G37*
G36*
X+9742999Y+3252605D02*
X+9742999Y+3147395D01*
X+9741722Y+3146118D01*
X+9930799Y+2957041D01*
X+9930799Y+2260844D01*
X+9994299Y+2197344D01*
X+9994299Y+2102656D01*
X+9927344Y+2035701D01*
X+9832656Y+2035701D01*
X+9765701Y+2102656D01*
X+9765701Y+2197344D01*
X+9829201Y+2260844D01*
X+9829201Y+2914959D01*
X+9669882Y+3074278D01*
X+9668605Y+3073001D01*
X+9563395Y+3073001D01*
X+9489001Y+3147395D01*
X+9489001Y+3252605D01*
X+9563395Y+3326999D01*
X+9668605Y+3326999D01*
X+9742999Y+3252605D01*
G37*
G36*
X+10502299Y+2197344D02*
X+10502299Y+2102656D01*
X+10435344Y+2035701D01*
X+10340656Y+2035701D01*
X+10273701Y+2102656D01*
X+10273701Y+2197344D01*
X+10340656Y+2264299D01*
X+10435344Y+2264299D01*
X+10502299Y+2197344D01*
G37*
G36*
X+14592999Y+3252605D02*
X+14592999Y+3147395D01*
X+14518605Y+3073001D01*
X+14413395Y+3073001D01*
X+14412118Y+3074278D01*
X+13992362Y+2654522D01*
X+13504362Y+2654522D01*
X+13042299Y+2192459D01*
X+13042299Y+2102656D01*
X+12975344Y+2035701D01*
X+12880656Y+2035701D01*
X+12813701Y+2102656D01*
X+12813701Y+2197344D01*
X+12880656Y+2264299D01*
X+12970459Y+2264299D01*
X+13462280Y+2756120D01*
X+13950280Y+2756120D01*
X+14340278Y+3146118D01*
X+14339001Y+3147395D01*
X+14339001Y+3252605D01*
X+14413395Y+3326999D01*
X+14518605Y+3326999D01*
X+14592999Y+3252605D01*
G37*
G36*
X+13296299Y+2197344D02*
X+13296299Y+2102656D01*
X+13229344Y+2035701D01*
X+13134656Y+2035701D01*
X+13067701Y+2102656D01*
X+13067701Y+2197344D01*
X+13134656Y+2264299D01*
X+13229344Y+2264299D01*
X+13296299Y+2197344D01*
G37*
G36*
X+11846920Y+9560920D02*
X+11925299Y+9482541D01*
X+11925299Y+6582959D01*
X+11832041Y+6489701D01*
X+11535959Y+6489701D01*
X+11442701Y+6582959D01*
X+11442701Y+6627597D01*
X+11419105Y+6604001D01*
X+11313895Y+6604001D01*
X+11312618Y+6605278D01*
X+11070041Y+6362701D01*
X+7281459Y+6362701D01*
X+7188201Y+6455959D01*
X+7188201Y+6840541D01*
X+7264298Y+6916638D01*
X+7259301Y+6921635D01*
X+7259301Y+7037365D01*
X+7328436Y+7106500D01*
X+7259301Y+7175635D01*
X+7259301Y+7291365D01*
X+7264298Y+7296362D01*
X+7188201Y+7372459D01*
X+7188201Y+8720541D01*
X+7281459Y+8813799D01*
X+10816041Y+8813799D01*
X+10871201Y+8758639D01*
X+10871201Y+9131301D01*
X+10864135Y+9131301D01*
X+10795000Y+9200436D01*
X+10725865Y+9131301D01*
X+10610135Y+9131301D01*
X+10528301Y+9213135D01*
X+10528301Y+9328865D01*
X+10610135Y+9410699D01*
X+10725865Y+9410699D01*
X+10730862Y+9405702D01*
X+10900959Y+9575799D01*
X+11832041Y+9575799D01*
X+11846920Y+9560920D01*
G37*
G36*
X+8473001Y+3147395D02*
X+8473001Y+3252605D01*
X+8547395Y+3326999D01*
X+8652605Y+3326999D01*
X+8726999Y+3252605D01*
X+8726999Y+3147395D01*
X+8652605Y+3073001D01*
X+8547395Y+3073001D01*
X+8473001Y+3147395D01*
G37*
G36*
X+13831001Y+3147395D02*
X+13831001Y+3252605D01*
X+13905395Y+3326999D01*
X+14010605Y+3326999D01*
X+14084999Y+3252605D01*
X+14084999Y+3147395D01*
X+14010605Y+3073001D01*
X+13905395Y+3073001D01*
X+13831001Y+3147395D01*
G37*
%LPD*%
D10*
X+1950000Y+2120000D02*
X+1700000Y+2120000D01*
X+1950000Y+2120000D02*
X+1950000Y+2370000D01*
X+2700000Y+2120000D02*
X+2696000Y+2116000D01*
X+2450000Y+2116000D01*
X+2700000Y+2120000D02*
X+2700000Y+2370000D01*
X+3450000Y+2120000D02*
X+3446000Y+2116000D01*
X+3200000Y+2116000D01*
X+3450000Y+2120000D02*
X+3450000Y+2370000D01*
X+4200000Y+2120000D02*
X+4194000Y+2126000D01*
X+3950000Y+2126000D01*
X+4200000Y+2120000D02*
X+4200000Y+2370000D01*
X+4950000Y+2120000D02*
X+4944000Y+2126000D01*
X+4700000Y+2126000D01*
X+4950000Y+2120000D02*
X+4950000Y+2370000D01*
X+5700000Y+2120000D02*
X+5694000Y+2126000D01*
X+5450000Y+2126000D01*
X+5700000Y+2120000D02*
X+5700000Y+2370000D01*
X+6450000Y+2120000D02*
X+6444000Y+2126000D01*
X+6200000Y+2126000D01*
X+6450000Y+2120000D02*
X+6450000Y+2370000D01*
X+7200000Y+2120000D02*
X+7194000Y+2126000D01*
X+6950000Y+2126000D01*
X+7200000Y+2120000D02*
X+7200000Y+2370000D01*
X+1700000Y+1104000D02*
X+1700000Y+952500D01*
X+1672000Y+924500D01*
X+1672000Y+450000D01*
X+2450000Y+1100000D02*
X+2239000Y+889000D01*
X+2032000Y+889000D01*
X+1926000Y+783000D01*
X+1926000Y+450000D01*
X+2180000Y+450000D02*
X+2555500Y+825500D01*
X+2925500Y+825500D01*
X+3200000Y+1100000D01*
X+2434000Y+450000D02*
X+2746000Y+762000D01*
X+3602000Y+762000D01*
X+3950000Y+1110000D01*
X+2688000Y+450000D02*
X+2936500Y+698500D01*
X+4288500Y+698500D01*
X+4700000Y+1110000D01*
X+2942000Y+450000D02*
X+2682500Y+190500D01*
X+1524000Y+190500D01*
X+1460500Y+254000D01*
X+1460500Y+1397000D01*
X+1524000Y+1460500D01*
X+5099500Y+1460500D01*
X+5450000Y+1110000D01*
X+3196000Y+450000D02*
X+3381000Y+635000D01*
X+5725000Y+635000D01*
X+6200000Y+1110000D01*
X+3450000Y+450000D02*
X+6290000Y+450000D01*
X+6950000Y+1110000D01*
X+5793500Y+9257500D02*
X+5793500Y+8307500D01*
X+5539500Y+9257500D02*
X+5539500Y+8307500D01*
X+5285500Y+9257500D02*
X+5285500Y+8307500D01*
X+5031500Y+9257500D02*
X+5031500Y+8307500D01*
X+4777500Y+9257500D02*
X+4777500Y+8307500D01*
X+4523500Y+9257500D02*
X+4523500Y+8307500D01*
X+4269500Y+9257500D02*
X+4269500Y+8307500D01*
X+4015500Y+9257500D02*
X+4015500Y+8307500D01*
X+554000Y+4250000D02*
X+554001Y+4249999D01*
X+698500Y+4249999D01*
X+698501Y+4250000D01*
X+850000Y+4250000D01*
X+554000Y+5000000D02*
X+554001Y+4999999D01*
X+698500Y+4999999D01*
X+698501Y+5000000D01*
X+850000Y+5000000D01*
X+554000Y+5750000D02*
X+554001Y+5749999D01*
X+698500Y+5749999D01*
X+698501Y+5750000D01*
X+850000Y+5750000D01*
X+554000Y+6500000D02*
X+554001Y+6499999D01*
X+698500Y+6499999D01*
X+698501Y+6500000D01*
X+850000Y+6500000D01*
X+554000Y+7250000D02*
X+554001Y+7249999D01*
X+698500Y+7249999D01*
X+698501Y+7250000D01*
X+850000Y+7250000D01*
X+550000Y+8000000D02*
X+550001Y+7999999D01*
X+698500Y+7999999D01*
X+698501Y+8000000D01*
X+850000Y+8000000D01*
X+554000Y+8750000D02*
X+554001Y+8749999D01*
X+698500Y+8749999D01*
X+698501Y+8750000D01*
X+850000Y+8750000D01*
X+554000Y+9500000D02*
X+554000Y+9652000D01*
X+617500Y+9715500D01*
X+762000Y+9715500D01*
X+850000Y+9627500D01*
X+850000Y+9500000D01*
X+2800000Y+6250000D02*
X+2800000Y+5184000D01*
X+1866000Y+4250000D01*
X+2800000Y+6504000D02*
X+2403598Y+6107598D01*
X+2403598Y+5537598D01*
X+1866000Y+5000000D01*
X+2800000Y+6758000D02*
X+2032000Y+5990000D01*
X+2032000Y+5916000D01*
X+1866000Y+5750000D01*
X+2800000Y+7012000D02*
X+2378000Y+7012000D01*
X+1866000Y+6500000D01*
X+2800000Y+7266000D02*
X+2603500Y+7266000D01*
X+2587500Y+7250000D01*
X+1866000Y+7250000D01*
X+2800000Y+7520000D02*
X+2346000Y+7520000D01*
X+1866000Y+8000000D01*
X+2800000Y+7774000D02*
X+2213203Y+8360797D01*
X+2213203Y+8402797D01*
X+1866000Y+8750000D01*
X+2800000Y+8028000D02*
X+2800000Y+8566000D01*
X+1866000Y+9500000D01*
X+6100000Y+4004000D02*
X+6350000Y+4004000D01*
X+6354000Y+4000000D01*
X+7350000Y+4000000D01*
X+9880000Y+2150000D02*
X+9880000Y+2936000D01*
X+9616000Y+3200000D01*
X+14466000Y+3200000D02*
X+13971321Y+2705321D01*
X+13483321Y+2705321D01*
X+12928000Y+2150000D01*
X+10380000Y+3300000D02*
X+10134000Y+3054000D01*
X+10134000Y+2150000D01*
X+10634000Y+3300000D02*
X+10634000Y+3111500D01*
X+10642000Y+3103500D01*
X+10642000Y+2150000D01*
X+10888000Y+3300000D02*
X+10888000Y+3111500D01*
X+10896000Y+3103500D01*
X+10896000Y+2150000D01*
X+11142000Y+3300000D02*
X+11142000Y+3111500D01*
X+11150000Y+3103500D01*
X+11150000Y+2150000D01*
X+11396000Y+3300000D02*
X+11404000Y+3292000D01*
X+11404000Y+2150000D01*
X+11650000Y+3300000D02*
X+11658000Y+3292000D01*
X+11658000Y+2150000D01*
X+11904000Y+3300000D02*
X+11912000Y+3292000D01*
X+11912000Y+2150000D01*
X+12158000Y+3300000D02*
X+12158000Y+3111500D01*
X+12166000Y+3103500D01*
X+12166000Y+2150000D01*
X+12412000Y+3300000D02*
X+12412000Y+3111500D01*
X+12420000Y+3103500D01*
X+12420000Y+2150000D01*
X+12666000Y+3300000D02*
X+12666000Y+3111500D01*
X+12674000Y+3103500D01*
X+12674000Y+2150000D01*
X+7399000Y+8503500D02*
X+10541000Y+8503500D01*
X+10604500Y+8440000D01*
X+10604500Y+8255000D01*
X+7399000Y+8249500D02*
X+8191500Y+8249500D01*
X+8324000Y+8382000D01*
X+10414000Y+8382000D01*
X+10477500Y+8318500D01*
X+10477500Y+8191500D01*
X+10541000Y+8128000D01*
X+11493500Y+8128000D01*
X+11620500Y+8255000D01*
X+11112500Y+6731000D02*
X+9848000Y+7995500D01*
X+7399000Y+7995500D01*
X+7399000Y+7741500D02*
X+9594000Y+7741500D01*
X+10604500Y+6731000D01*
X+7399000Y+7487500D02*
X+9594000Y+7487500D01*
X+10350500Y+6731000D01*
X+7399000Y+7233500D02*
X+7239000Y+7393500D01*
X+7239000Y+8699500D01*
X+7302500Y+8763000D01*
X+10795000Y+8763000D01*
X+10858500Y+8699500D01*
X+10858500Y+8255000D01*
X+7399000Y+6979500D02*
X+7239000Y+6819500D01*
X+7239000Y+6477000D01*
X+7302500Y+6413500D01*
X+11049000Y+6413500D01*
X+11366500Y+6731000D01*
X+7399000Y+6725500D02*
X+7584000Y+6540500D01*
X+10668000Y+6540500D01*
X+10858500Y+6731000D01*
X+11430000Y+9271000D02*
X+11747500Y+8953500D01*
X+11747500Y+6858000D01*
X+11620500Y+6731000D01*
X+11176000Y+9271000D02*
X+11176000Y+9017000D01*
X+11366500Y+8826500D01*
X+11366500Y+8255000D01*
X+11112500Y+8255000D02*
X+11112500Y+8382000D01*
X+10922000Y+8572500D01*
X+10922000Y+9271000D01*
X+10668000Y+9271000D02*
X+10922000Y+9525000D01*
X+11811000Y+9525000D01*
X+11874500Y+9461500D01*
X+11874500Y+6604000D01*
X+11811000Y+6540500D01*
X+11557000Y+6540500D01*
X+11493500Y+6604000D01*
X+11493500Y+6921500D01*
X+10350500Y+8064500D01*
X+10350500Y+8255000D01*
D11*
X+14550000Y+6550000D02*
X+14732000Y+6732000D01*
X+14732000Y+6985000D01*
X+14605000Y+7112000D01*
X+14033500Y+7112000D01*
X+11750511Y+4829011D01*
X+5969000Y+4829011D01*
X+5842000Y+4702011D01*
X+5842000Y+3556000D01*
X+13182000Y+2150000D02*
X+14541500Y+2150000D01*
X+14668500Y+2277000D01*
X+14668500Y+3302000D01*
X+14605000Y+3365500D01*
X+1442000Y+3132000D02*
X+444500Y+3132000D01*
X+300000Y+3276500D01*
X+300000Y+4250000D01*
X+9372000Y+2150000D02*
X+8600000Y+2922000D01*
X+8600000Y+3200000D01*
X+10388000Y+2150000D02*
X+10569500Y+1968500D01*
X+13000500Y+1968500D01*
X+13182000Y+2150000D01*
X+14550000Y+6550000D02*
X+14550000Y+5143500D01*
X+14668500Y+5025000D01*
X+14668500Y+3429000D01*
X+14605000Y+3365500D01*
X+9372000Y+2150000D02*
X+9553500Y+1968500D01*
X+10206500Y+1968500D01*
X+10388000Y+2150000D01*
X+14605000Y+3365500D02*
X+14123500Y+3365500D01*
X+13958000Y+3200000D01*
X+6858000Y+3619500D02*
X+6984500Y+3746000D01*
X+7350000Y+3746000D01*
X+6858000Y+3619500D02*
X+6985000Y+3492500D01*
X+6985000Y+3132000D01*
X+6692000Y+3132000D01*
X+5842000Y+3556000D02*
X+5842000Y+3402000D01*
X+5942000Y+3302000D01*
X+5942000Y+3132000D01*
X+300000Y+7250000D02*
X+300000Y+7493000D01*
X+296000Y+7497000D01*
X+296000Y+8000000D01*
X+296000Y+8255000D01*
X+300000Y+8259000D01*
X+300000Y+8750000D01*
X+6858000Y+3619500D02*
X+6794500Y+3556000D01*
X+5842000Y+3556000D01*
X+4442000Y+3132000D02*
X+4739000Y+3429000D01*
X+5192000Y+3429000D01*
X+5192000Y+3132000D01*
X+5616000Y+3556000D01*
X+5842000Y+3556000D01*
X+2942000Y+3132000D02*
X+3239000Y+3429000D01*
X+3556000Y+3429000D01*
X+3692000Y+3293000D01*
X+3692000Y+3132000D01*
X+1442000Y+3132000D02*
X+1442000Y+3302000D01*
X+1569000Y+3429000D01*
X+1895000Y+3429000D01*
X+2192000Y+3132000D01*
X+300000Y+6500000D02*
X+300000Y+7250000D01*
X+300000Y+4250000D02*
X+300000Y+5000000D01*
X+300000Y+5750000D01*
X+300000Y+6500000D01*
X+300000Y+8750000D02*
X+300000Y+9500000D01*
X+2192000Y+3132000D02*
X+2530000Y+2794000D01*
X+2794000Y+2794000D01*
X+2942000Y+2942000D01*
X+2942000Y+3132000D01*
X+3692000Y+3132000D02*
X+4030000Y+2794000D01*
X+4442000Y+2794000D01*
X+4442000Y+3132000D01*
X+7747000Y+3429000D02*
X+7747000Y+1841500D01*
X+7175500Y+1270000D01*
X+6450000Y+1104000D02*
X+6616000Y+1270000D01*
X+7175500Y+1270000D01*
X+4200000Y+1104000D02*
X+4034000Y+1270000D01*
X+3429000Y+1270000D01*
X+2730500Y+1270000D02*
X+3429000Y+1270000D01*
X+2730500Y+1270000D02*
X+2116000Y+1270000D01*
X+1950000Y+1104000D01*
X+3429000Y+1206500D02*
X+3429000Y+1270000D01*
X+13450000Y+3200000D02*
X+13450000Y+5704000D01*
X+14550000Y+6804000D01*
X+7175500Y+1206500D02*
X+7175500Y+1270000D01*
X+9108000Y+3200000D02*
X+8879000Y+3429000D01*
X+7747000Y+3429000D01*
X+7747000Y+3857000D01*
X+7350000Y+4254000D01*
X+9398000Y+3175000D02*
X+9398000Y+2984500D01*
X+9626000Y+2756500D01*
X+9626000Y+2150000D01*
X+2730500Y+1206500D02*
X+2730500Y+1270000D01*
X+4200000Y+1104000D02*
X+4366000Y+1270000D01*
X+4784000Y+1270000D01*
X+4950000Y+1104000D01*
X+5700000Y+1104000D02*
X+5866000Y+1270000D01*
X+6284000Y+1270000D01*
X+6450000Y+1104000D01*
X+13450000Y+3200000D02*
X+13208000Y+3200000D01*
X+12915500Y+3492500D01*
X+9525000Y+3492500D01*
X+9398000Y+3365500D01*
X+9398000Y+3175000D01*
X+9108000Y+3200000D02*
X+9133000Y+3175000D01*
X+9398000Y+3175000D01*
X+2730500Y+1206500D02*
X+2730500Y+1192900D01*
X+2700000Y+1162400D01*
X+2700000Y+1104000D01*
X+7175500Y+1206500D02*
X+7175500Y+1128500D01*
X+7200000Y+1104000D01*
X+3429000Y+1206500D02*
X+3429000Y+1125000D01*
X+3450000Y+1104000D01*
X+4950000Y+1104000D02*
X+5228500Y+825500D01*
X+5700000Y+825500D01*
X+5700000Y+1104000D01*
D10*
X+14939040Y+60960D02*
X+60960Y+60960D01*
X+60960Y+9939040D01*
X+14939040Y+9939040D01*
X+14939040Y+60960D01*
X+1315001Y+3079395D02*
X+1315001Y+3184605D01*
X+1389395Y+3258999D01*
X+1494605Y+3258999D01*
X+1568999Y+3184605D01*
X+1568999Y+3079395D01*
X+1494605Y+3005001D01*
X+1389395Y+3005001D01*
X+1315001Y+3079395D01*
X+2318999Y+3184605D02*
X+2318999Y+3079395D01*
X+2244605Y+3005001D01*
X+2139395Y+3005001D01*
X+2071000Y+3073396D01*
X+2002605Y+3005001D01*
X+1897395Y+3005001D01*
X+1823001Y+3079395D01*
X+1823001Y+3184605D01*
X+1897395Y+3258999D01*
X+2002605Y+3258999D01*
X+2071000Y+3190604D01*
X+2139395Y+3258999D01*
X+2244605Y+3258999D01*
X+2318999Y+3184605D01*
X+1315001Y+2317395D02*
X+1315001Y+2422605D01*
X+1389395Y+2496999D01*
X+1494605Y+2496999D01*
X+1568999Y+2422605D01*
X+1568999Y+2317395D01*
X+1494605Y+2243001D01*
X+1389395Y+2243001D01*
X+1315001Y+2317395D01*
X+2318999Y+2422605D02*
X+2318999Y+2317395D01*
X+2244605Y+2243001D01*
X+2139395Y+2243001D01*
X+2071000Y+2311396D01*
X+2004604Y+2245000D01*
X+2076999Y+2172605D01*
X+2076999Y+2067395D01*
X+2002605Y+1993001D01*
X+1897395Y+1993001D01*
X+1825000Y+2065396D01*
X+1752605Y+1993001D01*
X+1647395Y+1993001D01*
X+1573001Y+2067395D01*
X+1573001Y+2172605D01*
X+1647395Y+2246999D01*
X+1752605Y+2246999D01*
X+1825000Y+2174604D01*
X+1895396Y+2245000D01*
X+1823001Y+2317395D01*
X+1823001Y+2422605D01*
X+1897395Y+2496999D01*
X+2002605Y+2496999D01*
X+2071000Y+2428604D01*
X+2139395Y+2496999D01*
X+2244605Y+2496999D01*
X+2318999Y+2422605D01*
X+3068999Y+3184605D02*
X+3068999Y+3079395D01*
X+2994605Y+3005001D01*
X+2889395Y+3005001D01*
X+2821000Y+3073396D01*
X+2752605Y+3005001D01*
X+2647395Y+3005001D01*
X+2573001Y+3079395D01*
X+2573001Y+3184605D01*
X+2647395Y+3258999D01*
X+2752605Y+3258999D01*
X+2821000Y+3190604D01*
X+2889395Y+3258999D01*
X+2994605Y+3258999D01*
X+3068999Y+3184605D01*
X+3068999Y+2422605D02*
X+3068999Y+2317395D01*
X+2994605Y+2243001D01*
X+2889395Y+2243001D01*
X+2821000Y+2311396D01*
X+2754604Y+2245000D01*
X+2826999Y+2172605D01*
X+2826999Y+2067395D01*
X+2752605Y+1993001D01*
X+2647395Y+1993001D01*
X+2576999Y+2063397D01*
X+2576999Y+2063395D01*
X+2502605Y+1989001D01*
X+2397395Y+1989001D01*
X+2323001Y+2063395D01*
X+2323001Y+2168605D01*
X+2397395Y+2242999D01*
X+2502605Y+2242999D01*
X+2573001Y+2172603D01*
X+2573001Y+2172605D01*
X+2645396Y+2245000D01*
X+2573001Y+2317395D01*
X+2573001Y+2422605D01*
X+2647395Y+2496999D01*
X+2752605Y+2496999D01*
X+2821000Y+2428604D01*
X+2889395Y+2496999D01*
X+2994605Y+2496999D01*
X+3068999Y+2422605D01*
X+3818999Y+3184605D02*
X+3818999Y+3079395D01*
X+3744605Y+3005001D01*
X+3639395Y+3005001D01*
X+3571000Y+3073396D01*
X+3502605Y+3005001D01*
X+3397395Y+3005001D01*
X+3323001Y+3079395D01*
X+3323001Y+3184605D01*
X+3397395Y+3258999D01*
X+3502605Y+3258999D01*
X+3571000Y+3190604D01*
X+3639395Y+3258999D01*
X+3744605Y+3258999D01*
X+3818999Y+3184605D01*
X+3818999Y+2422605D02*
X+3818999Y+2317395D01*
X+3744605Y+2243001D01*
X+3639395Y+2243001D01*
X+3571000Y+2311396D01*
X+3504604Y+2245000D01*
X+3576999Y+2172605D01*
X+3576999Y+2067395D01*
X+3502605Y+1993001D01*
X+3397395Y+1993001D01*
X+3326999Y+2063397D01*
X+3326999Y+2063395D01*
X+3252605Y+1989001D01*
X+3147395Y+1989001D01*
X+3073001Y+2063395D01*
X+3073001Y+2168605D01*
X+3147395Y+2242999D01*
X+3252605Y+2242999D01*
X+3323001Y+2172603D01*
X+3323001Y+2172605D01*
X+3395396Y+2245000D01*
X+3323001Y+2317395D01*
X+3323001Y+2422605D01*
X+3397395Y+2496999D01*
X+3502605Y+2496999D01*
X+3571000Y+2428604D01*
X+3639395Y+2496999D01*
X+3744605Y+2496999D01*
X+3818999Y+2422605D01*
X+4568999Y+3184605D02*
X+4568999Y+3079395D01*
X+4494605Y+3005001D01*
X+4389395Y+3005001D01*
X+4321000Y+3073396D01*
X+4252605Y+3005001D01*
X+4147395Y+3005001D01*
X+4073001Y+3079395D01*
X+4073001Y+3184605D01*
X+4147395Y+3258999D01*
X+4252605Y+3258999D01*
X+4321000Y+3190604D01*
X+4389395Y+3258999D01*
X+4494605Y+3258999D01*
X+4568999Y+3184605D01*
X+4568999Y+2422605D02*
X+4568999Y+2317395D01*
X+4494605Y+2243001D01*
X+4389395Y+2243001D01*
X+4321000Y+2311396D01*
X+4254604Y+2245000D01*
X+4326999Y+2172605D01*
X+4326999Y+2067395D01*
X+4252605Y+1993001D01*
X+4147395Y+1993001D01*
X+4073001Y+2067395D01*
X+4073001Y+2069397D01*
X+4002605Y+1999001D01*
X+3897395Y+1999001D01*
X+3823001Y+2073395D01*
X+3823001Y+2178605D01*
X+3897395Y+2252999D01*
X+4002605Y+2252999D01*
X+4076999Y+2178605D01*
X+4076999Y+2176799D01*
X+4077195Y+2176799D01*
X+4145396Y+2245000D01*
X+4073001Y+2317395D01*
X+4073001Y+2422605D01*
X+4147395Y+2496999D01*
X+4252605Y+2496999D01*
X+4321000Y+2428604D01*
X+4389395Y+2496999D01*
X+4494605Y+2496999D01*
X+4568999Y+2422605D01*
X+5318999Y+3184605D02*
X+5318999Y+3079395D01*
X+5244605Y+3005001D01*
X+5139395Y+3005001D01*
X+5071000Y+3073396D01*
X+5002605Y+3005001D01*
X+4897395Y+3005001D01*
X+4823001Y+3079395D01*
X+4823001Y+3184605D01*
X+4897395Y+3258999D01*
X+5002605Y+3258999D01*
X+5071000Y+3190604D01*
X+5139395Y+3258999D01*
X+5244605Y+3258999D01*
X+5318999Y+3184605D01*
X+5318999Y+2422605D02*
X+5318999Y+2317395D01*
X+5244605Y+2243001D01*
X+5139395Y+2243001D01*
X+5071000Y+2311396D01*
X+5004604Y+2245000D01*
X+5076999Y+2172605D01*
X+5076999Y+2067395D01*
X+5002605Y+1993001D01*
X+4897395Y+1993001D01*
X+4823001Y+2067395D01*
X+4823001Y+2069397D01*
X+4752605Y+1999001D01*
X+4647395Y+1999001D01*
X+4573001Y+2073395D01*
X+4573001Y+2178605D01*
X+4647395Y+2252999D01*
X+4752605Y+2252999D01*
X+4826999Y+2178605D01*
X+4826999Y+2176799D01*
X+4827195Y+2176799D01*
X+4895396Y+2245000D01*
X+4823001Y+2317395D01*
X+4823001Y+2422605D01*
X+4897395Y+2496999D01*
X+5002605Y+2496999D01*
X+5071000Y+2428604D01*
X+5139395Y+2496999D01*
X+5244605Y+2496999D01*
X+5318999Y+2422605D01*
X+6068999Y+3184605D02*
X+6068999Y+3079395D01*
X+5994605Y+3005001D01*
X+5889395Y+3005001D01*
X+5821000Y+3073396D01*
X+5752605Y+3005001D01*
X+5647395Y+3005001D01*
X+5573001Y+3079395D01*
X+5573001Y+3184605D01*
X+5647395Y+3258999D01*
X+5752605Y+3258999D01*
X+5821000Y+3190604D01*
X+5889395Y+3258999D01*
X+5994605Y+3258999D01*
X+6068999Y+3184605D01*
X+6068999Y+2422605D02*
X+6068999Y+2317395D01*
X+5994605Y+2243001D01*
X+5889395Y+2243001D01*
X+5821000Y+2311396D01*
X+5754604Y+2245000D01*
X+5826999Y+2172605D01*
X+5826999Y+2067395D01*
X+5752605Y+1993001D01*
X+5647395Y+1993001D01*
X+5573001Y+2067395D01*
X+5573001Y+2069397D01*
X+5502605Y+1999001D01*
X+5397395Y+1999001D01*
X+5323001Y+2073395D01*
X+5323001Y+2178605D01*
X+5397395Y+2252999D01*
X+5502605Y+2252999D01*
X+5576999Y+2178605D01*
X+5576999Y+2176799D01*
X+5577195Y+2176799D01*
X+5645396Y+2245000D01*
X+5573001Y+2317395D01*
X+5573001Y+2422605D01*
X+5647395Y+2496999D01*
X+5752605Y+2496999D01*
X+5821000Y+2428604D01*
X+5889395Y+2496999D01*
X+5994605Y+2496999D01*
X+6068999Y+2422605D01*
X+6818999Y+3184605D02*
X+6818999Y+3079395D01*
X+6744605Y+3005001D01*
X+6639395Y+3005001D01*
X+6571000Y+3073396D01*
X+6502605Y+3005001D01*
X+6397395Y+3005001D01*
X+6323001Y+3079395D01*
X+6323001Y+3184605D01*
X+6397395Y+3258999D01*
X+6502605Y+3258999D01*
X+6571000Y+3190604D01*
X+6639395Y+3258999D01*
X+6744605Y+3258999D01*
X+6818999Y+3184605D01*
X+6818999Y+2422605D02*
X+6818999Y+2317395D01*
X+6744605Y+2243001D01*
X+6639395Y+2243001D01*
X+6571000Y+2311396D01*
X+6504604Y+2245000D01*
X+6576999Y+2172605D01*
X+6576999Y+2067395D01*
X+6502605Y+1993001D01*
X+6397395Y+1993001D01*
X+6323001Y+2067395D01*
X+6323001Y+2069397D01*
X+6252605Y+1999001D01*
X+6147395Y+1999001D01*
X+6073001Y+2073395D01*
X+6073001Y+2178605D01*
X+6147395Y+2252999D01*
X+6252605Y+2252999D01*
X+6326999Y+2178605D01*
X+6326999Y+2176799D01*
X+6327195Y+2176799D01*
X+6395396Y+2245000D01*
X+6323001Y+2317395D01*
X+6323001Y+2422605D01*
X+6397395Y+2496999D01*
X+6502605Y+2496999D01*
X+6571000Y+2428604D01*
X+6639395Y+2496999D01*
X+6744605Y+2496999D01*
X+6818999Y+2422605D01*
X+7073001Y+3079395D02*
X+7073001Y+3184605D01*
X+7147395Y+3258999D01*
X+7252605Y+3258999D01*
X+7326999Y+3184605D01*
X+7326999Y+3079395D01*
X+7252605Y+3005001D01*
X+7147395Y+3005001D01*
X+7073001Y+3079395D01*
X+7326999Y+2422605D02*
X+7326999Y+2317395D01*
X+7254604Y+2245000D01*
X+7326999Y+2172605D01*
X+7326999Y+2067395D01*
X+7252605Y+1993001D01*
X+7147395Y+1993001D01*
X+7073001Y+2067395D01*
X+7073001Y+2069397D01*
X+7002605Y+1999001D01*
X+6897395Y+1999001D01*
X+6823001Y+2073395D01*
X+6823001Y+2178605D01*
X+6897395Y+2252999D01*
X+7002605Y+2252999D01*
X+7076999Y+2178605D01*
X+7076999Y+2176799D01*
X+7077195Y+2176799D01*
X+7145396Y+2245000D01*
X+7073001Y+2317395D01*
X+7073001Y+2422605D01*
X+7147395Y+2496999D01*
X+7252605Y+2496999D01*
X+7326999Y+2422605D01*
X+14689699Y+6861865D02*
X+14689699Y+6746135D01*
X+14620564Y+6677000D01*
X+14689699Y+6607865D01*
X+14689699Y+6492135D01*
X+14607865Y+6410301D01*
X+14492135Y+6410301D01*
X+14410301Y+6492135D01*
X+14410301Y+6556541D01*
X+13526199Y+5672439D01*
X+13526199Y+3303405D01*
X+13576999Y+3252605D01*
X+13576999Y+3147395D01*
X+13502605Y+3073001D01*
X+13397395Y+3073001D01*
X+13346595Y+3123801D01*
X+13176439Y+3123801D01*
X+12883939Y+3416301D01*
X+9556561Y+3416301D01*
X+9474199Y+3333939D01*
X+9474199Y+3016061D01*
X+9702199Y+2788061D01*
X+9702199Y+2235444D01*
X+9740299Y+2197344D01*
X+9740299Y+2102656D01*
X+9673344Y+2035701D01*
X+9578656Y+2035701D01*
X+9511701Y+2102656D01*
X+9511701Y+2197344D01*
X+9549801Y+2235444D01*
X+9549801Y+2724939D01*
X+9321801Y+2952939D01*
X+9321801Y+3098801D01*
X+9186405Y+3098801D01*
X+9160605Y+3073001D01*
X+9055395Y+3073001D01*
X+8981001Y+3147395D01*
X+8981001Y+3219239D01*
X+8847439Y+3352801D01*
X+7823199Y+3352801D01*
X+7823199Y+1809939D01*
X+7251699Y+1238439D01*
X+7251699Y+1230999D01*
X+7252605Y+1230999D01*
X+7326999Y+1156605D01*
X+7326999Y+1051395D01*
X+7252605Y+977001D01*
X+7147395Y+977001D01*
X+7073001Y+1051395D01*
X+7073001Y+1053397D01*
X+7002605Y+983001D01*
X+6897395Y+983001D01*
X+6896118Y+984278D01*
X+6311041Y+399201D01*
X+3589699Y+399201D01*
X+3589699Y+392135D01*
X+3507865Y+310301D01*
X+3392135Y+310301D01*
X+3323000Y+379436D01*
X+3253865Y+310301D01*
X+3138135Y+310301D01*
X+3069000Y+379436D01*
X+2999865Y+310301D01*
X+2884135Y+310301D01*
X+2879138Y+315298D01*
X+2703541Y+139701D01*
X+1502959Y+139701D01*
X+1409701Y+232959D01*
X+1409701Y+1418041D01*
X+1502959Y+1511299D01*
X+5120541Y+1511299D01*
X+5396118Y+1235722D01*
X+5397395Y+1236999D01*
X+5502605Y+1236999D01*
X+5576999Y+1162605D01*
X+5576999Y+1160603D01*
X+5647395Y+1230999D01*
X+5719239Y+1230999D01*
X+5834439Y+1346199D01*
X+6315561Y+1346199D01*
X+6430761Y+1230999D01*
X+6469239Y+1230999D01*
X+6584439Y+1346199D01*
X+7143939Y+1346199D01*
X+7670801Y+1873061D01*
X+7670801Y+3825439D01*
X+7489699Y+4006541D01*
X+7489699Y+3942135D01*
X+7420564Y+3873000D01*
X+7489699Y+3803865D01*
X+7489699Y+3688135D01*
X+7407865Y+3606301D01*
X+7292135Y+3606301D01*
X+7210301Y+3688135D01*
X+7210301Y+3803865D01*
X+7279436Y+3873000D01*
X+7210301Y+3942135D01*
X+7210301Y+3949201D01*
X+6332959Y+3949201D01*
X+6328959Y+3953201D01*
X+6239699Y+3953201D01*
X+6239699Y+3946135D01*
X+6170564Y+3877000D01*
X+6239699Y+3807865D01*
X+6239699Y+3692135D01*
X+6157865Y+3610301D01*
X+6042135Y+3610301D01*
X+5960301Y+3692135D01*
X+5960301Y+3807865D01*
X+6029436Y+3877000D01*
X+5960301Y+3946135D01*
X+5960301Y+4061865D01*
X+6029436Y+4131000D01*
X+5960301Y+4200135D01*
X+5960301Y+4315865D01*
X+6042135Y+4397699D01*
X+6157865Y+4397699D01*
X+6239699Y+4315865D01*
X+6239699Y+4200135D01*
X+6170564Y+4131000D01*
X+6239699Y+4061865D01*
X+6239699Y+4054799D01*
X+6371041Y+4054799D01*
X+6375041Y+4050799D01*
X+7210301Y+4050799D01*
X+7210301Y+4057865D01*
X+7279436Y+4127000D01*
X+7210301Y+4196135D01*
X+7210301Y+4311865D01*
X+7292135Y+4393699D01*
X+7407865Y+4393699D01*
X+7489699Y+4311865D01*
X+7489699Y+4222061D01*
X+7823199Y+3888561D01*
X+7823199Y+3505199D01*
X+8910561Y+3505199D01*
X+9088761Y+3326999D01*
X+9160605Y+3326999D01*
X+9234999Y+3252605D01*
X+9234999Y+3251199D01*
X+9321801Y+3251199D01*
X+9321801Y+3397061D01*
X+9493439Y+3568699D01*
X+12947061Y+3568699D01*
X+13239561Y+3276199D01*
X+13346595Y+3276199D01*
X+13373801Y+3303405D01*
X+13373801Y+5735561D01*
X+14410301Y+6772061D01*
X+14410301Y+6861865D01*
X+14492135Y+6943699D01*
X+14607865Y+6943699D01*
X+14689699Y+6861865D01*
X+693699Y+4300799D02*
X+723001Y+4300799D01*
X+723001Y+4302605D01*
X+797395Y+4376999D01*
X+902605Y+4376999D01*
X+976999Y+4302605D01*
X+976999Y+4197395D01*
X+902605Y+4123001D01*
X+797395Y+4123001D01*
X+723001Y+4197395D01*
X+723001Y+4199201D01*
X+719542Y+4199201D01*
X+719541Y+4199200D01*
X+693699Y+4199200D01*
X+693699Y+4110301D01*
X+160301Y+4110301D01*
X+160301Y+4389699D01*
X+693699Y+4389699D01*
X+693699Y+4300799D01*
X+693699Y+5050799D02*
X+723001Y+5050799D01*
X+723001Y+5052605D01*
X+797395Y+5126999D01*
X+902605Y+5126999D01*
X+976999Y+5052605D01*
X+976999Y+4947395D01*
X+902605Y+4873001D01*
X+797395Y+4873001D01*
X+723001Y+4947395D01*
X+723001Y+4949201D01*
X+719542Y+4949201D01*
X+719541Y+4949200D01*
X+693699Y+4949200D01*
X+693699Y+4860301D01*
X+160301Y+4860301D01*
X+160301Y+5139699D01*
X+693699Y+5139699D01*
X+693699Y+5050799D01*
X+693699Y+5800799D02*
X+723001Y+5800799D01*
X+723001Y+5802605D01*
X+797395Y+5876999D01*
X+902605Y+5876999D01*
X+976999Y+5802605D01*
X+976999Y+5697395D01*
X+902605Y+5623001D01*
X+797395Y+5623001D01*
X+723001Y+5697395D01*
X+723001Y+5699201D01*
X+719542Y+5699201D01*
X+719541Y+5699200D01*
X+693699Y+5699200D01*
X+693699Y+5610301D01*
X+160301Y+5610301D01*
X+160301Y+5889699D01*
X+693699Y+5889699D01*
X+693699Y+5800799D01*
X+693699Y+6550799D02*
X+723001Y+6550799D01*
X+723001Y+6552605D01*
X+797395Y+6626999D01*
X+902605Y+6626999D01*
X+976999Y+6552605D01*
X+976999Y+6447395D01*
X+902605Y+6373001D01*
X+797395Y+6373001D01*
X+723001Y+6447395D01*
X+723001Y+6449201D01*
X+719542Y+6449201D01*
X+719541Y+6449200D01*
X+693699Y+6449200D01*
X+693699Y+6360301D01*
X+160301Y+6360301D01*
X+160301Y+6639699D01*
X+693699Y+6639699D01*
X+693699Y+6550799D01*
X+693699Y+7300799D02*
X+723001Y+7300799D01*
X+723001Y+7302605D01*
X+797395Y+7376999D01*
X+902605Y+7376999D01*
X+976999Y+7302605D01*
X+976999Y+7197395D01*
X+902605Y+7123001D01*
X+797395Y+7123001D01*
X+723001Y+7197395D01*
X+723001Y+7199201D01*
X+719542Y+7199201D01*
X+719541Y+7199200D01*
X+693699Y+7199200D01*
X+693699Y+7110301D01*
X+160301Y+7110301D01*
X+160301Y+7389699D01*
X+693699Y+7389699D01*
X+693699Y+7300799D01*
X+689699Y+8050799D02*
X+723001Y+8050799D01*
X+723001Y+8052605D01*
X+797395Y+8126999D01*
X+902605Y+8126999D01*
X+976999Y+8052605D01*
X+976999Y+7947395D01*
X+902605Y+7873001D01*
X+797395Y+7873001D01*
X+723001Y+7947395D01*
X+723001Y+7949201D01*
X+719542Y+7949201D01*
X+719541Y+7949200D01*
X+689699Y+7949200D01*
X+689699Y+7860301D01*
X+156301Y+7860301D01*
X+156301Y+8139699D01*
X+689699Y+8139699D01*
X+689699Y+8050799D01*
X+693699Y+8800799D02*
X+723001Y+8800799D01*
X+723001Y+8802605D01*
X+797395Y+8876999D01*
X+902605Y+8876999D01*
X+976999Y+8802605D01*
X+976999Y+8697395D01*
X+902605Y+8623001D01*
X+797395Y+8623001D01*
X+723001Y+8697395D01*
X+723001Y+8699201D01*
X+719542Y+8699201D01*
X+719541Y+8699200D01*
X+693699Y+8699200D01*
X+693699Y+8610301D01*
X+160301Y+8610301D01*
X+160301Y+8889699D01*
X+693699Y+8889699D01*
X+693699Y+8800799D01*
X+885920Y+9663420D02*
X+900799Y+9648541D01*
X+900799Y+9626999D01*
X+902605Y+9626999D01*
X+976999Y+9552605D01*
X+976999Y+9447395D01*
X+902605Y+9373001D01*
X+797395Y+9373001D01*
X+723001Y+9447395D01*
X+723001Y+9552605D01*
X+788028Y+9617632D01*
X+740959Y+9664701D01*
X+638541Y+9664701D01*
X+613539Y+9639699D01*
X+693699Y+9639699D01*
X+693699Y+9360301D01*
X+160301Y+9360301D01*
X+160301Y+9639699D01*
X+503201Y+9639699D01*
X+503201Y+9673041D01*
X+596459Y+9766299D01*
X+783041Y+9766299D01*
X+885920Y+9663420D01*
X+5933199Y+9315365D02*
X+5933199Y+9199635D01*
X+5851365Y+9117801D01*
X+5844299Y+9117801D01*
X+5844299Y+8447199D01*
X+5851365Y+8447199D01*
X+5933199Y+8365365D01*
X+5933199Y+8249635D01*
X+5851365Y+8167801D01*
X+5735635Y+8167801D01*
X+5666500Y+8236936D01*
X+5597365Y+8167801D01*
X+5481635Y+8167801D01*
X+5412500Y+8236936D01*
X+5343365Y+8167801D01*
X+5227635Y+8167801D01*
X+5158500Y+8236936D01*
X+5089365Y+8167801D01*
X+4973635Y+8167801D01*
X+4904500Y+8236936D01*
X+4835365Y+8167801D01*
X+4719635Y+8167801D01*
X+4650500Y+8236936D01*
X+4581365Y+8167801D01*
X+4465635Y+8167801D01*
X+4396500Y+8236936D01*
X+4327365Y+8167801D01*
X+4211635Y+8167801D01*
X+4142500Y+8236936D01*
X+4073365Y+8167801D01*
X+3957635Y+8167801D01*
X+3875801Y+8249635D01*
X+3875801Y+8365365D01*
X+3957635Y+8447199D01*
X+3964701Y+8447199D01*
X+3964701Y+9117801D01*
X+3957635Y+9117801D01*
X+3875801Y+9199635D01*
X+3875801Y+9315365D01*
X+3957635Y+9397199D01*
X+4073365Y+9397199D01*
X+4142500Y+9328064D01*
X+4211635Y+9397199D01*
X+4327365Y+9397199D01*
X+4396500Y+9328064D01*
X+4465635Y+9397199D01*
X+4581365Y+9397199D01*
X+4650500Y+9328064D01*
X+4719635Y+9397199D01*
X+4835365Y+9397199D01*
X+4904500Y+9328064D01*
X+4973635Y+9397199D01*
X+5089365Y+9397199D01*
X+5158500Y+9328064D01*
X+5227635Y+9397199D01*
X+5343365Y+9397199D01*
X+5412500Y+9328064D01*
X+5481635Y+9397199D01*
X+5597365Y+9397199D01*
X+5666500Y+9328064D01*
X+5735635Y+9397199D01*
X+5851365Y+9397199D01*
X+5933199Y+9315365D01*
X+1992999Y+9552605D02*
X+1992999Y+9447395D01*
X+1991722Y+9446118D01*
X+2850799Y+8587041D01*
X+2850799Y+8167699D01*
X+2857865Y+8167699D01*
X+2939699Y+8085865D01*
X+2939699Y+7970135D01*
X+2870564Y+7901000D01*
X+2939699Y+7831865D01*
X+2939699Y+7716135D01*
X+2870564Y+7647000D01*
X+2939699Y+7577865D01*
X+2939699Y+7462135D01*
X+2870564Y+7393000D01*
X+2939699Y+7323865D01*
X+2939699Y+7208135D01*
X+2870564Y+7139000D01*
X+2939699Y+7069865D01*
X+2939699Y+6954135D01*
X+2870564Y+6885000D01*
X+2939699Y+6815865D01*
X+2939699Y+6700135D01*
X+2870564Y+6631000D01*
X+2939699Y+6561865D01*
X+2939699Y+6446135D01*
X+2870564Y+6377000D01*
X+2939699Y+6307865D01*
X+2939699Y+6192135D01*
X+2857865Y+6110301D01*
X+2850799Y+6110301D01*
X+2850799Y+5162959D01*
X+1991722Y+4303882D01*
X+1992999Y+4302605D01*
X+1992999Y+4197395D01*
X+1918605Y+4123001D01*
X+1813395Y+4123001D01*
X+1739001Y+4197395D01*
X+1739001Y+4302605D01*
X+1813395Y+4376999D01*
X+1918605Y+4376999D01*
X+1919882Y+4375722D01*
X+2749201Y+5205041D01*
X+2749201Y+6110301D01*
X+2742135Y+6110301D01*
X+2660301Y+6192135D01*
X+2660301Y+6292461D01*
X+2454397Y+6086557D01*
X+2454397Y+5516557D01*
X+1991722Y+5053882D01*
X+1992999Y+5052605D01*
X+1992999Y+4947395D01*
X+1918605Y+4873001D01*
X+1813395Y+4873001D01*
X+1739001Y+4947395D01*
X+1739001Y+5052605D01*
X+1813395Y+5126999D01*
X+1918605Y+5126999D01*
X+1919882Y+5125722D01*
X+2352799Y+5558639D01*
X+2352799Y+6128639D01*
X+2665298Y+6441138D01*
X+2660301Y+6446135D01*
X+2660301Y+6546461D01*
X+2082799Y+5968959D01*
X+2082799Y+5894959D01*
X+1991722Y+5803882D01*
X+1992999Y+5802605D01*
X+1992999Y+5697395D01*
X+1918605Y+5623001D01*
X+1813395Y+5623001D01*
X+1739001Y+5697395D01*
X+1739001Y+5802605D01*
X+1813395Y+5876999D01*
X+1918605Y+5876999D01*
X+1919882Y+5875722D01*
X+1981201Y+5937041D01*
X+1981201Y+6011041D01*
X+2665298Y+6695138D01*
X+2660301Y+6700135D01*
X+2660301Y+6815865D01*
X+2729436Y+6885000D01*
X+2660301Y+6954135D01*
X+2660301Y+6961201D01*
X+2399042Y+6961202D01*
X+1991722Y+6553882D01*
X+1992999Y+6552605D01*
X+1992999Y+6447395D01*
X+1918605Y+6373001D01*
X+1813395Y+6373001D01*
X+1739001Y+6447395D01*
X+1739001Y+6552605D01*
X+1813395Y+6626999D01*
X+1918605Y+6626999D01*
X+1919882Y+6625722D01*
X+2356958Y+7062798D01*
X+2378000Y+7062798D01*
X+2660301Y+7062799D01*
X+2660301Y+7069865D01*
X+2729436Y+7139000D01*
X+2660301Y+7208135D01*
X+2660301Y+7215201D01*
X+2624541Y+7215201D01*
X+2608541Y+7199201D01*
X+1992999Y+7199201D01*
X+1992999Y+7197395D01*
X+1918605Y+7123001D01*
X+1813395Y+7123001D01*
X+1739001Y+7197395D01*
X+1739001Y+7302605D01*
X+1813395Y+7376999D01*
X+1918605Y+7376999D01*
X+1992999Y+7302605D01*
X+1992999Y+7300799D01*
X+2566459Y+7300799D01*
X+2582459Y+7316799D01*
X+2660301Y+7316799D01*
X+2660301Y+7323865D01*
X+2729436Y+7393000D01*
X+2660301Y+7462135D01*
X+2660301Y+7469201D01*
X+2324959Y+7469201D01*
X+1919882Y+7874278D01*
X+1918605Y+7873001D01*
X+1813395Y+7873001D01*
X+1739001Y+7947395D01*
X+1739001Y+8052605D01*
X+1813395Y+8126999D01*
X+1918605Y+8126999D01*
X+1992999Y+8052605D01*
X+1992999Y+7947395D01*
X+1991722Y+7946118D01*
X+2367041Y+7570799D01*
X+2660301Y+7570799D01*
X+2660301Y+7577865D01*
X+2729436Y+7647000D01*
X+2660301Y+7716135D01*
X+2660301Y+7831865D01*
X+2665298Y+7836862D01*
X+2162404Y+8339756D01*
X+2162404Y+8381756D01*
X+1919882Y+8624278D01*
X+1918605Y+8623001D01*
X+1813395Y+8623001D01*
X+1739001Y+8697395D01*
X+1739001Y+8802605D01*
X+1813395Y+8876999D01*
X+1918605Y+8876999D01*
X+1992999Y+8802605D01*
X+1992999Y+8697395D01*
X+1991722Y+8696118D01*
X+2264002Y+8423838D01*
X+2264002Y+8381838D01*
X+2660301Y+7985539D01*
X+2660301Y+8085865D01*
X+2742135Y+8167699D01*
X+2749201Y+8167699D01*
X+2749201Y+8544959D01*
X+1919882Y+9374278D01*
X+1918605Y+9373001D01*
X+1813395Y+9373001D01*
X+1739001Y+9447395D01*
X+1739001Y+9552605D01*
X+1813395Y+9626999D01*
X+1918605Y+9626999D01*
X+1992999Y+9552605D01*
X+10494299Y+3347344D02*
X+10494299Y+3252656D01*
X+10427344Y+3185701D01*
X+10337541Y+3185701D01*
X+10184799Y+3032959D01*
X+10184799Y+2260844D01*
X+10248299Y+2197344D01*
X+10248299Y+2102656D01*
X+10181344Y+2035701D01*
X+10086656Y+2035701D01*
X+10019701Y+2102656D01*
X+10019701Y+2197344D01*
X+10083201Y+2260844D01*
X+10083201Y+3075041D01*
X+10265701Y+3257541D01*
X+10265701Y+3347344D01*
X+10332656Y+3414299D01*
X+10427344Y+3414299D01*
X+10494299Y+3347344D01*
X+10748299Y+3347344D02*
X+10748299Y+3252656D01*
X+10684799Y+3189156D01*
X+10684799Y+3132541D01*
X+10692799Y+3124541D01*
X+10692799Y+2260844D01*
X+10756299Y+2197344D01*
X+10756299Y+2102656D01*
X+10689344Y+2035701D01*
X+10594656Y+2035701D01*
X+10527701Y+2102656D01*
X+10527701Y+2197344D01*
X+10591201Y+2260844D01*
X+10591201Y+3082459D01*
X+10583201Y+3090459D01*
X+10583201Y+3189156D01*
X+10519701Y+3252656D01*
X+10519701Y+3347344D01*
X+10586656Y+3414299D01*
X+10681344Y+3414299D01*
X+10748299Y+3347344D01*
X+11002299Y+3347344D02*
X+11002299Y+3252656D01*
X+10938799Y+3189156D01*
X+10938799Y+3132541D01*
X+10946799Y+3124541D01*
X+10946799Y+2260844D01*
X+11010299Y+2197344D01*
X+11010299Y+2102656D01*
X+10943344Y+2035701D01*
X+10848656Y+2035701D01*
X+10781701Y+2102656D01*
X+10781701Y+2197344D01*
X+10845201Y+2260844D01*
X+10845201Y+3082459D01*
X+10837201Y+3090459D01*
X+10837201Y+3189156D01*
X+10773701Y+3252656D01*
X+10773701Y+3347344D01*
X+10840656Y+3414299D01*
X+10935344Y+3414299D01*
X+11002299Y+3347344D01*
X+11256299Y+3347344D02*
X+11256299Y+3252656D01*
X+11192799Y+3189156D01*
X+11192799Y+3132541D01*
X+11200799Y+3124541D01*
X+11200799Y+2260844D01*
X+11264299Y+2197344D01*
X+11264299Y+2102656D01*
X+11197344Y+2035701D01*
X+11102656Y+2035701D01*
X+11035701Y+2102656D01*
X+11035701Y+2197344D01*
X+11099201Y+2260844D01*
X+11099201Y+3082459D01*
X+11091201Y+3090459D01*
X+11091201Y+3189156D01*
X+11027701Y+3252656D01*
X+11027701Y+3347344D01*
X+11094656Y+3414299D01*
X+11189344Y+3414299D01*
X+11256299Y+3347344D01*
X+11510299Y+3347344D02*
X+11510299Y+3252656D01*
X+11454799Y+3197156D01*
X+11454799Y+2260844D01*
X+11518299Y+2197344D01*
X+11518299Y+2102656D01*
X+11451344Y+2035701D01*
X+11356656Y+2035701D01*
X+11289701Y+2102656D01*
X+11289701Y+2197344D01*
X+11353201Y+2260844D01*
X+11353201Y+3185701D01*
X+11348656Y+3185701D01*
X+11281701Y+3252656D01*
X+11281701Y+3347344D01*
X+11348656Y+3414299D01*
X+11443344Y+3414299D01*
X+11510299Y+3347344D01*
X+11764299Y+3347344D02*
X+11764299Y+3252656D01*
X+11708799Y+3197156D01*
X+11708799Y+2260844D01*
X+11772299Y+2197344D01*
X+11772299Y+2102656D01*
X+11705344Y+2035701D01*
X+11610656Y+2035701D01*
X+11543701Y+2102656D01*
X+11543701Y+2197344D01*
X+11607201Y+2260844D01*
X+11607201Y+3185701D01*
X+11602656Y+3185701D01*
X+11535701Y+3252656D01*
X+11535701Y+3347344D01*
X+11602656Y+3414299D01*
X+11697344Y+3414299D01*
X+11764299Y+3347344D01*
X+12018299Y+3347344D02*
X+12018299Y+3252656D01*
X+11962799Y+3197156D01*
X+11962799Y+2260844D01*
X+12026299Y+2197344D01*
X+12026299Y+2102656D01*
X+11959344Y+2035701D01*
X+11864656Y+2035701D01*
X+11797701Y+2102656D01*
X+11797701Y+2197344D01*
X+11861201Y+2260844D01*
X+11861201Y+3185701D01*
X+11856656Y+3185701D01*
X+11789701Y+3252656D01*
X+11789701Y+3347344D01*
X+11856656Y+3414299D01*
X+11951344Y+3414299D01*
X+12018299Y+3347344D01*
X+12272299Y+3347344D02*
X+12272299Y+3252656D01*
X+12208799Y+3189156D01*
X+12208799Y+3132541D01*
X+12216799Y+3124541D01*
X+12216799Y+2260844D01*
X+12280299Y+2197344D01*
X+12280299Y+2102656D01*
X+12213344Y+2035701D01*
X+12118656Y+2035701D01*
X+12051701Y+2102656D01*
X+12051701Y+2197344D01*
X+12115201Y+2260844D01*
X+12115201Y+3082459D01*
X+12107201Y+3090459D01*
X+12107201Y+3189156D01*
X+12043701Y+3252656D01*
X+12043701Y+3347344D01*
X+12110656Y+3414299D01*
X+12205344Y+3414299D01*
X+12272299Y+3347344D01*
X+12526299Y+3347344D02*
X+12526299Y+3252656D01*
X+12462799Y+3189156D01*
X+12462799Y+3132541D01*
X+12470799Y+3124541D01*
X+12470799Y+2260844D01*
X+12534299Y+2197344D01*
X+12534299Y+2102656D01*
X+12467344Y+2035701D01*
X+12372656Y+2035701D01*
X+12305701Y+2102656D01*
X+12305701Y+2197344D01*
X+12369201Y+2260844D01*
X+12369201Y+3082459D01*
X+12361201Y+3090459D01*
X+12361201Y+3189156D01*
X+12297701Y+3252656D01*
X+12297701Y+3347344D01*
X+12364656Y+3414299D01*
X+12459344Y+3414299D01*
X+12526299Y+3347344D01*
X+12780299Y+3347344D02*
X+12780299Y+3252656D01*
X+12716799Y+3189156D01*
X+12716799Y+3132541D01*
X+12724799Y+3124541D01*
X+12724799Y+2260844D01*
X+12788299Y+2197344D01*
X+12788299Y+2102656D01*
X+12721344Y+2035701D01*
X+12626656Y+2035701D01*
X+12559701Y+2102656D01*
X+12559701Y+2197344D01*
X+12623201Y+2260844D01*
X+12623201Y+3082459D01*
X+12615201Y+3090459D01*
X+12615201Y+3189156D01*
X+12551701Y+3252656D01*
X+12551701Y+3347344D01*
X+12618656Y+3414299D01*
X+12713344Y+3414299D01*
X+12780299Y+3347344D01*
X+9486299Y+2197344D02*
X+9486299Y+2102656D01*
X+9419344Y+2035701D01*
X+9324656Y+2035701D01*
X+9257701Y+2102656D01*
X+9257701Y+2197344D01*
X+9324656Y+2264299D01*
X+9419344Y+2264299D01*
X+9486299Y+2197344D01*
X+9742999Y+3252605D02*
X+9742999Y+3147395D01*
X+9741722Y+3146118D01*
X+9930799Y+2957041D01*
X+9930799Y+2260844D01*
X+9994299Y+2197344D01*
X+9994299Y+2102656D01*
X+9927344Y+2035701D01*
X+9832656Y+2035701D01*
X+9765701Y+2102656D01*
X+9765701Y+2197344D01*
X+9829201Y+2260844D01*
X+9829201Y+2914959D01*
X+9669882Y+3074278D01*
X+9668605Y+3073001D01*
X+9563395Y+3073001D01*
X+9489001Y+3147395D01*
X+9489001Y+3252605D01*
X+9563395Y+3326999D01*
X+9668605Y+3326999D01*
X+9742999Y+3252605D01*
X+10502299Y+2197344D02*
X+10502299Y+2102656D01*
X+10435344Y+2035701D01*
X+10340656Y+2035701D01*
X+10273701Y+2102656D01*
X+10273701Y+2197344D01*
X+10340656Y+2264299D01*
X+10435344Y+2264299D01*
X+10502299Y+2197344D01*
X+14592999Y+3252605D02*
X+14592999Y+3147395D01*
X+14518605Y+3073001D01*
X+14413395Y+3073001D01*
X+14412118Y+3074278D01*
X+13992362Y+2654522D01*
X+13504362Y+2654522D01*
X+13042299Y+2192459D01*
X+13042299Y+2102656D01*
X+12975344Y+2035701D01*
X+12880656Y+2035701D01*
X+12813701Y+2102656D01*
X+12813701Y+2197344D01*
X+12880656Y+2264299D01*
X+12970459Y+2264299D01*
X+13462280Y+2756120D01*
X+13950280Y+2756120D01*
X+14340278Y+3146118D01*
X+14339001Y+3147395D01*
X+14339001Y+3252605D01*
X+14413395Y+3326999D01*
X+14518605Y+3326999D01*
X+14592999Y+3252605D01*
X+13296299Y+2197344D02*
X+13296299Y+2102656D01*
X+13229344Y+2035701D01*
X+13134656Y+2035701D01*
X+13067701Y+2102656D01*
X+13067701Y+2197344D01*
X+13134656Y+2264299D01*
X+13229344Y+2264299D01*
X+13296299Y+2197344D01*
X+11846920Y+9560920D02*
X+11925299Y+9482541D01*
X+11925299Y+6582959D01*
X+11832041Y+6489701D01*
X+11535959Y+6489701D01*
X+11442701Y+6582959D01*
X+11442701Y+6627597D01*
X+11419105Y+6604001D01*
X+11313895Y+6604001D01*
X+11312618Y+6605278D01*
X+11070041Y+6362701D01*
X+7281459Y+6362701D01*
X+7188201Y+6455959D01*
X+7188201Y+6840541D01*
X+7264298Y+6916638D01*
X+7259301Y+6921635D01*
X+7259301Y+7037365D01*
X+7328436Y+7106500D01*
X+7259301Y+7175635D01*
X+7259301Y+7291365D01*
X+7264298Y+7296362D01*
X+7188201Y+7372459D01*
X+7188201Y+8720541D01*
X+7281459Y+8813799D01*
X+10816041Y+8813799D01*
X+10871201Y+8758639D01*
X+10871201Y+9131301D01*
X+10864135Y+9131301D01*
X+10795000Y+9200436D01*
X+10725865Y+9131301D01*
X+10610135Y+9131301D01*
X+10528301Y+9213135D01*
X+10528301Y+9328865D01*
X+10610135Y+9410699D01*
X+10725865Y+9410699D01*
X+10730862Y+9405702D01*
X+10900959Y+9575799D01*
X+11832041Y+9575799D01*
X+11846920Y+9560920D01*
X+8473001Y+3147395D02*
X+8473001Y+3252605D01*
X+8547395Y+3326999D01*
X+8652605Y+3326999D01*
X+8726999Y+3252605D01*
X+8726999Y+3147395D01*
X+8652605Y+3073001D01*
X+8547395Y+3073001D01*
X+8473001Y+3147395D01*
X+13831001Y+3147395D02*
X+13831001Y+3252605D01*
X+13905395Y+3326999D01*
X+14010605Y+3326999D01*
X+14084999Y+3252605D01*
X+14084999Y+3147395D01*
X+14010605Y+3073001D01*
X+13905395Y+3073001D01*
X+13831001Y+3147395D01*
X+1315001Y+3132000D02*
X+1442000Y+3132000D01*
X+1568999Y+3132000D02*
X+1442000Y+3132000D01*
X+1442000Y+3005001D02*
X+1442000Y+3132000D01*
X+1442000Y+3258999D02*
X+1442000Y+3132000D01*
X+2318999Y+3132000D02*
X+2192000Y+3132000D01*
X+2192000Y+3005001D02*
X+2192000Y+3132000D01*
X+2192000Y+3258999D02*
X+2192000Y+3132000D01*
X+3068999Y+3132000D02*
X+2942000Y+3132000D01*
X+2942000Y+3005001D02*
X+2942000Y+3132000D01*
X+2942000Y+3258999D02*
X+2942000Y+3132000D01*
X+3818999Y+3132000D02*
X+3692000Y+3132000D01*
X+3692000Y+3005001D02*
X+3692000Y+3132000D01*
X+3692000Y+3258999D02*
X+3692000Y+3132000D01*
X+4568999Y+3132000D02*
X+4442000Y+3132000D01*
X+4442000Y+3005001D02*
X+4442000Y+3132000D01*
X+4442000Y+3258999D02*
X+4442000Y+3132000D01*
X+5318999Y+3132000D02*
X+5192000Y+3132000D01*
X+5192000Y+3005001D02*
X+5192000Y+3132000D01*
X+5192000Y+3258999D02*
X+5192000Y+3132000D01*
X+6068999Y+3132000D02*
X+5942000Y+3132000D01*
X+5942000Y+3005001D02*
X+5942000Y+3132000D01*
X+5942000Y+3258999D02*
X+5942000Y+3132000D01*
X+6818999Y+3132000D02*
X+6692000Y+3132000D01*
X+6692000Y+3005001D02*
X+6692000Y+3132000D01*
X+6692000Y+3258999D02*
X+6692000Y+3132000D01*
X+160301Y+4250000D02*
X+300000Y+4250000D01*
X+300000Y+4389699D02*
X+300000Y+4250000D01*
X+300000Y+4110301D02*
X+300000Y+4250000D01*
X+160301Y+5000000D02*
X+300000Y+5000000D01*
X+300000Y+5139699D02*
X+300000Y+5000000D01*
X+300000Y+4860301D02*
X+300000Y+5000000D01*
X+160301Y+5750000D02*
X+300000Y+5750000D01*
X+300000Y+5889699D02*
X+300000Y+5750000D01*
X+300000Y+5610301D02*
X+300000Y+5750000D01*
X+160301Y+6500000D02*
X+300000Y+6500000D01*
X+300000Y+6639699D02*
X+300000Y+6500000D01*
X+300000Y+6360301D02*
X+300000Y+6500000D01*
X+160301Y+7250000D02*
X+300000Y+7250000D01*
X+300000Y+7389699D02*
X+300000Y+7250000D01*
X+300000Y+7110301D02*
X+300000Y+7250000D01*
X+156301Y+8000000D02*
X+296000Y+8000000D01*
X+296000Y+8139699D02*
X+296000Y+8000000D01*
X+296000Y+7860301D02*
X+296000Y+8000000D01*
X+160301Y+8750000D02*
X+300000Y+8750000D01*
X+300000Y+8889699D02*
X+300000Y+8750000D01*
X+300000Y+8610301D02*
X+300000Y+8750000D01*
X+160301Y+9500000D02*
X+300000Y+9500000D01*
X+300000Y+9639699D02*
X+300000Y+9500000D01*
X+300000Y+9360301D02*
X+300000Y+9500000D01*
X+9257701Y+2150000D02*
X+9372000Y+2150000D01*
X+9486299Y+2150000D02*
X+9372000Y+2150000D01*
X+9372000Y+2035701D02*
X+9372000Y+2150000D01*
X+9372000Y+2264299D02*
X+9372000Y+2150000D01*
X+10273701Y+2150000D02*
X+10388000Y+2150000D01*
X+10502299Y+2150000D02*
X+10388000Y+2150000D01*
X+10388000Y+2035701D02*
X+10388000Y+2150000D01*
X+10388000Y+2264299D02*
X+10388000Y+2150000D01*
X+13067701Y+2150000D02*
X+13182000Y+2150000D01*
X+13296299Y+2150000D02*
X+13182000Y+2150000D01*
X+13182000Y+2035701D02*
X+13182000Y+2150000D01*
X+13182000Y+2264299D02*
X+13182000Y+2150000D01*
X+14550000Y+6410301D02*
X+14550000Y+6550000D01*
X+14410301Y+6550000D02*
X+14550000Y+6550000D01*
X+14689699Y+6550000D02*
X+14550000Y+6550000D01*
X+8473001Y+3200000D02*
X+8600000Y+3200000D01*
X+8726999Y+3200000D02*
X+8600000Y+3200000D01*
X+8600000Y+3073001D02*
X+8600000Y+3200000D01*
X+8600000Y+3326999D02*
X+8600000Y+3200000D01*
X+13831001Y+3200000D02*
X+13958000Y+3200000D01*
X+14084999Y+3200000D02*
X+13958000Y+3200000D01*
X+13958000Y+3073001D02*
X+13958000Y+3200000D01*
X+13958000Y+3326999D02*
X+13958000Y+3200000D01*
X+7350000Y+3606301D02*
X+7350000Y+3746000D01*
X+7210301Y+3746000D02*
X+7350000Y+3746000D01*
X+7489699Y+3746000D02*
X+7350000Y+3746000D01*
D12*
X+1442000Y+3132000D03*
X+1950000Y+3132000D03*
X+1442000Y+2370000D03*
X+1950000Y+2370000D03*
X+2192000Y+3132000D03*
X+2700000Y+3132000D03*
X+2192000Y+2370000D03*
X+2700000Y+2370000D03*
X+2942000Y+3132000D03*
X+3450000Y+3132000D03*
X+2942000Y+2370000D03*
X+3450000Y+2370000D03*
X+3692000Y+3132000D03*
X+4200000Y+3132000D03*
X+3692000Y+2370000D03*
X+4200000Y+2370000D03*
X+4442000Y+3132000D03*
X+4950000Y+3132000D03*
X+4442000Y+2370000D03*
X+4950000Y+2370000D03*
X+5192000Y+3132000D03*
X+5700000Y+3132000D03*
X+5192000Y+2370000D03*
X+5700000Y+2370000D03*
X+5942000Y+3132000D03*
X+6450000Y+3132000D03*
X+5942000Y+2370000D03*
X+6450000Y+2370000D03*
X+6692000Y+3132000D03*
X+7200000Y+3132000D03*
X+6692000Y+2370000D03*
X+7200000Y+2370000D03*
X+1950000Y+2120000D03*
X+1950000Y+1104000D03*
X+2700000Y+2120000D03*
X+2700000Y+1104000D03*
X+3450000Y+2120000D03*
X+3450000Y+1104000D03*
X+4200000Y+2120000D03*
X+4200000Y+1104000D03*
X+4950000Y+2120000D03*
X+4950000Y+1104000D03*
X+5700000Y+2120000D03*
X+5700000Y+1104000D03*
X+6450000Y+2120000D03*
X+6450000Y+1104000D03*
X+7200000Y+2120000D03*
X+7200000Y+1104000D03*
X+1700000Y+1104000D03*
X+1700000Y+2120000D03*
X+2450000Y+1100000D03*
X+2450000Y+2116000D03*
X+3200000Y+1100000D03*
X+3200000Y+2116000D03*
X+3950000Y+1110000D03*
X+3950000Y+2126000D03*
X+4700000Y+1110000D03*
X+4700000Y+2126000D03*
X+5450000Y+1110000D03*
X+5450000Y+2126000D03*
X+6200000Y+1110000D03*
X+6200000Y+2126000D03*
X+6950000Y+1110000D03*
X+6950000Y+2126000D03*
D13*
X+554000Y+4250000D03*
X+300000Y+4250000D03*
X+554000Y+5000000D03*
X+300000Y+5000000D03*
X+554000Y+5750000D03*
X+300000Y+5750000D03*
X+554000Y+6500000D03*
X+300000Y+6500000D03*
X+554000Y+7250000D03*
X+300000Y+7250000D03*
X+550000Y+8000000D03*
X+296000Y+8000000D03*
X+554000Y+8750000D03*
X+300000Y+8750000D03*
X+554000Y+9500000D03*
X+300000Y+9500000D03*
D14*
X+3450000Y+450000D03*
X+3196000Y+450000D03*
X+2942000Y+450000D03*
X+2688000Y+450000D03*
X+2434000Y+450000D03*
X+2180000Y+450000D03*
X+1926000Y+450000D03*
X+1672000Y+450000D03*
X+5793500Y+9257500D03*
X+5539500Y+9257500D03*
X+5285500Y+9257500D03*
X+5031500Y+9257500D03*
X+4777500Y+9257500D03*
X+4523500Y+9257500D03*
X+4269500Y+9257500D03*
X+4015500Y+9257500D03*
X+5793500Y+8307500D03*
X+5539500Y+8307500D03*
X+5285500Y+8307500D03*
X+5031500Y+8307500D03*
X+4777500Y+8307500D03*
X+4523500Y+8307500D03*
X+4269500Y+8307500D03*
X+4015500Y+8307500D03*
X+2800000Y+6250000D03*
X+2800000Y+6504000D03*
X+2800000Y+6758000D03*
X+2800000Y+7012000D03*
X+2800000Y+7266000D03*
X+2800000Y+7520000D03*
X+2800000Y+7774000D03*
X+2800000Y+8028000D03*
X+6100000Y+3750000D03*
X+6100000Y+4004000D03*
X+6100000Y+4258000D03*
D15*
X+10380000Y+3300000D03*
D16*
X+10380000Y+3300000D03*
D15*
X+10634000Y+3300000D03*
D16*
X+10634000Y+3300000D03*
D15*
X+10888000Y+3300000D03*
D16*
X+10888000Y+3300000D03*
D15*
X+11142000Y+3300000D03*
D16*
X+11142000Y+3300000D03*
D15*
X+11396000Y+3300000D03*
D16*
X+11396000Y+3300000D03*
D15*
X+11650000Y+3300000D03*
D16*
X+11650000Y+3300000D03*
D15*
X+11904000Y+3300000D03*
D16*
X+11904000Y+3300000D03*
D15*
X+12158000Y+3300000D03*
D16*
X+12158000Y+3300000D03*
D15*
X+12412000Y+3300000D03*
D16*
X+12412000Y+3300000D03*
D15*
X+12666000Y+3300000D03*
D16*
X+12666000Y+3300000D03*
D15*
X+9372000Y+2150000D03*
D16*
X+9372000Y+2150000D03*
D15*
X+9626000Y+2150000D03*
D16*
X+9626000Y+2150000D03*
D15*
X+9880000Y+2150000D03*
D16*
X+9880000Y+2150000D03*
D15*
X+10134000Y+2150000D03*
D16*
X+10134000Y+2150000D03*
D15*
X+10388000Y+2150000D03*
D16*
X+10388000Y+2150000D03*
D15*
X+10642000Y+2150000D03*
D16*
X+10642000Y+2150000D03*
D15*
X+10896000Y+2150000D03*
D16*
X+10896000Y+2150000D03*
D15*
X+11150000Y+2150000D03*
D16*
X+11150000Y+2150000D03*
D15*
X+11404000Y+2150000D03*
D16*
X+11404000Y+2150000D03*
D15*
X+11658000Y+2150000D03*
D16*
X+11658000Y+2150000D03*
D15*
X+11912000Y+2150000D03*
D16*
X+11912000Y+2150000D03*
D15*
X+12166000Y+2150000D03*
D16*
X+12166000Y+2150000D03*
D15*
X+12420000Y+2150000D03*
D16*
X+12420000Y+2150000D03*
D15*
X+12674000Y+2150000D03*
D16*
X+12674000Y+2150000D03*
D15*
X+12928000Y+2150000D03*
D16*
X+12928000Y+2150000D03*
D15*
X+13182000Y+2150000D03*
D16*
X+13182000Y+2150000D03*
D14*
X+7399000Y+8503500D03*
X+7399000Y+8249500D03*
X+7399000Y+7995500D03*
X+7399000Y+7741500D03*
X+7399000Y+7487500D03*
X+7399000Y+7233500D03*
X+7399000Y+6979500D03*
X+7399000Y+6725500D03*
X+11430000Y+9271000D03*
X+11176000Y+9271000D03*
X+10922000Y+9271000D03*
X+10668000Y+9271000D03*
X+14550000Y+6804000D03*
X+14550000Y+6550000D03*
D12*
X+850000Y+4250000D03*
X+1866000Y+4250000D03*
X+850000Y+5000000D03*
X+1866000Y+5000000D03*
X+850000Y+5750000D03*
X+1866000Y+5750000D03*
X+850000Y+6500000D03*
X+1866000Y+6500000D03*
X+850000Y+7250000D03*
X+1866000Y+7250000D03*
X+850000Y+8000000D03*
X+1866000Y+8000000D03*
X+850000Y+8750000D03*
X+1866000Y+8750000D03*
X+850000Y+9500000D03*
X+1866000Y+9500000D03*
X+8600000Y+3200000D03*
X+9108000Y+3200000D03*
X+9616000Y+3200000D03*
X+13450000Y+3200000D03*
X+13958000Y+3200000D03*
X+14466000Y+3200000D03*
D14*
X+7350000Y+4254000D03*
X+7350000Y+4000000D03*
X+7350000Y+3746000D03*
D12*
X+10350500Y+6731000D03*
X+10604500Y+6731000D03*
X+10858500Y+6731000D03*
X+11112500Y+6731000D03*
X+11366500Y+6731000D03*
X+11620500Y+6731000D03*
X+11620500Y+8255000D03*
X+11366500Y+8255000D03*
X+11112500Y+8255000D03*
X+10858500Y+8255000D03*
X+10604500Y+8255000D03*
X+10350500Y+8255000D03*
M02*
